SplineFontDB: 3.0
FontName: Crimson-SemiboldItalic
FullName: Crimson Semibold Italic
FamilyName: Crimson
Weight: Semibold
Copyright: Created by Sebastian Kosch,,, with FontForge 2.0 (http://fontforge.sf.net)
UComments: "2011-10-23: Created." 
Version: 0.8
ItalicAngle: -11
UnderlinePosition: -100
UnderlineWidth: 50
Ascent: 717
Descent: 307
LayerCount: 2
Layer: 0 0 "Back"  1
Layer: 1 0 "Fore"  0
XUID: [1021 732 1356305489 14544745]
FSType: 8
OS2Version: 0
OS2_WeightWidthSlopeOnly: 0
OS2_UseTypoMetrics: 1
CreationTime: 1319393633
ModificationTime: 1325863954
PfmFamily: 17
TTFWeight: 600
TTFWidth: 5
LineGap: 92
VLineGap: 0
OS2TypoAscent: 0
OS2TypoAOffset: 1
OS2TypoDescent: 0
OS2TypoDOffset: 1
OS2TypoLinegap: 92
OS2WinAscent: 0
OS2WinAOffset: 1
OS2WinDescent: 0
OS2WinDOffset: 1
HheadAscent: -198
HheadAOffset: 1
HheadDescent: -67
HheadDOffset: 1
OS2SubXSize: 665
OS2SubYSize: 716
OS2SubXOff: 27
OS2SubYOff: 143
OS2SupXSize: 665
OS2SupYSize: 716
OS2SupXOff: -93
OS2SupYOff: 491
OS2StrikeYSize: 51
OS2StrikeYPos: 265
OS2Vendor: 'PfEd'
Lookup: 258 0 0 "'kern' Horizontal Kerning in Latin lookup 0"  {"'kern' Horizontal Kerning in Latin lookup 0 per glyph data 0"  "'kern' Horizontal Kerning in Latin lookup 0 kerning class 1"  } ['kern' ('latn' <'dflt' > ) ]
MarkAttachClasses: 1
DEI: 91125
KernClass2: 74+ 59 "'kern' Horizontal Kerning in Latin lookup 0 kerning class 1" 
 9 ampersand
 2 at
 10 exclamdown
 10 registered
 12 questiondown
 73 A Agrave Aacute Acircumflex Atilde Adieresis Aring Amacron Abreve Aogonek
 1 B
 47 C Ccedilla Cacute Ccircumflex Cdotaccent Ccaron
 19 D Eth Dcaron Dcroat
 84 E AE Egrave Eacute Ecircumflex Edieresis Emacron Ebreve Edotaccent Eogonek Ecaron OE
 1 F
 44 G Gcircumflex Gbreve Gdotaccent Gcommaaccent
 97 H I Igrave Iacute Icircumflex Idieresis Hcircumflex Hbar Itilde Imacron Ibreve Iogonek Idotaccent
 16 J IJ Jcircumflex
 14 K Kcommaaccent
 40 L Lacute Lcommaaccent Lcaron Ldot Lslash
 1 M
 39 N Ntilde Nacute Ncommaaccent Ncaron Eng

StartChar: exclam
Encoding: 33 33 0
Width: 245
VWidth: 512
Flags: W
HStem: -12.5 127<42.3754 116.737>
VStem: 21.3965 117.5<9.91402 93.6469> 131.896 104.5<499.583 616.616>
LayerCount: 2
Fore
SplineSet
21.3965 48 m 1xc0
 24.8965 85 56.3965 114.5 92.3965 114.5 c 27
 121.396 114.5 142.396 88.5 138.896 58 c 1
 135.396 20.5 105.396 -12.5 68.8965 -12.5 c 27
 37.8965 -12.5 17.8965 16.5 21.3965 48 c 1xc0
198.396 636.5 m 1
 223.396 636.5 240.396 613 236.396 581 c 1
 233.896 553.5 165.396 330.5 127.896 195.5 c 0
 122.896 178.5 104.396 169 95.3965 169 c 1
 90.3965 169 89.3965 179.5 89.3965 189 c 1
 90.8965 224.5 116.396 476.5 131.896 576 c 0xa0
 137.396 606.5 165.896 636.5 198.396 636.5 c 1
EndSplineSet
Validated: 33
EndChar

StartChar: quotedbl
Encoding: 34 34 1
Width: 334
VWidth: 512
Flags: W
HStem: 434 264<140.576 144.894 292.576 296.894>
VStem: 107.076 98<562.207 672.763> 259.076 98<562.207 672.763>
LayerCount: 2
Fore
SplineSet
329.076 698 m 27
 357.076 698 368.076 692 357.076 633 c 0
 346.076 577 314.076 516 295.076 449 c 0
 292.076 439 281.076 434 274.076 434 c 0
 267.076 434 258.076 439 259.076 447 c 0
 268.076 537 259.076 590 259.076 636 c 1
 262.076 654 292.576 698 329.076 698 c 27
177.076 698 m 27
 205.076 698 216.076 692 205.076 633 c 0
 194.076 577 162.076 516 143.076 449 c 0
 140.076 439 129.076 434 122.076 434 c 0
 115.076 434 106.076 439 107.076 447 c 0
 116.076 537 107.076 590 107.076 636 c 1
 110.076 654 140.576 698 177.076 698 c 27
EndSplineSet
Validated: 33
EndChar

StartChar: numbersign
Encoding: 35 35 2
Width: 460
VWidth: 0
Flags: W
HStem: 174 58.5<25.9899 99.5 173 239.5 313 386.01> 315.5 58.5<73.9899 147 220.5 287 360.5 433.562>
LayerCount: 2
Fore
SplineSet
360.5 374 m 1
 360.5 374 421.5 374 436 374 c 0
 441 374 442 373.5 442 370.5 c 1
 442 354.5 427.5 315.5 418 315.5 c 1
 342.5 315.5 l 1
 313 232.5 l 1
 388 232.5 l 1
 392.5 232.5 394 231.5 394 228 c 1
 394 212 379.5 174 370 174 c 1
 294.5 174 l 1
 243.5 24.5 l 1
 243 22.5 237 17 209 17 c 0
 199.5 17 187 19 186 21 c 1
 187 25.5 212.5 98 212.5 99 c 0
 213 101 239.5 174 239.5 174 c 1
 154.5 174 l 1
 103.5 24.5 l 1
 103 22.5 97 17 69 17 c 0
 59.5 17 47 19 46 21 c 1
 47 25.5 72.5 98 72.5 99 c 0
 73 101 99.5 174 99.5 174 c 1
 24 174 l 1
 19.5 174 18 175 18 178.5 c 1
 18 194.5 32.5 232.5 42 232.5 c 1
 117.5 232.5 l 1
 147 315.5 l 1
 72 315.5 l 1
 67.5 315.5 66 316.5 66 320 c 1
 66 336 80.5 374 90 374 c 1
 165.5 374 l 1
 216.5 523.5 l 1
 217 525.5 225.5 531 253.5 531 c 0
 263 531 273 528 274 526 c 1
 273 522.5 247.5 450 247.5 449 c 0
 247 447 220.5 374 220.5 374 c 1
 305.5 374 l 1
 356.5 523.5 l 1
 357 525.5 365.5 531 393.5 531 c 0
 403 531 413 528 414 526 c 1
 413 522.5 387.5 450 387.5 449 c 0
 387 447 360.5 374 360.5 374 c 1
287 315.5 m 1
 202.5 315.5 l 1
 173 232.5 l 1
 257.5 232.5 l 1
 287 315.5 l 1
EndSplineSet
Validated: 1
EndChar

StartChar: dollar
Encoding: 36 36 3
Width: 470
Flags: W
HStem: -9 39.5<161.391 252.466> 602.5 41<239.42 327.295>
VStem: 30.4658 38<93.9758 182.306> 399.466 33<464.089 546.939>
LayerCount: 2
Fore
SplineSet
136.466 -58.5 m 17
 128.193 -58.4785 103.572 -53.6113 105.379 -46.4307 c 9
 347.583 683.427 l 17
 355.183 683.875 380.771 680.181 378.966 673 c 9
 136.466 -58.5 l 17
313.466 643.5 m 0
 363.466 643.5 413.966 626.5 450.966 618.5 c 1
 446.466 572.5 442.466 529 432.466 470.5 c 1
 429.466 464.5 426.966 463.5 422.966 463.5 c 0
 416.966 464 399.466 464.5 399.466 472.5 c 0
 401.966 516 377.466 602.5 304.966 602.5 c 0
 254.966 602.5 211.466 576.5 198.966 512 c 0
 186.466 448 240.466 404 291.466 365.5 c 0
 352.466 319.5 429.466 274 408.966 169 c 0
 388.466 63 280.466 -9 181.966 -9 c 0
 127.466 -9 66.9658 5 23.9658 15 c 1
 20.9658 53.5 25.4658 137.5 30.4658 172 c 1
 33.4658 177.5 47.9658 183 53.9658 183 c 0
 61.4658 183 67.4658 179.5 68.4658 175 c 1
 68.4658 128.5 90.9658 30.5 186.466 30.5 c 0
 236.966 30.5 291.466 61 304.966 132 c 0
 318.966 204.5 253.466 246 215.466 274.5 c 0
 140.966 327 77.9658 373 96.9658 471 c 0
 115.966 570 221.466 643.5 313.466 643.5 c 0
EndSplineSet
Validated: 37
EndChar

StartChar: percent
Encoding: 37 37 4
Width: 662
VWidth: 512
Flags: W
HStem: -4.5 29<420.232 480.522> 285.5 28<456.921 516.671> 339.5 29<169.274 229.565> 629.5 28<205.963 265.713>
VStem: 71.4521 76.9109<384.306 543.959> 285.405 77.877<452.332 614.846> 322.41 76.911<40.3055 199.959> 536.363 77.8781<108.332 270.846>
LayerCount: 2
Fore
SplineSet
492.296 285.5 m 5xfb
 433.671 285.5 396.77 184.5 399.321 109 c 5
 399.882 75.5 411.814 24.5 447.291 24.5 c 5
 505.916 24.5 538.741 129 536.363 202.5 c 5
 535.595 237 524.854 285.5 492.296 285.5 c 5xfb
500.079 313.5 m 5
 568.416 313.5 611.479 271 614.241 197.5 c 5
 617.562 102 528.773 -4.5 436.373 -4.5 c 5
 368.535 -4.5 324.647 44 322.41 110 c 5
 319.088 206.5 405.68 313.5 500.079 313.5 c 5
241.338 629.5 m 5
 182.713 629.5 145.812 528.5 148.363 453 c 5
 148.924 419.5 160.856 368.5 196.334 368.5 c 5
 254.96 368.5 287.783 473 285.405 546.5 c 5xfd
 284.637 581 273.895 629.5 241.338 629.5 c 5
249.121 657.5 m 5
 317.46 657.5 360.521 615 363.282 541.5 c 5
 366.604 446 277.815 339.5 185.415 339.5 c 5
 117.578 339.5 73.6895 388 71.4521 454 c 5
 68.1299 550.5 154.722 657.5 249.121 657.5 c 5
617.5 634 m 5
 96.499 -7 l 5
 94.499 -9 69.5 -9 62.5 -3.5 c 5
 59 -2.5 56.5 0 56 5 c 13
 577.5 647.5 l 5
 579.5 649.5 599.5 648.5 604.5 643 c 5
 610.5 642 616 639.5 617.5 634 c 5
EndSplineSet
Validated: 33
EndChar

StartChar: ampersand
Encoding: 38 38 5
Width: 795
Flags: W
HStem: -5 41<330.729 495.58> 488.5 47.5<328.35 456.75>
VStem: -8 56<94 178.169> 130.591 105.409<135.453 324.268> 400.5 120.5<384.087 482.998> 439.5 36.5<129.437 184.195> 605.5 63<139.791 235.811> 733 59<437.141 517.212>
LayerCount: 2
Fore
SplineSet
433.5 536 m 27xf7
 480 536 521 500.5 521 454 c 27
 521 293.5 237 241.5 178 227 c 0
 108.595 209.618 48 196 48 154.5 c 3
 48 137 58.0273 130.031 68.5 120.5 c 0
 79.2568 110.725 88 100.5 88 84.5 c 3
 88 53.5 66 36 39 36 c 27
 27.5 36 19 37.5 10.5 41 c 1
 -2 56.5 -8 85.5 -8 102.5 c 0
 -8 169.5 34 221.5 109.5 245 c 0
 186.894 268.958 400.5 306.5 400.5 436 c 3xfb
 400.5 468 385 488.5 356.5 488.5 c 3
 288.5 488.5 236 374.5 236 251.5 c 3
 236 114.5 305.5 36 417.5 36 c 3
 510 36 605.5 99 605.5 192 c 0
 605.5 209 598 230 592 236 c 1
 540 218 476 191 476 147 c 3
 476 135 477 129.5 479 122 c 1
 475 120 463 123.5 457 129.5 c 1
 450 136.5 439.5 154.5 439.5 180.5 c 3
 439.5 240.5 481.085 263.679 561.5 305.5 c 0
 641 345.5 737.5 409.5 733 544 c 1
 742 545 751 540 755.5 537 c 1
 773.5 516 792 480 792 435.5 c 3
 792 353 731.5 296 661.5 262 c 1
 665.5 253.5 668.5 240 668.5 225 c 0
 668.5 97 530 -5 386 -5 c 0
 256 -5 130.591 63 130.591 219 c 3
 130.591 367 262.5 536 433.5 536 c 27xf7
EndSplineSet
Validated: 37
EndChar

StartChar: quotesingle
Encoding: 39 39 6
Width: 182
VWidth: 512
Flags: W
HStem: 434 264<140.576 144.894>
VStem: 107.076 98<562.207 672.763>
LayerCount: 2
Fore
SplineSet
177.076 698 m 27
 205.076 698 216.076 692 205.076 633 c 0
 194.076 577 162.076 516 143.076 449 c 0
 140.076 439 129.076 434 122.076 434 c 0
 115.076 434 106.076 439 107.076 447 c 0
 116.076 537 107.076 590 107.076 636 c 1
 110.076 654 140.576 698 177.076 698 c 27
EndSplineSet
Validated: 33
EndChar

StartChar: parenleft
Encoding: 40 40 7
Width: 268
VWidth: 0
Flags: W
LayerCount: 2
Fore
SplineSet
299.382 748 m 1
 210.882 676 17.3818 474 43.3818 177 c 0
 58.3818 4 140.382 -99 204.882 -121 c 1
 210.382 -119 210.382 -112 210.382 -109 c 1
 154.882 -54 120.382 23 108.382 164 c 0
 86.3818 418 238.882 664 307.382 735 c 1
 307.882 739 304.882 746 299.382 748 c 1
EndSplineSet
Validated: 41
EndChar

StartChar: parenright
Encoding: 41 41 8
Width: 267
VWidth: 0
Flags: W
LayerCount: 2
Fore
SplineSet
-13.8301 -121 m 1
 74.6699 -49 267.67 153 241.67 450 c 0
 226.67 623 145.17 726 80.6699 748 c 1
 75.1699 746 75.1699 739 75.1699 736 c 1
 130.67 681 165.17 604 177.17 463 c 0
 199.17 209 46.6699 -37 -21.8301 -108 c 1
 -22.8301 -112 -19.3301 -119 -13.8301 -121 c 1
EndSplineSet
Validated: 41
EndChar

StartChar: asterisk
Encoding: 42 42 9
Width: 412
Flags: W
HStem: 430 74<75.6001 168.275> 464 51<252.746 276.42> 472.5 24<187.156 228.785> 644.5 20G<208.5 235.5>
VStem: 162.5 70<306.415 383.422> 229 48<464.5 469 496.505 514.445>
LayerCount: 2
Fore
SplineSet
262.5 515 m 0x54
 287.5 515 330 634 384 634 c 0
 398 634 409 624.5 409 605.5 c 0
 409 546 277 523.5 277 491.5 c 0x54
 277 464.5 399.5 479 399.5 421.5 c 0
 399.5 400 378.5 380.5 358.5 380.5 c 0
 315.5 380.5 285.5 464 260.5 464 c 0
 237.5 464 250.5 397 232.5 340 c 0
 223.5 310 204 299.5 190 299.5 c 0
 175.5 299.5 162.5 313 162.5 330 c 0x58
 162.5 370 229 438 229 464 c 0x54
 229 469 227.5 472.5 220.5 472.5 c 0x34
 199.5 472.5 137 430 99 430 c 0
 82 430 68 441 68 457 c 0
 68 470 75.5 504 129.5 504 c 0x94
 158.5 504 188.5 496.5 208.5 496.5 c 0x34
 230.5 496.5 232 503 232 510 c 0
 232 534 180 576.5 180 619.5 c 0
 180 644.5 198 664.5 219 664.5 c 0
 252 664.5 252 622 252 582 c 0
 252 576 248.5 515 262.5 515 c 0x54
EndSplineSet
Validated: 33
EndChar

StartChar: plus
Encoding: 43 43 10
Width: 462
Flags: W
HStem: 215 47<23.4644 196.5 256.5 427.598>
LayerCount: 2
Fore
SplineSet
26 215 m 2
 23 215 21 218 21 223 c 0
 21 236 25 249 35 262 c 1
 204.5 262 l 1
 237.5 435 l 2
 240 448 278.5 451 282.5 451 c 0
 290.5 451 292.5 447 291.5 443 c 2
 256.5 262 l 1
 426 262 l 2
 428 262 429 259 429 254 c 0
 429 241 427.5 227 416.5 215 c 1
 248.5 215 l 1
 213.5 39 l 2
 211.5 29 190.5 23 174.5 23 c 0
 164.5 23 160 27 160.5 31 c 2
 196.5 215 l 1
 26 215 l 2
EndSplineSet
Validated: 1
EndChar

StartChar: comma
Encoding: 44 44 11
Width: 208
VWidth: 512
Flags: W
HStem: -131 263
VStem: 12.5 106.5<6.94781 113.904>
LayerCount: 2
Fore
SplineSet
-32 -112 m 5
 -23 -105.5 38 -54 38 -9 c 4
 38 20 12.5 23 12.5 62 c 4
 12.5 110 51 132 84 132 c 4
 94.5 132 112 124.5 116.5 119 c 5
 118.5 114 119 105 119 98 c 4
 119 60.0215 108.559 11.9756 87.8682 -24 c 4
 60.1445 -71.8525 27.708 -100.931 -17.5 -131 c 5
 -23.5 -130 -32 -121 -32 -112 c 5
EndSplineSet
Validated: 1
EndChar

StartChar: hyphen
Encoding: 45 45 12
Width: 366
VWidth: 512
Flags: W
VStem: 50 255.5<207.969 264>
LayerCount: 2
Fore
SplineSet
72.5 264 m 2
 299.5 276 l 2
 304.5 276 305.5 269 305.5 264 c 0
 305.5 251 291 208 281 207 c 10
 55 196 l 2
 52 196 50 203 50 211 c 0
 50 222 61.5 263 72.5 264 c 2
EndSplineSet
Validated: 1
EndChar

StartChar: period
Encoding: 46 46 13
Width: 212
VWidth: 512
Flags: W
HStem: -12.5 127<29.4381 101.536>
VStem: 7.39648 118<11.6392 92.0013>
LayerCount: 2
Fore
SplineSet
7.39648 46.5 m 0
 10.8965 83.5 44.8965 114.5 78.8965 114.5 c 1
 108.896 114.5 128.896 90 125.396 58.5 c 0
 121.896 21.5 88.8965 -12.5 54.8965 -12.5 c 1
 23.8965 -12.5 3.89648 14.5 7.39648 46.5 c 0
EndSplineSet
Validated: 33
EndChar

StartChar: slash
Encoding: 47 47 14
Width: 393
VWidth: 0
Flags: W
LayerCount: 2
Fore
SplineSet
458.5 755 m 1
 34.5 -12 l 2
 31.5 -17 7 -34 -16 -34 c 0
 -20 -34 -27 -30 -28 -28 c 9
 397 739 l 2
 401.806 747.161 428.5 761 446.5 761 c 0
 452.5 761 456.5 758 458.5 755 c 1
EndSplineSet
Validated: 1
EndChar

StartChar: zero
Encoding: 48 48 15
Width: 515
Flags: W
HStem: -4 36.5<181.061 251.299> 605 36.5<284.5 354.429>
LayerCount: 2
Fore
SplineSet
160.252 236 m 0
 144.753 128 162.252 32.5 212.752 32.5 c 0
 284.752 32.5 360.752 203.5 376.252 393.5 c 0
 391.752 488 379.252 605 323.252 605 c 0
 252.752 605 175.752 437.5 160.252 236 c 0
57.2529 307 m 0
 93.2529 490.5 211.752 641.5 329.752 641.5 c 0
 459.752 641.5 510.752 498 477.252 326.5 c 0
 443.752 155 328.752 -4 202.752 -4 c 0
 83.2529 -4 23.7529 135.5 57.2529 307 c 0
EndSplineSet
Validated: 33
EndChar

StartChar: one
Encoding: 49 49 16
Width: 318
Flags: W
HStem: -3 29<-0.337557 63.9021 188.078 240.016> 622 20G<273.954 292.204>
VStem: -1.54688 299.001
LayerCount: 2
Fore
SplineSet
88.4531 506.5 m 1
 81.4531 510.5 78.4531 521 78.9531 528 c 0
 78.9531 530 79.4531 533 82.4531 535 c 1
 179.954 584.5 260.454 625.5 287.454 642 c 1
 289.454 642 l 2
 294.954 642 298.454 623.5 297.454 614.5 c 1
 297.454 614.5 275.454 570 258.954 484 c 2
 192.954 135 l 2
 186.954 102 181.954 73 182.954 46 c 0
 183.954 35 233.954 26 240.954 26 c 0
 243.954 26 241.954 15 240.954 8 c 0
 239.954 3 238.954 -1 237.954 -3 c 1
 200.954 -1 140.954 2 103.954 2 c 0
 66.9531 2 36.4531 -1 -1.54688 -3 c 1
 -5.54688 2 -0.546875 26 4.45312 26 c 0
 15.4531 26 65.9531 35 70.9531 46 c 0
 79.9531 66 83.4531 84 86.9531 103 c 2
 152.454 439 l 2
 164.454 499 169.954 530 150.954 530 c 0
 143.954 530 106.454 515.5 88.4531 506.5 c 1
EndSplineSet
Validated: 33
EndChar

StartChar: two
Encoding: 50 50 17
Width: 452
Flags: W
HStem: 0 91.5<99.043 327.412> 567 75<208.112 291.667>
VStem: 317.043 115.5<407.873 540.85>
LayerCount: 2
Fore
SplineSet
432.543 501 m 0
 432.543 412.5 379.543 348 305.543 278 c 0
 218.043 195 97.043 91.5 99.043 91.5 c 9
 270.043 91.5 l 2
 323.543 91.5 349.543 124.5 365.043 161.5 c 0
 367.043 166.5 372.043 170.5 379.043 170.5 c 0
 384.543 170.5 393.543 166.5 396.043 164 c 1
 372.543 114.5 326.043 18 318.043 0 c 9
 318.043 0 -7.45703 0 -14.457 0 c 1
 -17.457 1 -21.457 9.5 -20.957 18.5 c 1
 34.043 68.5 162.543 201.5 220.043 269.5 c 0
 285.043 346 317.043 412 317.043 477 c 0
 317.043 531 286.043 567 234.543 567 c 0
 168.543 567 115.543 506.5 104.543 492 c 1
 96.543 492 88.043 504 88.043 510 c 1
 99.043 535 190.543 642 287.543 642 c 0
 360.543 642 432.543 588.5 432.543 501 c 0
EndSplineSet
Validated: 33
EndChar

StartChar: three
Encoding: 51 51 18
Width: 445
Flags: W
HStem: -5 39<107.879 210.994> 316 31.5<136.503 190.7> 575.5 66.5<205.899 312.5>
VStem: 286 108<149.226 294.34> 308.5 93.5<454.088 554.421>
LayerCount: 2
Fore
SplineSet
289 642 m 0xe8
 336 642 402 611 402 524 c 0xe8
 402 448 327.5 395.5 282.5 375.5 c 1
 338.5 368.5 394 307.5 394 240.5 c 0
 394 86.5 221.5 -5 121 -5 c 0
 63.5 -5 24 8.5 1 24.5 c 1
 -3 29.5 -8 42.5 -8 53.5 c 0
 -8 95.5 20.5 116 42.5 116 c 0
 77 116 83 86.5 94.5 68.5 c 0
 109 46 133 34 158 34 c 0
 215 34 286 104.5 286 217.5 c 0xf0
 286 284.5 256 324 191.5 324 c 0
 174.5 324 152.5 319 140.5 316 c 1
 137.5 321 136.5 327 136.5 332 c 0
 136.5 336 138 344.5 140 347.5 c 1
 212.5 358.5 308.5 411.5 308.5 493.5 c 0
 308.5 551 273.5 575.5 231.5 575.5 c 0
 174 575.5 128 516.5 118.5 509 c 1
 111.5 509 105 523.5 106 532.5 c 1
 139.5 580.5 212.5 642 289 642 c 0xe8
EndSplineSet
Validated: 1
EndChar

StartChar: four
Encoding: 52 52 19
Width: 474
Flags: W
HStem: -5.5 21G<254.285 283.285> 174.5 62<74.7861 255.285 368.285 427.303> 623 20G<422.285 430.285>
LayerCount: 2
Fore
SplineSet
425.785 643 m 0
 434.785 643 444.785 629 442.785 621 c 2
 368.285 236.5 l 25
 422.785 236.5 l 18
 428.785 236.5 431.285 222.5 429.285 208 c 0
 428.285 194.5 421.785 180.5 417.285 174.5 c 1
 355.785 174.5 l 25
 322.285 0.5 l 1
 322.285 0.5 301.285 -5.5 265.285 -5.5 c 0
 243.285 -5.5 220.786 -3.5 221.786 3.5 c 2
 255.285 174.5 l 25
 -3.21387 174.5 l 1
 -9.21387 178.5 -10.7139 189.5 -9.71387 195.5 c 1
 395.285 622.5 l 2
 403.785 631.5 418.785 643 425.785 643 c 0
316.785 494.5 m 25
 74.7861 236.5 l 25
 266.785 236.5 l 25
 316.785 494.5 l 25
EndSplineSet
Validated: 33
EndChar

StartChar: five
Encoding: 53 53 20
Width: 435
Flags: W
HStem: -5 39<109.879 210.137> 331.5 74<143.134 249.308> 540.5 92.5<177.578 377.326>
VStem: 288 106.5<154.276 291.993>
LayerCount: 2
Fore
SplineSet
394.5 247 m 0
 394.5 93 224 -5 123 -5 c 0
 65.5 -5 26 8.5 3 24.5 c 1
 -1 29.5 -6 42.5 -6 53.5 c 0
 -6 95.5 22.5 116 44.5 116 c 0
 79 116 85 86.5 96.5 68.5 c 0
 111 46 135 34 160 34 c 0
 217 34 288 104.5 288 217.5 c 0
 288 272.5 263 331.5 174.5 331.5 c 3
 154.5 331.5 118.5 325 99.5 319 c 1
 96.5 321 90.5 328 86.5 333 c 1
 126 466.5 154 590 166 633 c 1
 244.5 634 367 635.5 409.5 645 c 1
 415.5 641.5 419.5 634.5 419.5 631 c 1
 419.5 613 389.5 564.5 379.5 550.5 c 1
 334.5 540.5 199.5 542 183.5 540.5 c 1
 180 531 156.5 434 142 384.5 c 1
 166 397.5 219 405.5 237 405.5 c 0
 325.5 405.5 394.5 336 394.5 247 c 0
EndSplineSet
Validated: 1
EndChar

StartChar: six
Encoding: 54 54 21
Width: 470
VWidth: 0
Flags: W
HStem: -6 34<167.191 240.101> 327.5 49.5<229.654 336> 618 24.5<439.933 460.799>
VStem: 33 106<78.7914 292.106> 318 105.5<136.04 304.787>
LayerCount: 2
Fore
SplineSet
297.5 377 m 0
 374.5 377 423.5 313.5 423.5 229 c 0
 423.5 106 309 -6 191 -6 c 0
 107 -6 33 62.5 33 175.5 c 0
 33 260.5 71 368.5 158.5 465.5 c 0
 221 535 334 613.5 456 642.5 c 1
 462 640.5 463 624 462 618 c 1
 343 567.5 244.5 490.5 188 363 c 0
 150.5 278.5 139 208.5 139 146.5 c 0
 139 81.5 159 28 201 28 c 0
 256 28 318 128.5 318 226 c 0
 318 281.5 299 327.5 244 327.5 c 0
 227.5 327.5 216 323 208.5 319 c 1
 205.5 321 203 325.5 203 331.5 c 3
 203 343.5 262 377 297.5 377 c 0
EndSplineSet
Validated: 1
EndChar

StartChar: seven
Encoding: 55 55 22
Width: 424
Flags: W
HStem: -8 21G<72.957 79.957> 541.5 93<127.468 397.206>
LayerCount: 2
Fore
SplineSet
40.207 13.5 m 1
 131.706 126.5 336.206 445.5 397.206 541.5 c 1
 173.706 541.5 l 2
 132.206 541.5 106.207 496 87.707 461 c 0
 86.1914 458.47 84.3516 457.029 78.1523 456.476 c 0
 70.4004 455.873 61.333 459.686 57.207 463 c 1
 76.207 506.5 122.206 601.5 133.706 634.5 c 1
 141.206 634.5 410.706 635 410.706 635 c 2
 439.206 635 478.206 638.5 484.206 638.5 c 0
 490.206 638.5 489.206 631.5 488.206 626.5 c 0
 485.706 615.5 469.206 593 449.706 562.5 c 2
 90.207 -5.5 l 1
 87.207 -7.5 81.707 -8 78.207 -8 c 0
 67.707 -8 37.207 -0.5 40.207 13.5 c 1
EndSplineSet
Validated: 33
EndChar

StartChar: eight
Encoding: 56 56 23
Width: 470
Flags: W
HStem: -7.5 36.5<149.157 245.461> 608 34.5<253.507 331.343>
LayerCount: 2
Fore
SplineSet
304.614 642.5 m 0
 387.114 642.5 462.614 597 442.614 492 c 0
 429.114 422 362.114 376 309.114 349.5 c 1
 305.114 348 306.114 345.5 308.114 343.5 c 0
 362.614 300.5 413.614 235 399.614 164.5 c 0
 378.114 56 272.114 -7.5 177.114 -7.5 c 0
 75.1152 -7.5 5.11523 64 24.1152 161 c 0
 41.1152 249 127.114 290.5 173.614 314.5 c 0
 176.614 316 177.614 319.5 175.614 320.5 c 0
 141.614 348 99.1152 408.5 113.114 482.5 c 0
 130.114 567.5 213.114 642.5 304.614 642.5 c 0
294.114 608 m 0
 253.614 608 215.114 564 208.114 500 c 0
 202.114 440.5 242.614 399.5 275.114 373.5 c 0
 277.114 372.5 278.114 371.5 279.614 371.5 c 0
 281.114 371.5 282.614 371.5 285.114 374 c 0
 319.614 405.5 346.114 448 351.614 502.5 c 0
 357.114 549 342.614 608 294.114 608 c 0
191.114 29 m 0
 244.114 29 284.614 72.5 294.614 129 c 0
 309.614 214.5 217.614 281.5 207.614 289.5 c 0
 205.614 290.5 205.614 291 203.114 291 c 0
 202.114 291 200.614 290.5 199.614 289.5 c 0
 160.614 255.5 137.614 216.5 127.115 154 c 0
 113.615 74.5 146.114 29 191.114 29 c 0
EndSplineSet
Validated: 33
EndChar

StartChar: nine
Encoding: 57 57 24
Width: 468
VWidth: 0
Flags: W
HStem: -6 24.5<27.5391 48.4048> 259.5 49.5<152.337 258.683> 608.5 34<248.236 321.146>
VStem: 64.8379 105.499<331.713 500.46> 349.337 106<344.394 557.709>
LayerCount: 2
Fore
SplineSet
190.837 259.5 m 0
 113.837 259.5 64.8379 323 64.8379 407.5 c 0
 64.8379 530.5 179.337 642.5 297.337 642.5 c 0
 381.337 642.5 455.337 574 455.337 461 c 0
 455.337 376 417.337 268 329.837 171 c 0
 267.337 101.5 154.337 23 32.3379 -6 c 1
 26.3379 -4 25.3379 12.5 26.3379 18.5 c 1
 145.337 69 243.837 146 300.337 273.5 c 0
 337.837 358 349.337 428 349.337 490 c 0
 349.337 555 329.337 608.5 287.337 608.5 c 0
 232.337 608.5 170.337 508 170.337 410.5 c 0
 170.337 355 189.337 309 244.337 309 c 0
 260.837 309 272.337 313.5 279.837 317.5 c 1
 282.837 315.5 285.337 311 285.337 305 c 3
 285.337 293 226.337 259.5 190.837 259.5 c 0
EndSplineSet
Validated: 1
EndChar

StartChar: colon
Encoding: 58 58 25
Width: 240
VWidth: 512
Flags: W
HStem: -12.5 129<41.6964 113.771> 311.5 129<104.279 176.446>
VStem: 18.3965 119.499<11.7701 93.3795> 80.8965 119.999<335.988 417.653>
LayerCount: 2
Fore
SplineSet
80.8965 371.5 m 0xd0
 84.3965 409 118.896 440.5 153.396 440.5 c 1
 183.896 440.5 204.396 415.5 200.896 383.5 c 0
 197.396 346 163.896 311.5 129.396 311.5 c 1
 97.8965 311.5 77.3965 339 80.8965 371.5 c 0xd0
18.3965 47 m 0xe0
 21.8965 84.5 55.8965 116.5 90.3965 116.5 c 1
 120.896 116.5 141.396 91 137.896 59 c 0
 134.396 21.5 100.896 -12.5 66.3965 -12.5 c 1
 34.8965 -12.5 14.8965 15 18.3965 47 c 0xe0
EndSplineSet
Validated: 33
EndChar

StartChar: semicolon
Encoding: 59 59 26
Width: 237
VWidth: 512
Flags: W
HStem: 311.5 129<106.883 179.05>
VStem: 25.5 106.5<6.94781 113.904> 83.5 120<335.988 417.653>
LayerCount: 2
Fore
SplineSet
-19 -112 m 1xc0
 -10 -105.5 51 -54 51 -9 c 0
 51 20 25.5 23 25.5 62 c 0
 25.5 110 64 132 97 132 c 0
 107.5 132 125 124.5 129.5 119 c 1
 131.5 114 132 105 132 98 c 0
 132 60.0215 121.559 11.9756 100.868 -24 c 0
 73.1445 -71.8525 40.708 -100.931 -4.5 -131 c 1
 -10.5 -130 -19 -121 -19 -112 c 1xc0
203.5 383.5 m 0xa0
 200 346 166.5 311.5 132 311.5 c 1xc0
 100.5 311.5 80 339 83.5 371.5 c 0
 87 409 121.5 440.5 156 440.5 c 1
 186.5 440.5 207 415.5 203.5 383.5 c 0xa0
EndSplineSet
Validated: 33
EndChar

StartChar: less
Encoding: 60 60 27
Width: 454
VWidth: 512
Flags: W
LayerCount: 2
Fore
SplineSet
93.9521 209 m 1
 363.952 46 l 1
 363.952 46 365.952 45 365.452 40.5 c 0
 364.952 30.5 345.452 -14.5 339.952 -14.5 c 0
 338.952 -14.5 337.952 -14 335.952 -13 c 2
 23.9521 177 l 2
 14.9521 183 12.9521 195.5 14.4521 210 c 0
 15.4521 222.5 22.9521 234 36.4521 241 c 2
 418.952 428 l 2
 420.952 429 422.452 429.5 423.452 429.5 c 0
 426.452 429.5 428.952 415.5 428.952 390 c 0
 428.952 382 426.452 370 424.452 369 c 1
 93.9521 209 l 1
EndSplineSet
Validated: 33
EndChar

StartChar: equal
Encoding: 61 61 28
Width: 551
VWidth: 512
Flags: W
HStem: 140.5 53.5<48.2749 462.882> 281.5 53.5<76.0132 490.212>
LayerCount: 2
Fore
SplineSet
47 140.5 m 1
 45.5 140.5 42 142 42 147.5 c 0
 42 155.5 51.5 187.5 61 194 c 1
 464.5 194 l 2
 468 194 469 191 469 187.5 c 0
 469 178.5 463 159 453.5 143.5 c 1
 451.5 140.5 455.5 146.5 450 140.5 c 1
 47 140.5 l 1
74.5 281.5 m 1
 73 281.5 70 283 70 288.5 c 0
 70 295.5 79 328.5 88.5 335 c 1
 491.5 335 l 2
 495 335 496 332 496 328.5 c 0
 496 319.5 490.5 300 481 284.5 c 1
 479.5 281.5 482.5 287.5 477 281.5 c 1
 74.5 281.5 l 1
EndSplineSet
Validated: 1
EndChar

StartChar: greater
Encoding: 62 62 29
Width: 455
VWidth: 512
Flags: W
LayerCount: 2
Fore
SplineSet
339.205 209 m 1
 70.2051 369 l 1
 70.2051 369 67.7051 371 68.7051 375.5 c 0
 75.7051 397.5 91.2051 430 95.2051 430 c 0
 96.2051 430 97.2051 429 99.2051 428 c 2
 408.205 241 l 2
 415.705 236.5 421.205 229 420.205 219 c 0
 418.705 209 414.705 186.5 395.705 177 c 2
 10.7051 -13 l 2
 8.70508 -14 6.70508 -15 5.20508 -15 c 0
 -0.294922 -15 -0.294922 21 0.205078 39 c 0
 0.705078 44 4.70508 46 4.70508 46 c 1
 339.205 209 l 1
EndSplineSet
Validated: 37
EndChar

StartChar: question
Encoding: 63 63 30
Width: 345
VWidth: 512
Flags: W
HStem: -12.5 127<62.024 133.101> 577.5 61<201.181 278.746>
VStem: 39.4131 118<11.3658 91.9263> 71.4131 80.9999<240.693 307.28> 287.913 62<476.33 569.151>
LayerCount: 2
Fore
SplineSet
39.4131 46 m 0xe8
 42.9131 83.5 75.9131 114.5 109.913 114.5 c 1
 139.913 114.5 160.913 89.5 157.413 58 c 0
 153.913 21 119.913 -12.5 85.9131 -12.5 c 1
 54.9131 -12.5 35.9131 14.5 39.4131 46 c 0xe8
188.913 206 m 1
 188.913 201 182.413 191 177.413 188 c 1
 153.413 188 71.4131 236.5 71.4131 292.5 c 3
 71.4131 346.5 110.413 371 136.413 389 c 0
 173.402 414.339 210.236 431.747 249.413 461.581 c 0
 269.365 476.836 287.913 496.667 287.913 528 c 3
 287.913 559.5 270.913 577.5 243.413 577.5 c 0
 206.413 577.5 190.913 529 156.913 529 c 0
 119.413 529 110.913 570.5 118.413 598.5 c 1
 126.913 613.5 160.413 638.5 202.913 638.5 c 0
 281.913 638.5 349.913 569 349.913 501 c 0
 349.913 452.5 337.396 415.765 283.718 377.5 c 0
 263.612 361.322 227.887 344.732 188.413 318.022 c 0
 165.063 302.389 152.413 286.246 152.413 264 c 3xd8
 152.413 235 179.413 212.5 188.913 206 c 1
EndSplineSet
Validated: 33
EndChar

StartChar: at
Encoding: 64 64 31
Width: 760
VWidth: 512
Flags: W
HStem: -11.5 62<458 557.004> -6.5 73<240.5 328.447> 391 50.5<386.619 493.75> 538.5 41<343.178 544.39>
VStem: 29 48<28.1994 268.655> 179.5 100<74.9445 226.679> 671.5 54.5<175.407 410.42>
LayerCount: 2
Fore
SplineSet
504.5 118.5 m 2x7e
 495 70.5 505 50.5 531.5 50.5 c 3
 591.5 50.5 671.5 162.5 671.5 283.5 c 0
 671.5 436 599 538.5 440 538.5 c 3
 286 538.5 77 381 77 141 c 0
 77 66 103.5 -13.5 168 -69 c 0
 184.089 -82.4814 201.5 -91.5 210 -95.5 c 1
 204 -100.5 193 -104 177 -104 c 0
 161 -104 127.5 -85.5 110 -68.5 c 0
 59.9297 -19.582 29 53.5 29 136 c 0
 29 388 243.5 579.5 451.5 579.5 c 3
 636.5 579.5 726 445.5 726 298.5 c 0
 726 85 555.5 -11.5 482.5 -11.5 c 0xbe
 433.5 -11.5 405.5 18.5 405.5 58 c 0
 405.5 64 406.5 73.5 409 87.5 c 0
 411.5 101 412.5 104.5 413.5 110 c 1
 392.5 73.5 329 -6.5 270 -6.5 c 1
 211 -6.5 179.5 53 179.5 122 c 1
 179.5 284.5 344 441.5 476 441.5 c 0
 511.5 441.5 546.5 433 566 426 c 1
 504.5 118.5 l 2x7e
427 391 m 1
 354.5 391 279.5 267.5 279.5 151 c 0
 279.5 96 294.5 66.5 323 66.5 c 1x7e
 365 66.5 425.5 179.5 445 277 c 2
 465 378.5 l 1
 457 387.5 440.5 391 427 391 c 1
EndSplineSet
Validated: 33
EndChar

StartChar: A
Encoding: 65 65 32
Width: 601
Flags: W
HStem: -3.5 32.5<-57.3716 -3.05852 84.8358 136.827 322.469 382.799 516.9 560.231> 238.5 45<197.398 358.397> 642.5 20G<384.398 391.648>
LayerCount: 2
Fore
SplineSet
63.3984 136.5 m 2
 348.398 629 l 2
 356.898 643.5 379.898 662.5 388.898 662.5 c 0
 394.398 662.5 398.398 659.5 400.398 657.5 c 1
 489.919 137 l 5
 495.968 102.798 499.013 80.4307 501.398 68 c 4
 507.898 35.5 554.898 29.5 561.898 29.5 c 5
 564.898 21.5 560.398 0 557.398 -3.5 c 5
 520.398 -1.5 485.898 3 444.898 3 c 0
 401.898 3 358.398 -1.5 319.898 -3.5 c 1
 315.898 1.5 321.398 27 326.898 29.5 c 1
 340.398 29.5 370.898 35 383.398 45 c 0
 388.398 49 391.398 54 392.398 60.5 c 0
 396.398 80 366.898 233.5 366.898 233.5 c 1
 366.898 233.5 365.398 237.5 362.398 237.5 c 0
 332.898 239.5 293.898 238.5 270.898 238.5 c 0
 232.898 238.5 210.898 238.5 173.398 236.5 c 0
 170.898 236.5 166.898 233.5 166.398 232.5 c 1
 166.398 232.5 128.398 168 108.398 130 c 0
 92.3984 100 80.3984 70.5 78.3984 60.5 c 0
 73.3984 35.5 132.398 29.5 139.398 29.5 c 1
 142.398 24.5 137.398 1.5 133.898 -3.5 c 1
 99.3984 -0.5 80.8984 3 39.8984 3 c 0
 -3.10156 3 -22.1016 -0.5 -60.1016 -3.5 c 1
 -62.6016 0 -59.6016 20 -54.6016 29 c 1
 -43.6016 29 -2.60156 40 9.39844 54.5 c 0
 31.8984 81.5 44.8984 104.5 63.3984 136.5 c 2
321.398 505.5 m 1
 197.398 290 l 1
 197.398 290 197.398 286 199.398 286 c 0
 220.398 284.5 255.898 283.5 276.898 283.5 c 0
 305.898 283.5 325.398 284 354.398 286 c 0
 356.398 286 358.398 291 358.398 291 c 1
 321.398 505.5 l 1
EndSplineSet
Validated: 33
EndChar

StartChar: B
Encoding: 66 66 33
Width: 578
Flags: W
HStem: -3 38.5<-1.28343 68.1201 185.123 320.511> 333 38.5<239.735 359.119> 622 37.5<118.478 175.462 290.532 396.341>
LayerCount: 2
Fore
SplineSet
239.735 371.5 m 1
 310.735 371.5 l 2
 367.235 371.5 409.735 421 422.735 487 c 0
 440.235 579 405.735 622 339.235 622 c 0
 323.235 622 296.235 621 290.235 611 c 0
 283.235 599 278.735 572.5 272.735 543 c 2
 239.735 371.5 l 1
231.735 333 m 1
 189.235 113.5 l 2
 187.235 103.5 179.735 60 184.735 50.5 c 0
 192.735 37 218.735 35.5 247.735 35.5 c 0
 304.235 35.5 376.235 63.5 398.235 176 c 0
 413.235 251 399.735 333 284.235 333 c 2
 231.735 333 l 1
380.235 659.5 m 0
 465.735 659.5 560.235 621 537.735 506 c 0
 522.235 427.5 444.735 379.5 413.735 368 c 0
 408.735 366 408.735 363.5 410.235 362.5 c 1
 455.235 358.5 540.735 297 521.235 195.5 c 0
 509.235 134 461.235 73 405.235 38.5 c 0
 346.735 2.5 278.735 -3 208.235 -3 c 0
 188.735 -3 11.2344 -2.5 -6.76562 -3 c 1
 -10.2646 2.5 -5.76562 24 -0.265625 30 c 1
 11.2344 30.5 58.7344 34.5 64.7344 46.5 c 0
 74.2344 64.5 79.7344 94 86.7344 130.5 c 2
 164.235 528 l 2
 171.235 564.5 177.735 594 174.735 612 c 0
 173.235 624 127.235 627.5 115.735 628 c 1
 112.735 634 116.735 655.5 122.235 661 c 1
 161.735 658.5 205.235 657 242.735 657 c 0
 280.235 657 325.735 659.5 380.235 659.5 c 0
EndSplineSet
Validated: 33
EndChar

StartChar: C
Encoding: 67 67 34
Width: 645
Flags: W
HStem: -7.5 40<283.386 446.359> 627.5 39<354.271 515.243>
VStem: 55 119.5<161.881 400.422> 587.5 32.5<483.003 550.389>
LayerCount: 2
Fore
SplineSet
439 627.5 m 0
 295.5 627.5 174.188 488.5 174.5 275 c 0
 174.672 169.5 220.5 32.5 361 32.5 c 0
 412.953 32.5 457.074 52.2783 489.5 79.3115 c 0
 529.677 112.636 561.806 169.608 571 188.5 c 1
 584.5 188.5 597.5 182 600.5 178.5 c 1
 597.5 163 545 44 530.5 34 c 1
 475.5 4.5 419 -7.5 333 -7.5 c 0
 154.5 -7.5 55 129.5 55 270.5 c 0
 55 521.5 261.314 668.5 453.5 666.5 c 0
 512.995 665.94 580.5 651 631.5 639 c 1
 630.5 615.5 622 515 620 494 c 0
 619.265 487.472 610.5 483 603.5 483 c 1
 599 483 591.5 483 587.5 489 c 1
 589 548.5 540 627.5 439 627.5 c 0
EndSplineSet
Validated: 33
EndChar

StartChar: D
Encoding: 68 68 35
Width: 701
Flags: W
HStem: -3 38.5<-1.28343 68.1201 184.58 357.103> 622 37<118.477 175.462 287.763 439.313>
LayerCount: 2
Fore
SplineSet
273.235 543 m 2
 192.735 129.5 l 2
 190.735 119.5 181.235 67 184.735 54 c 0
 188.735 41.5 219.235 35.5 248.235 35.5 c 0
 395.735 35.5 505.235 118.5 543.235 313.5 c 0
 584.235 524.5 494.235 622 348.735 622 c 0
 332.735 622 296.735 621 290.735 610.5 c 0
 283.235 596.5 279.235 572 273.235 543 c 2
381.735 659 m 0
 596.735 659 703.235 520.5 665.235 325.5 c 0
 626.235 123.5 479.735 -2.5 243.735 -3 c 1
 224.235 -3 11.2344 -2.5 -6.76562 -3 c 1
 -10.2646 2.5 -5.76562 24 -0.265625 30 c 1
 11.2344 30.5 58.7344 34.5 64.7344 46.5 c 0
 74.2344 64.5 79.7344 94 86.7344 130.5 c 2
 164.235 528 l 2
 171.235 564.5 177.735 594 174.735 612 c 0
 173.235 624 127.235 627.5 115.735 628 c 1
 112.735 634 116.735 655.5 122.235 661 c 1
 161.735 658.5 205.235 657 242.735 657 c 0
 280.235 657 333.735 658.5 381.735 659 c 0
EndSplineSet
Validated: 33
EndChar

StartChar: E
Encoding: 69 69 36
Width: 565
Flags: W
HStem: -3 33<-3.43555 65.8127> -1.14453 40.6445<185.63 391.58> 311 42<239.098 378.348> 620.5 36.5<287.844 481.543> 628 33<120.6 175.314>
VStem: 395.814 29<232.106 273.411> 512.814 32.501<517.239 582.65>
LayerCount: 2
Fore
SplineSet
243.814 657 m 0x36
 306.814 657 467.814 663.5 545.815 664 c 1
 542.815 614 545.315 567 545.315 522 c 1
 542.315 519 531.815 517 524.815 517 c 0
 517.815 517 513.314 519.5 512.814 524.5 c 0
 505.814 592 479.814 620.5 426.814 620.5 c 2
 348.314 620.5 l 1
 332.314 620.5 296.814 619.5 290.814 609 c 0
 283.314 595 279.314 571 273.814 543 c 2
 238.314 361.5 l 2
 237.314 356 256.814 353 276.814 353 c 2
 325.814 353 l 2
 397.814 353 404.314 362 431.814 424 c 0
 433.814 429 438.814 431.5 445.814 431.5 c 0
 452.814 431.5 459.314 429.5 461.314 426.5 c 1
 424.814 236 l 1
 422.814 234 414.814 232 407.814 232 c 0
 400.814 232 396.314 235 395.814 240 c 0
 393.314 292.5 386.314 298.5 378.814 303.5 c 0
 369.314 309.5 330.814 311 295.814 311 c 0
 269.814 311 228.314 310 226.314 299.5 c 2
 192.814 128.5 l 2
 190.814 118 180.814 67 185.314 54.5 c 0
 191.814 42.5 213.814 39.5 245.314 39.5 c 1
 298.314 39.5 l 2x76
 333.314 39.5 377.814 49 405.814 68 c 0
 427.814 83.5 453.814 117 478.814 166 c 0
 480.814 170 486.814 172 493.814 172 c 0
 502.814 172 515.814 169 517.815 166 c 1
 489.814 112 449.814 41 434.814 -3 c 1xa6
 371.416 -3 238.64 -1 113.814 -1.14453 c 0x66
 59.6592 -1.21875 18.4082 -2.83105 -5.68555 -3 c 1
 -9.18555 2.5 -5.18555 24 0.314453 30 c 1
 11.8145 30.5 59.8145 34.5 65.8145 46.5 c 0
 75.3145 64.5 80.8145 94 87.8145 130.5 c 2
 165.314 528 l 2
 172.314 564.5 178.314 594 175.314 612 c 0
 173.814 624 127.814 627.5 116.314 628 c 1
 113.314 634 117.814 655.5 123.314 661 c 1xae
 162.814 658.5 206.314 657 243.814 657 c 0x36
EndSplineSet
Validated: 33
EndChar

StartChar: F
Encoding: 70 70 37
Width: 517
Flags: W
HStem: -3.5 33<-4.09374 64.9227 182.842 246.992> 309 42<238.018 377.268> 620.5 36.5<287.264 480.963> 628 33<120.02 174.734>
VStem: 394.734 29<230.106 271.411> 512.234 32.501<517.239 582.65>
LayerCount: 2
Fore
SplineSet
243.234 657 m 0xec
 306.234 657 467.234 663.5 545.235 664 c 1
 542.235 614 544.735 567 544.735 522 c 1
 541.735 519 531.235 517 524.235 517 c 0
 517.235 517 512.734 519.5 512.234 524.5 c 0
 505.234 592 479.234 620.5 426.234 620.5 c 2
 347.734 620.5 l 1xec
 331.734 620.5 296.234 619.5 290.234 609 c 0
 282.734 595 278.734 571 273.234 543 c 2
 237.234 359.5 l 2
 236.234 354 255.734 351 275.734 351 c 2
 324.734 351 l 2
 396.734 351 403.234 360 430.734 422 c 0
 432.734 427 437.734 429.5 444.734 429.5 c 0
 451.734 429.5 458.234 427.5 460.234 424.5 c 1
 423.734 234 l 1
 421.734 232 413.734 230 406.734 230 c 0
 399.734 230 395.234 233 394.734 238 c 0
 392.234 290.5 385.234 296.5 377.734 301.5 c 0
 368.234 307.5 329.734 309 294.734 309 c 0
 268.734 309 227.234 308 225.234 297.5 c 2
 192.734 130.5 l 2
 185.734 94 179.734 64.5 182.734 46.5 c 0
 184.234 34.5 238.234 30 249.734 29.5 c 1
 252.734 23.5 248.734 2 243.234 -3.5 c 1
 206.734 -0.5 152.234 2.5 114.734 2.5 c 0
 73.2344 2.5 29.7344 -1.5 -6.76562 -3.5 c 1
 -10.2656 2 -5.76562 23.5 -0.265625 29.5 c 1
 11.2344 30 59.2344 34.5 65.2344 46.5 c 0
 74.7344 64.5 80.2344 94 87.2344 130.5 c 2
 164.734 528 l 2
 171.734 564.5 177.734 594 174.734 612 c 0
 173.234 624 127.234 627.5 115.734 628 c 1
 112.734 634 117.234 655.5 122.734 661 c 1xdc
 162.234 658.5 205.734 657 243.234 657 c 0xec
EndSplineSet
Validated: 33
EndChar

StartChar: G
Encoding: 71 71 38
Width: 682
Flags: W
HStem: -7.5 40<282.089 442.029> 269.5 33<422.391 481.348 601.92 660.784> 627.5 39<363.219 522.518>
VStem: 55 119.5<161.881 400.422> 483.5 80.5<107.562 213.47> 587.5 32.5<483.003 556.132>
LayerCount: 2
Fore
SplineSet
453.5 666.5 m 0
 512.995 665.94 580.5 651 631.5 639 c 1
 630.5 615.5 622 515 620 494 c 0
 619.265 487.472 610.5 483 603.5 483 c 1
 599 483 591.5 483 587.5 489 c 1
 589 548.5 549.5 627.5 449 627.5 c 0
 305.5 627.5 174.188 488.5 174.5 275 c 0
 174.672 169.5 222 32.5 358.5 32.5 c 0
 399.5 32.5 426 42 444.5 53.5 c 0
 449.376 56.7256 452.5 61.5 454 69.5 c 0
 458 90.5 471.5 161.5 476 185.5 c 1
 481 210.5 485 229 483.5 248 c 0
 482 266 431 269.5 420 269.5 c 1
 416 272 420.5 297.5 426.5 302.5 c 1
 469 300.5 513.5 297 555 297 c 0
 592.5 297 625 300.5 663.5 302.5 c 1
 666 293.5 661 272 657 269.5 c 1
 648 269.5 610 264 601.5 255 c 0
 594.5 245 587.5 221 582.5 196.5 c 1
 579 178 567.5 118 564 101 c 1
 561 86 565.5 76 565 68.5 c 0
 564 59.959 551 48.5 535.5 41 c 0
 487 16.5 434.5 -7.5 330 -7.5 c 0
 155.5 -7.5 55 129.5 55 270.5 c 0
 55 521.5 261.314 668.5 453.5 666.5 c 0
EndSplineSet
Validated: 33
EndChar

StartChar: H
Encoding: 72 72 39
Width: 696
Flags: W
HStem: -3.5 33<-4.09374 64.9227 182.836 238.492 359.484 428.422 546.337 601.993> 320 45<242.133 483.961> 629 33<118.976 174.632 293.045 361.562 482.476 538.133 656.546 725.063>
LayerCount: 2
Fore
SplineSet
243.234 656 m 0
 280.734 656 326.234 659 364.234 662 c 1
 367.734 656.5 363.234 635 357.734 629 c 1
 346.234 628.5 298.734 624 292.734 612 c 0
 283.234 594 277.234 564.5 270.234 528 c 2
 239.234 368 l 1
 239.234 366 240.234 365 240.234 365 c 1
 280.734 364 322.234 362.5 369.234 362.5 c 0
 408.234 362.5 457.234 364 495.234 365 c 1
 495.234 365 497.734 367 497.734 369 c 1
 528.235 528 l 2
 535.235 564.5 541.235 594 538.235 612 c 0
 536.735 624 491.234 628.5 479.734 629 c 1
 476.734 635 480.734 656.5 486.234 662 c 1
 522.735 659 569.235 656 606.735 656 c 0
 644.235 656 689.735 659 727.735 662 c 1
 731.235 656.5 726.735 635 721.235 629 c 1
 709.735 628.5 662.235 624 656.235 612 c 0
 646.735 594 640.735 564.5 633.735 528 c 2
 556.735 130.5 l 2
 549.735 94 543.235 64.5 546.235 46.5 c 0
 547.735 34.5 593.235 30 604.735 29.5 c 1
 607.735 23.5 603.735 2 598.235 -3.5 c 1
 561.735 -0.5 515.735 2.5 478.234 2.5 c 0
 440.734 2.5 395.234 -0.5 357.234 -3.5 c 1
 353.734 2 357.734 23.5 363.234 29.5 c 1
 374.734 30 422.734 34.5 428.734 46.5 c 0
 438.234 64.5 444.234 94 451.234 130.5 c 2
 486.734 313.5 l 1
 486.734 315.5 485.734 318 485.734 318 c 1
 446.734 319 403.234 320 360.734 320 c 0
 244.734 320 233.234 318 229.734 316 c 1
 228.734 315 228.234 313 228.234 313 c 1
 193.234 130.5 l 2
 186.234 94 179.734 64.5 182.734 46.5 c 0
 184.234 34.5 229.734 30 241.234 29.5 c 1
 244.234 23.5 240.234 2 234.734 -3.5 c 1
 198.234 -0.5 152.734 2.5 115.234 2.5 c 0
 77.7344 2.5 31.2344 -0.5 -6.76562 -3.5 c 1
 -10.2656 2 -5.76562 23.5 -0.265625 29.5 c 1
 11.2344 30 59.2344 34.5 65.2344 46.5 c 0
 74.7344 64.5 80.2344 94 87.2344 130.5 c 2
 164.734 528 l 2
 171.734 564.5 177.734 594 174.734 612 c 0
 173.234 624 127.734 628.5 116.234 629 c 1
 113.234 635 117.234 656.5 122.734 662 c 1
 159.234 659 205.734 656 243.234 656 c 0
EndSplineSet
Validated: 33
EndChar

StartChar: I
Encoding: 73 73 40
Width: 333
Flags: W
HStem: -3.5 33<-4.09375 64.9227 182.837 238.492> 629 33<118.977 174.632 293.046 361.562>
LayerCount: 2
Fore
SplineSet
243.234 656 m 0
 280.734 656 326.234 659 364.234 662 c 1
 367.734 656.5 363.234 635 357.734 629 c 1
 346.234 628.5 298.734 624 292.734 612 c 0
 283.234 594 277.234 564.5 270.234 528 c 2
 193.234 130.5 l 2
 186.234 94 179.734 64.5 182.734 46.5 c 0
 184.234 34.5 229.734 30 241.234 29.5 c 1
 244.234 23.5 240.234 2 234.734 -3.5 c 1
 198.234 -0.5 152.734 2.5 115.234 2.5 c 0
 77.7344 2.5 31.2344 -0.5 -6.76562 -3.5 c 1
 -10.2656 2 -5.76562 23.5 -0.265625 29.5 c 1
 11.2344 30 59.2344 34.5 65.2344 46.5 c 0
 74.7344 64.5 80.2344 94 87.2344 130.5 c 2
 164.734 528 l 2
 171.734 564.5 177.734 594 174.734 612 c 0
 173.234 624 127.734 628.5 116.234 629 c 1
 113.234 635 117.234 656.5 122.734 662 c 1
 159.234 659 205.734 656 243.234 656 c 0
EndSplineSet
Validated: 33
EndChar

StartChar: J
Encoding: 74 74 41
Width: 317
Flags: W
HStem: -225.5 21.5<-108.166 -88.0355> 628 32<110.305 162.322 291.138 350.015>
LayerCount: 2
Fore
SplineSet
233.5 653.5 m 0
 273.5 653.5 315 657 352.5 660 c 1
 354 657 352 635 347 628 c 1
 337.5 627.5 292.5 619.5 286.5 607.5 c 0
 275 584 267 550 260.5 514 c 2
 187 129.5 l 2
 140 -116.5 -32.5 -216.5 -102 -225.5 c 1
 -105.5 -222.5 -109 -215 -109 -210 c 0
 -109 -207.5 -108 -204.5 -107.5 -204 c 1
 0 -158.5 47.5 -57 81.5 122 c 2
 155.5 512.5 l 2
 162.5 551.5 168.5 577.5 166.5 605.5 c 0
 165.5 620.5 118.5 627.5 107 628 c 1
 105 631.5 109 655 113.5 660 c 1
 152 657 192.5 653.5 233.5 653.5 c 0
EndSplineSet
Validated: 33
EndChar

StartChar: K
Encoding: 75 75 42
Width: 650
Flags: W
HStem: -3.5 33<-4.09375 64.423 182.837 238.492 560.302 612.993> 629 33<118.977 174.632 292.546 361.484 471.777 516.417 617.734 692.346>
LayerCount: 2
Fore
SplineSet
500.734 106.5 m 0
 548.735 37.5 587.735 29.5 616.235 27.5 c 1
 619.735 21.5 611.735 -0.5 610.735 -2.5 c 1
 566.235 -3.5 540.735 -2.5 513.234 1 c 0
 457.734 3.5 425.734 21.5 391.234 71.5 c 0
 372.234 99 302.734 209.5 244.234 303 c 0
 242.734 306 238.734 306.5 235.734 306.5 c 0
 232.234 306.5 228.734 305 226.234 302.5 c 1
 192.734 130.5 l 2
 185.734 94 179.734 64.5 182.734 46.5 c 0
 184.234 34.5 229.734 30 241.234 29.5 c 1
 244.234 23.5 240.234 2 234.734 -3.5 c 1
 198.234 -0.5 152.234 2.5 114.734 2.5 c 0
 77.2344 2.5 31.2344 -0.5 -6.76562 -3.5 c 1
 -10.2656 2 -5.76562 23.5 -0.265625 29.5 c 1
 11.2344 30 58.7344 34.5 64.7344 46.5 c 0
 74.2344 64.5 79.7344 94 86.7344 130.5 c 2
 164.234 528 l 2
 171.234 564.5 177.734 594 174.734 612 c 0
 173.234 624 127.734 628.5 116.234 629 c 1
 113.234 635 117.234 656.5 122.734 662 c 1
 159.234 659 205.734 656 243.234 656 c 0
 280.734 656 325.734 659 363.734 662 c 1
 367.234 656.5 363.234 635 357.734 629 c 1
 346.234 628.5 298.234 624 292.234 612 c 0
 282.734 594 276.734 564.5 269.734 528 c 2
 233.234 338.5 l 1
 268.234 362.5 315.734 401 352.234 433.5 c 0
 430.234 502.5 446.234 514.5 499.234 573 c 0
 508.734 583.5 515.235 596.5 516.735 605 c 0
 521.235 628 479.734 629 469.234 629 c 1
 466.734 636 469.734 653 474.734 662 c 1
 508.734 660 553.235 655.5 587.235 655.5 c 0
 628.235 655.5 659.735 659 696.235 662 c 1
 697.235 655.5 693.735 632.5 688.235 629.5 c 1
 679.235 628.5 620.735 625.5 581.735 589 c 1
 532.735 542 431.734 452.5 340.734 371 c 0
 333.734 364.5 334.234 360 337.234 355 c 0
 398.234 256 445.734 182.5 500.734 106.5 c 0
EndSplineSet
Validated: 33
EndChar

StartChar: L
Encoding: 76 76 43
Width: 538
Flags: W
HStem: -1 40.5<184.551 391.263> -1 31<-4.0936 64.0527> 629 33<118.555 174.633 292.546 361.063>
LayerCount: 2
Fore
SplineSet
192.235 130 m 2x60
 190.235 119.5 179.735 67 184.235 54.5 c 0
 190.735 42.5 212.735 39.5 244.235 39.5 c 1
 301.735 39.5 l 2xa0
 336.735 39.5 377.235 47 405.235 68 c 0
 430.735 87 453.235 117 478.235 166 c 0
 480.235 170 485.735 172 492.735 172 c 0
 501.735 172 514.735 169 516.735 166 c 1
 488.735 112 449.235 41 434.235 -3 c 1
 370.735 -3 239.235 -1 114.735 -1 c 0
 59.7344 -1 17.7354 -3 -6.76562 -3 c 1
 -10.2646 2.5 -5.76562 24 -0.265625 30 c 1
 11.2344 30.5 58.7344 34.5 64.7344 46.5 c 0
 74.2344 64.5 79.7344 94 86.7344 130.5 c 2
 164.235 528 l 2
 171.235 564.5 177.735 594 174.735 612 c 0
 173.235 624 127.735 628.5 116.235 629 c 1
 113.235 635 116.735 656.5 122.235 662 c 1
 158.735 659 205.235 656 242.735 656 c 0
 280.235 656 325.735 659 363.735 662 c 1
 367.235 656.5 362.735 635 357.235 629 c 1
 345.735 628.5 298.235 624 292.235 612 c 0
 282.735 594 276.735 564.5 269.735 528 c 2
 192.235 130 l 2x60
EndSplineSet
Validated: 33
EndChar

StartChar: M
Encoding: 77 77 44
Width: 855
Flags: W
HStem: -3.5 32.5<-23.2922 47.4044 132.775 194.972 522.67 590.348 714.078 770.022> 629 33<135.116 185.927 809.378 871.391>
LayerCount: 2
Fore
SplineSet
235.433 656.5 m 0
 267.433 656.5 292.933 660 322.433 662 c 1
 332.933 598.5 383.933 366 417.933 192 c 1
 418.433 191 419.933 190 420.933 190 c 0
 421.933 190 425.433 193 426.433 195 c 2
 426.433 195 588.933 484 620.433 544 c 1
 644.933 588.5 678.433 660 678.433 660 c 1
 696.933 658.5 746.433 656.5 764.433 656.5 c 0
 796.933 656.5 840.933 660 871.933 662 c 1
 873.433 658.5 872.433 632.5 869.433 628.5 c 1
 859.433 628.5 817.933 622.5 808.933 614 c 1
 800.933 606 795.433 594 792.433 574.5 c 1
 786.933 539.5 729.933 210 720.433 146 c 1
 713.933 107 709.433 72 713.433 47 c 0
 715.933 33 764.433 29.5 771.433 29.5 c 1
 773.933 20.5 770.933 3 767.433 -3.5 c 1
 730.433 -1.5 690.933 3 649.933 3 c 0
 606.933 3 562.433 -1.5 519.433 -3.5 c 1
 517.433 -0.5 520.933 21.5 525.433 29.5 c 1
 536.433 29.5 578.933 34 590.933 44.5 c 0
 597.433 50.5 603.933 71 606.433 83 c 0
 608.933 95 613.433 126 616.433 142.5 c 2
 681.433 531 l 2
 682.433 534.5 685.433 554 678.433 554 c 0
 676.433 554 675.433 552 672.433 547 c 2
 394.433 44.5 l 2
 389.433 35.5 361.933 -1 347.933 -2 c 0
 344.933 -2.5 342.933 -1 339.933 0 c 1
 229.933 553.5 l 1
 183.433 340.5 149.933 188 130.933 104.5 c 0
 127.433 89 124.433 62 124.933 54.5 c 0
 126.933 36.5 190.433 29.5 197.433 29.5 c 1
 199.433 23 195.933 3 192.433 -3.5 c 1
 155.433 -1.5 128.433 3 87.4326 3 c 0
 44.4326 3 16.4326 -1.5 -26.5674 -3.5 c 1
 -28.0674 1 -25.5674 20 -20.5674 29 c 1
 -9.56738 29 48.4326 36.5 61.4326 56 c 0
 69.9326 67.5 81.4326 106.5 85.9326 125 c 0
 127.433 303.5 181.433 544 188.433 576.5 c 0
 190.433 587 192.433 598.5 189.933 607.5 c 1
 186.933 619 144.933 629 131.433 629 c 1
 128.433 633 135.933 660 137.933 662 c 1
 179.933 660 192.433 656.5 235.433 656.5 c 0
EndSplineSet
Validated: 33
EndChar

StartChar: N
Encoding: 78 78 45
Width: 724
Flags: W
HStem: -3.5 33<-11.6758 61.4257 146.939 207.372> 630.5 33<113.526 170.998 550.411 612.375 693.228 769.021>
LayerCount: 2
Fore
SplineSet
217.168 657.5 m 0
 247.668 657.5 282.168 659.5 304.168 662 c 1
 330.168 583 468.168 361 547.168 207 c 5
 548.668 210.5 552.913 232 554.413 239 c 5
 607.168 510.5 l 5
 614.168 547.5 621.668 593.5 616.668 609 c 4
 612.668 623 560.668 630 547.668 630 c 5
 545.168 633.5 548.668 655.5 553.168 663 c 5
 592.668 661 620.168 656.5 662.168 656.5 c 4
 704.168 656.5 732.168 661 772.668 663 c 5
 774.168 657.5 772.668 640 765.168 629.5 c 5
 756.168 629.5 696.668 624.5 686.168 608 c 4
 677.168 593.5 665.168 549.5 658.168 512.5 c 6
 585.668 139 l 6
 574.668 81 569.668 51 561.668 -1 c 1
 558.668 -4 544.168 -5 541.168 -5 c 0
 533.168 -5 522.668 4.5 515.668 18 c 2
 225.668 544 l 1
 146.668 136 l 2
 139.668 100 136.168 68 140.168 53 c 0
 143.668 38.5 198.668 30 209.668 30 c 1
 213.168 21.5 207.668 2.5 204.668 -3.5 c 1
 167.668 -1.5 134.668 3 93.668 3 c 0
 50.668 3 27.668 -1.5 -15.332 -3.5 c 1
 -17.832 3.5 -12.832 24 -8.33203 29.5 c 1
 2.66797 29.5 59.168 37.5 69.168 52.5 c 0
 79.168 67.5 89.168 99 96.168 137 c 1
 108.668 202.5 159.945 465.543 172.668 531 c 1
 181.416 577 181.168 593 174.668 610 c 0
 169.668 622.5 123.168 630.5 112.168 630.5 c 1
 108.168 636 112.168 658.5 117.168 663.5 c 1
 152.168 661.5 180.168 657.5 217.168 657.5 c 0
EndSplineSet
Validated: 33
EndChar

StartChar: O
Encoding: 79 79 46
Width: 707
Flags: W
HStem: -10.5 39.5<256.735 400.432> 626.5 39.5<335.693 471.366>
VStem: 55 119<153.692 402.639> 556.5 119<247.542 501.501>
LayerCount: 2
Fore
SplineSet
404 626.5 m 5
 272 626.5 174 443.5 174 256 c 4
 174 141 211 29 327 29 c 5
 471 29 556.5 229.5 556.5 401.5 c 4
 556.5 507 519.502 626.5 404 626.5 c 5
419.5 666 m 4
 580.5 666 675.5 530 675.5 385.5 c 4
 675.5 140.5 486 -10.5 307 -10.5 c 4
 156 -10.5 55 117 55 269 c 4
 55 508.5 245.828 666 419.5 666 c 4
EndSplineSet
Validated: 1
EndChar

StartChar: P
Encoding: 80 80 47
Width: 533
Flags: W
HStem: -3.5 33<-4.09374 64.9227 182.836 238.492> 282.5 35.5<263.328 348.187> 622 37.5<118.898 175.488 291.03 396.699>
LayerCount: 2
Fore
SplineSet
548.735 489.5 m 0
 537.235 361.741 420.234 282.5 312.234 282.5 c 0
 285.234 282.5 269.234 290.5 264.234 296 c 0
 261.631 298.883 256.734 309.5 256.734 314.5 c 0
 256.734 318.561 259.734 321.5 261.734 322 c 1
 271.234 319 279.734 318 293.734 318 c 0
 353.734 318 426.734 388.605 433.234 472.5 c 0
 441.734 545 421.734 622 339.234 622 c 0
 323.234 622 296.734 621 290.734 611 c 0
 283.734 599 279.234 572.5 273.234 543 c 2
 192.734 130.5 l 2
 185.734 94 179.734 64.5 182.734 46.5 c 0
 184.234 34.5 229.734 30 241.234 29.5 c 1
 244.234 23.5 240.234 2 234.734 -3.5 c 1
 198.234 -0.5 152.234 2.5 114.734 2.5 c 0
 77.2344 2.5 31.2344 -0.5 -6.76562 -3.5 c 1
 -10.2656 2 -5.76562 23.5 -0.265625 29.5 c 1
 11.2344 30 59.2344 34.5 65.2344 46.5 c 0
 74.7344 64.5 80.2344 94 87.2344 130.5 c 2
 164.734 528 l 2
 171.734 564.5 177.734 594 174.734 612 c 0
 173.234 624 127.234 627.5 115.734 628 c 1
 112.734 634 117.234 655.5 122.734 661 c 1
 162.234 658.5 206.734 657 244.234 657 c 0
 281.734 657 327.734 659.5 382.734 659.5 c 0
 483.234 659.5 559.235 584 548.735 489.5 c 0
EndSplineSet
Validated: 33
EndChar

StartChar: Q
Encoding: 81 81 48
Width: 701
Flags: W
HStem: -138 61<497.517 600.938> 627 40<331.77 470.062>
LayerCount: 2
Fore
SplineSet
425.251 667 m 0
 589.251 667 690.751 524.5 671.251 360.5 c 0
 656.251 177 525.251 51 394.751 7 c 1
 474.751 -39 500.751 -77 596.751 -77 c 0
 626.751 -77 648.751 -72.5 655.751 -70.5 c 1
 662.751 -70.5 671.751 -74.5 673.251 -80.5 c 1
 638.751 -100 568.751 -138 511.751 -138 c 0
 408.751 -138 345.153 -45.4941 227.75 -4 c 0
 108.75 37.5 38.251 151 54.251 294.5 c 0
 72.251 512.5 260.751 667 425.251 667 c 0
403.751 627 m 0
 264.751 627 187.25 446.5 174.25 297 c 0
 159.25 162 201.75 30 321.251 30 c 0
 458.751 30 538.751 209.5 551.751 359.5 c 0
 566.751 494.5 520.751 627 403.751 627 c 0
EndSplineSet
Validated: 33
EndChar

StartChar: R
Encoding: 82 82 49
Width: 613
Flags: W
HStem: -3.5 33<-4.09374 64.9227 182.836 238.492 541.11 595.811> 300.5 35<232.734 278.21> 622 37.5<118.898 175.488 291.031 396.726>
LayerCount: 2
Fore
SplineSet
244.734 657 m 0
 282.234 657 327.734 659.5 382.734 659.5 c 0
 483.234 659.5 563.735 591 540.735 472 c 0
 525.235 392.5 432.734 337.5 378.734 320.5 c 1
 419.234 227.5 436.234 186.5 480.734 108 c 0
 518.235 46 565.235 29 597.735 27 c 1
 601.235 21 594.735 -1.5 593.735 -3.5 c 1
 549.235 -4.5 531.235 -3 503.734 0.5 c 0
 421.234 3 391.734 43.5 375.234 76 c 0
 370.234 86 297.234 238 277.234 287 c 0
 275.234 291.5 267.234 300.5 257.234 300.5 c 1
 226.234 300.5 l 1
 193.234 130.5 l 2
 186.234 94 179.734 64.5 182.734 46.5 c 0
 184.234 34.5 229.734 30 241.234 29.5 c 1
 244.234 23.5 240.234 2 234.734 -3.5 c 1
 198.234 -0.5 152.734 2.5 115.234 2.5 c 0
 77.7344 2.5 31.2344 -0.5 -6.76562 -3.5 c 1
 -10.2656 2 -5.76562 23.5 -0.265625 29.5 c 1
 11.2344 30 59.2344 34.5 65.2344 46.5 c 0
 74.7344 64.5 80.2344 94 87.2344 130.5 c 2
 164.734 528 l 2
 171.734 564.5 177.734 594 174.734 612 c 0
 173.234 624 127.234 627.5 115.734 628 c 1
 112.734 634 117.234 655.5 122.734 661 c 1
 162.234 658.5 207.234 657 244.734 657 c 0
232.734 335.5 m 1
 279.234 335.5 l 1
 345.234 335.5 407.734 378.5 425.734 455 c 0
 444.234 535.5 429.234 622 339.734 622 c 0
 323.734 622 296.734 621 290.734 611 c 0
 283.734 599 279.234 572.5 273.234 543 c 2
 232.734 335.5 l 1
EndSplineSet
Validated: 33
EndChar

StartChar: S
Encoding: 83 83 50
Width: 486
Flags: W
HStem: -10 40.5<137.854 265.928> 629.5 38.5<251.143 368.56>
VStem: 32.5801 37.5<113.355 193.431>
LayerCount: 2
Fore
SplineSet
321.08 668 m 0
 377.58 668 416.58 654.5 468.08 642 c 1
 461.58 598.5 451.58 531.5 443.58 487 c 1
 440.723 481.57 435.58 480 432.08 480 c 0
 428.58 480 411.58 479.5 409.08 487.5 c 1
 413.08 555.5 389.58 629.5 311.58 629.5 c 0
 252.58 629.5 211.58 589.5 205.08 530.5 c 0
 199.08 458.708 263.58 414 314.58 372.5 c 0
 367.58 329.5 437.58 290.003 426.08 184 c 0
 415.58 67 293.58 -10 192.58 -10 c 0
 133.58 -10 79.5801 8.5 33.0801 25 c 1
 26.0801 74 29.5801 165 32.5801 185 c 1
 36.5801 190 54.0801 195 60.0801 195 c 0
 66.0801 195 69.0801 193 70.0801 188 c 1
 69.0801 139 106.58 30.5 199.58 30.5 c 0
 252.08 30.5 309.08 62.7852 316.08 138 c 0
 323.08 209.5 260.58 253 215.58 290 c 0
 156.353 338.682 89.5801 379.02 99.5801 482.5 c 0
 109.58 591.5 226.58 668 321.08 668 c 0
EndSplineSet
Validated: 33
EndChar

StartChar: T
Encoding: 84 84 51
Width: 589
Flags: W
HStem: -3.5 33<124.172 192.689 310.602 366.68> 618.5 40.5<157.741 310.5 416 559.819>
VStem: 588.5 34<491.052 581.498>
LayerCount: 2
Fore
SplineSet
366.5 659 m 1
 538.5 659 l 1
 579.5 659 603.5 673 618 676 c 0
 626.5 678.5 628.5 678 632.5 675.5 c 1
 630 645 622.5 524 622.5 497.5 c 1
 619.5 494.5 606.5 490 598.5 490.5 c 0
 593.5 490.5 589 492 588.5 495.5 c 1
 590.5 563 565 618.5 518.5 618.5 c 2
 416 618.5 l 1
 321 130.5 l 2
 314 94 307.5 64.5 310.5 46.5 c 0
 312 34.5 357.5 30 369 29.5 c 1
 372 23.5 368.5 2 363 -3.5 c 1
 326.5 -0.5 281 2.5 243.5 2.5 c 0
 206 2.5 159.5 -0.5 121.5 -3.5 c 1
 118 2 122.5 23.5 128 29.5 c 1
 139.5 30 187 34.5 193 46.5 c 0
 202.5 64.5 208.5 94 215.5 130.5 c 2
 310.5 618.5 l 1
 207 618.5 l 2
 160.5 618.5 113.5 563 89 495.5 c 0
 87 492 82 490.5 77 490.5 c 0
 68.5 490 58 494.5 56 497.5 c 1
 66.5 524 106 645 115 675.5 c 1
 120 678 125 677 131 675.5 c 0
 144.5 672.5 161.5 659 202.5 659 c 1
 366.5 659 l 1
EndSplineSet
Validated: 33
EndChar

StartChar: U
Encoding: 85 85 52
Width: 689
Flags: W
HStem: -6.5 65<250.536 398.542> 629 33<102.421 158.077 275.99 344.506 530.71 588.834 670.59 745.583>
LayerCount: 2
Fore
SplineSet
226.179 656 m 0
 263.679 656 309.178 659 347.178 662 c 1
 350.678 656.5 346.178 635 340.678 629 c 1
 329.178 628.5 281.678 624 275.679 612 c 0
 266.179 594 260.179 564.5 253.179 528 c 2
 211.679 313 l 2
 197.625 240.054 194.763 185.914 209.462 139.5 c 0
 228.748 73.2305 283.615 58.5 331.178 58.5 c 0
 416.178 58.5 506.678 118 541.679 291.5 c 1
 584.679 512 l 2
 592.179 551.5 597.179 589.5 592.179 607.5 c 0
 588.179 622 541.679 629 528.179 629.5 c 1
 525.179 636.5 529.679 656.5 533.679 662.5 c 1
 573.679 659.5 600.179 656.5 642.179 656.5 c 0
 684.179 656.5 707.179 660.5 748.179 662.5 c 1
 750.679 657 748.679 638.5 742.179 629.5 c 1
 730.679 629 676.179 624 665.679 607.5 c 0
 654.679 590 643.679 553.5 636.179 513 c 2
 590.679 281 l 2
 551.179 79 424.678 -6.5 285.178 -6.5 c 0
 211.065 -6.5 149.572 20.376 116.7 73.5 c 0
 87.6348 119.987 81.124 185.74 98.6787 276 c 2
 147.679 528 l 2
 154.679 564.5 161.179 594 158.179 612 c 0
 156.679 624 111.179 628.5 99.6787 629 c 1
 96.6787 635 100.679 656.5 106.179 662 c 1
 142.679 659 188.679 656 226.179 656 c 0
EndSplineSet
Validated: 33
EndChar

StartChar: V
Encoding: 86 86 53
Width: 615
Flags: W
HStem: 629 33<65.4807 109.851 251.132 308.559 494.265 546.999 633.941 696.83>
LayerCount: 2
Fore
SplineSet
187.593 656 m 0
 227.593 656 274.593 659 312.093 662 c 1
 314.093 656 309.593 633 304.593 629 c 1
 295.093 628.5 247.593 625.5 242.593 599 c 0
 240.08 586.083 242.771 557.905 248.244 526 c 0
 268.392 415 313.532 159.78 314.392 160 c 1
 315.465 160.275 512.593 508.5 520.093 522.5 c 1
 533.392 547 549.593 578 553.093 597.5 c 0
 557.593 622.5 503.093 628.5 491.593 629 c 1
 488.093 633.5 492.593 656.5 498.093 662 c 1
 536.593 659 563.093 656 601.593 656 c 0
 643.593 656 661.593 660 700.093 662 c 1
 702.593 656.5 697.593 632.5 693.093 629 c 1
 683.593 628.5 643.593 625 626.593 607 c 0
 610.593 590 586.093 550.5 566.093 515 c 1
 508.593 414.5 339.593 123.5 285.593 31 c 1
 272.593 8.5 249.593 -6.5 238.093 -6.5 c 0
 232.093 -6.5 232.093 3 230.093 8.5 c 1
 215.593 97.5 154.593 416 138.593 512 c 1
 132.593 546 125.593 578 118.093 601 c 0
 111.593 622 73.0928 628.5 61.5928 629 c 1
 59.0928 632.5 65.0928 658 68.5928 662 c 1
 107.093 659 146.593 656 187.593 656 c 0
EndSplineSet
Validated: 33
EndChar

StartChar: W
Encoding: 87 87 54
Width: 862
Flags: W
HStem: 629 33<68.2117 112.893 252.047 306.781 736.408 789.143 876.95 939.648>
LayerCount: 2
Fore
SplineSet
187.613 656 m 0
 227.613 656 272.814 659 310.314 662 c 1
 312.314 656 307.814 633 302.814 629 c 1
 293.314 628.5 244.336 623.996 241.814 593 c 0
 241.303 587.666 242.543 563.375 245.393 534 c 0
 256.243 430.473 273.626 272.185 279.552 197.76 c 1
 279.552 197.76 474.814 594.5 492.314 627 c 1
 502.113 646 520.314 662 530.314 662 c 0
 534.314 662 535.814 657 538.314 646 c 1
 553.807 551.074 592.896 278.899 604.871 179.508 c 1
 604.871 179.508 757.814 506.5 765.814 522.5 c 1
 777.113 547.5 791.814 578 795.314 597.5 c 0
 799.814 622.5 744.814 628.5 733.314 629 c 1
 729.814 633.5 734.814 656.5 740.314 662 c 1
 778.814 659 805.814 656 844.314 656 c 0
 886.314 656 904.814 660 943.314 662 c 1
 945.814 656.5 940.314 632.5 935.814 629 c 1
 926.314 628.5 887.314 623.5 869.314 607 c 0
 852.814 591 835.873 565.473 817.814 527.5 c 1
 770.814 433 625.814 128.5 578.314 36 c 1
 567.814 14.5 545.314 -6.5 533.814 -6.5 c 0
 527.814 -6.5 524.814 3 523.314 8.5 c 1
 512.334 102.324 468.143 366.289 456.181 463.453 c 1
 456.181 463.453 283.814 110 246.814 38 c 1
 239.534 23.5371 216.314 -6.5 204.814 -6.5 c 0
 198.814 -6.5 195.314 3 193.814 8.5 c 1
 135.314 521 l 2
 132.314 556 131.29 571.982 121.314 601.5 c 0
 114.365 621.188 76.3145 628.5 64.8145 629 c 1
 61.8145 632.5 67.8145 658 71.3145 662 c 1
 109.814 659 146.613 656 187.613 656 c 0
EndSplineSet
Validated: 33
EndChar

StartChar: X
Encoding: 88 88 55
Width: 639
Flags: W
HStem: -3.5 33<-54.6981 17.8193 113.11 174.505 327.483 382.743 535.933 591.566> 629 33<97.6213 149.528 298.991 354.9 479.008 532.738 633.663 697.127>
LayerCount: 2
Back
SplineSet
325.12 592.5 m 1
 348.12 592.5 452.62 406.5 471.62 407.5 c 1
EndSplineSet
Fore
SplineSet
231.128 656.5 m 0
 277.128 656.5 320.628 660 358.628 662 c 1
 359.628 656 355.628 629 350.628 629 c 1
 337.628 629 297.628 623 293.128 602.5 c 0
 291.628 595.5 293.128 585.5 297.128 576.5 c 2
 369.628 403 l 1
 431.128 471.5 512.628 557.5 532.128 588 c 0
 534.628 591.5 537.628 596.5 538.128 601 c 0
 540.128 612.5 519.128 628.5 477.128 628.5 c 1
 472.628 629 477.128 655.5 482.128 661.5 c 1
 516.628 658 558.628 655.5 592.628 655.5 c 0
 640.628 655.5 675.128 658.5 700.628 661.5 c 1
 702.628 656 698.628 631.5 692.628 628.5 c 1
 685.628 628.5 632.628 625.5 591.128 582 c 2
 384.628 365 l 1
 411.128 301.5 505.628 79.5 511.128 71 c 1
 527.128 39 572.628 29.5 594.628 29.5 c 1
 597.128 22.5 592.128 1.5 588.628 -3.5 c 1
 551.628 -1.5 505.628 2 467.628 2 c 0
 415.628 2 377.128 -1.5 325.128 -3.5 c 1
 321.128 1.5 327.128 29.5 332.128 29.5 c 0
 342.128 29.5 387.628 39 391.128 57.5 c 0
 392.128 60.5 390.628 66 389.628 69 c 2
 299.128 286.5 l 1
 254.628 236.5 144.629 112 117.629 74.5 c 0
 113.629 69 109.129 62.5 108.129 58 c 0
 105.129 43 136.129 29.5 176.128 29.5 c 1
 179.128 23 175.628 3.5 172.128 -3.5 c 1
 140.129 -1.5 93.1289 2 59.1289 2 c 0
 11.1289 2 -20.3711 -1.5 -58.3711 -3.5 c 1
 -60.8711 2.5 -55.3711 24.5 -51.3711 29.5 c 1
 -44.3711 29.5 19.1289 32.5 54.6289 72.5 c 2
 280.628 327 l 1
 192.128 542.5 l 2
 179.628 574 167.128 600.5 150.128 613.5 c 0
 137.628 623.5 106.129 629 95.1289 629 c 1
 90.1289 629 95.6289 657 101.629 662 c 1
 146.628 660 185.128 656.5 231.128 656.5 c 0
EndSplineSet
Validated: 33
EndChar

StartChar: Y
Encoding: 89 89 56
Width: 566
Flags: W
HStem: -3.5 33<109.617 178.134 296.047 352.125> 629 33<67.0469 110.064 259.648 317.339 443.463 499.867 579.286 646.108>
LayerCount: 2
Fore
SplineSet
200.945 130.5 m 2
 228.945 275.5 l 1
 229.945 282.5 229.945 290.5 227.445 299.5 c 1
 220.945 327 150.445 542.5 150.445 542.5 c 2
 139.883 574.979 132.445 586.5 117.445 604.5 c 0
 105.945 622 75.9453 628.5 64.4453 629 c 1
 60.4453 632.5 65.4453 656.5 70.9453 662 c 1
 110.945 659 151.945 656 194.445 656 c 0
 236.945 656 282.945 659 320.445 662 c 1
 322.445 656 318.945 632.5 313.445 629 c 1
 300.945 628.5 256.445 625 251.445 599.5 c 0
 249.945 593.5 252.922 586.5 255.945 576.5 c 2
 329.677 346.255 l 1
 363.194 387.901 460.557 529.704 496.945 585 c 0
 500.445 590.5 503.445 597.5 504.445 604 c 0
 506.445 616 472.945 628 440.945 628.5 c 1
 437.922 633.5 442.422 656.5 446.445 661.5 c 1
 484.945 658.5 506.945 655.5 545.445 655.5 c 0
 589.945 655.5 611.445 659.5 649.945 661.5 c 1
 651.445 657 646.945 632 642.445 628.5 c 1
 632.945 628 584.445 627.5 560.945 596 c 1
 548.945 581.5 363.445 329 344.445 299.5 c 1
 337.945 290.5 336.445 282 334.945 274.5 c 1
 306.445 130.5 l 2
 298.945 94 292.945 64.5 295.945 46.5 c 0
 297.445 34.5 342.945 30 354.445 29.5 c 1
 357.445 23.5 353.945 2 348.445 -3.5 c 1
 311.945 -0.5 265.945 2.5 228.445 2.5 c 0
 190.945 2.5 144.945 -0.5 106.945 -3.5 c 1
 103.445 2 107.945 23.5 113.445 29.5 c 1
 124.945 30 172.445 34.5 178.445 46.5 c 0
 187.945 64.5 193.445 94 200.945 130.5 c 2
EndSplineSet
Validated: 33
EndChar

StartChar: Z
Encoding: 90 90 57
Width: 606
Flags: W
HStem: 0 42<132.24 428.924> 617 41<214.146 481.944> 645.5 20G<148.317 166.817>
LayerCount: 2
Fore
SplineSet
284.567 617 m 2xc0
 203.568 616.862 162.567 555 128.067 483 c 0
 126.067 480 123.068 478 116.068 478 c 0
 107.068 478 93.5674 481.5 91.5674 484.5 c 1
 115.068 536.5 138.067 599.5 158.567 665.5 c 1xa0
 175.067 662 237.567 658 256.567 658 c 2
 412.067 658.5 l 2
 490.067 659 540.568 662.5 619.568 668.5 c 1
 623.568 667.5 629.068 650 627.068 641 c 1
 624.089 633.056 236.64 161.189 132.24 42 c 1
 355.067 42 l 2
 395.842 42 429.664 58.5166 455.355 83.6641 c 0
 480.178 107.952 497.283 135.936 516.568 171 c 0
 518.068 174 524.068 175.5 530.068 175.5 c 0
 539.068 175.5 551.568 171.5 554.068 168 c 1
 522.568 102 494.067 47 476.067 0.5 c 1
 456.567 0.5 2.06738 0 2.06738 0 c 1
 -8.93262 0 -19.4326 13 -14.9326 18 c 2
 484.567 617.5 l 1
 284.567 617 l 2xc0
EndSplineSet
Validated: 1
EndChar

StartChar: bracketleft
Encoding: 91 91 58
Width: 263
Flags: W
HStem: 701 48.5<214.41 322.433>
VStem: 6.20703 338.5
LayerCount: 2
Fore
SplineSet
167.207 733.5 m 2
 168.207 736.5 172.707 749.5 183.207 749.5 c 0
 247.207 749.5 313.207 755 339.707 757 c 1
 342.207 755.5 344.707 754 344.707 748 c 0
 344.707 731.5 328.207 719.5 323.207 717 c 1
 307.207 710 258.707 702 224.207 701 c 0
 219.207 701 217.707 696 216.707 694 c 1
 69.707 -52.5 l 1
 69.207 -54.5 70.2246 -59.1689 75.207 -60 c 0
 102.707 -64.5 147.207 -75.5 168.207 -88.5 c 0
 173.428 -91.7129 182.707 -101 182.707 -109 c 0
 182.707 -119.09 177.207 -124 175.207 -125.5 c 1
 140.707 -119 63.207 -105 13.207 -104.5 c 0
 9.20703 -104.5 5.0127 -100.073 6.20703 -94 c 1
 33.207 45 167.207 733.5 167.207 733.5 c 2
EndSplineSet
Validated: 1
EndChar

StartChar: backslash
Encoding: 92 92 59
Width: 378
Flags: W
VStem: 119 177.5
LayerCount: 2
Fore
SplineSet
296.5 -4 m 2
 299.5 -20 278 -40 267 -40 c 0
 263 -40 259 -40 255 -37 c 1
 203 269 119 755 119 755 c 1
 121 758 127 762 133 762 c 0
 154 762 170.5 735 172.5 725 c 2
 296.5 -4 l 2
EndSplineSet
Validated: 33
EndChar

StartChar: bracketright
Encoding: 93 93 60
Width: 256
Flags: W
HStem: -117.5 52.5<-35.125 60.0625>
VStem: -59 330.5
LayerCount: 2
Fore
SplineSet
103.5 757 m 1
 122 755.5 193 748 260 748 c 0
 269.5 748 272 740.5 271.5 735 c 0
 271 729.5 189 311.5 188.5 310 c 2
 188 309.5 109.5 -92 105.5 -92.5 c 1
 73 -96 46 -111.5 18 -117.5 c 1
 -21 -117 -59 -120 -59 -116.5 c 1
 -59 -110.5 -52.5 -103.5 -47.5 -98 c 0
 -35.5 -84.5 -10 -71.5 6 -65 c 1
 20.5 -60 38 -54.5 58.5 -52.5 c 1
 61.5 -52.5 136.5 324 136.5 324 c 1
 137 326.5 207.5 696 204.5 696.5 c 1
 192.5 698 170.5 705.5 154.5 711.5 c 1
 124 714.5 101 726 101 730.5 c 1
 100 735.5 95 729.5 95 741.5 c 0
 95 750 100.5 757 103.5 757 c 1
EndSplineSet
Validated: 33
EndChar

StartChar: asciicircum
Encoding: 94 94 61
Width: 313
Flags: W
HStem: 472 218
VStem: 17 283
LayerCount: 2
Fore
SplineSet
17 499 m 1
 25.5 513.5 109 566 178.5 677 c 0
 184 686.5 183.5 690 190.5 690 c 0
 213 690 200.5 669 241 588 c 0
 256.5 558 299 505 300 500 c 1
 298.5 494 289.5 472 282.5 472 c 0
 265 472 201 544.5 175 589.5 c 1
 124.5 532.5 37 472 24 472 c 0
 17 472 17 488 17 499 c 1
EndSplineSet
Validated: 1
EndChar

StartChar: underscore
Encoding: 95 95 62
Width: 478
Flags: W
HStem: -44 59<-27.4033 397.94>
LayerCount: 2
Fore
SplineSet
-35.8877 -36 m 1
 -35.8877 -33.5 -23.3877 15 -12.3877 15 c 2
 403.612 15 l 2
 406.612 15 407.612 12.5 407.612 9 c 0
 407.612 4 402.112 -14 391.112 -38 c 0
 388.112 -44 383.612 -44 383.612 -44 c 1
 -30.8877 -44 l 1
 -30.8877 -44 -36.8877 -44 -35.8877 -36 c 1
EndSplineSet
Validated: 1
EndChar

StartChar: grave
Encoding: 96 96 63
Width: 169
Flags: W
HStem: 524.5 162.5
VStem: 21 135
LayerCount: 2
Fore
SplineSet
21 656.5 m 0
 21 666 33 687 66.5 687 c 0
 80 687 92.5 683 96 678 c 0
 122 636 156 544.5 156 541 c 1
 156 535.5 146.5 524.5 139.5 524.5 c 0
 130.5 524.5 21 615.5 21 656.5 c 0
EndSplineSet
Validated: 1
EndChar

StartChar: a
Encoding: 97 97 64
Width: 469
Flags: W
HStem: -7 70.5<87.8565 179.497> 394.5 47.5<224.361 329.25>
VStem: 15 100<74.5765 223.751> 240 98.5<26.2572 161.515>
LayerCount: 2
Fore
SplineSet
311.5 442 m 0
 347 442 384.5 433.5 404 426.5 c 1
 342.5 119 l 2
 341.5 115 338.5 91.5 338.5 86.5 c 0
 338.5 77.5 340.5 63.5 350.5 63.5 c 0
 372 63.5 418 118.5 421 123 c 1
 426 123 433 106 433 100 c 1
 419 74.5 338.5 -7 288 -7 c 0
 260 -7 240 15 240 52 c 0
 240 58 242 74 244.5 88 c 0
 246.5 101 248 107.5 249 113 c 1
 228.5 76.5 161.5 -6 102.5 -6 c 0
 47.5 -6 15 45 15 114 c 0
 15 290.5 187 442 311.5 442 c 0
260.5 394.5 m 0
 188 394.5 115 268 115 151.5 c 0
 115 96.5 130 67 158.5 67 c 0
 200.5 67 261 180 280.5 277.5 c 2
 301 381 l 1
 293 390 274 394.5 260.5 394.5 c 0
EndSplineSet
Validated: 1
EndChar

StartChar: b
Encoding: 98 98 65
Width: 447
Flags: W
HStem: -6 39<113.114 214.357> 370.5 71.5<272.757 357.5> 631.5 25<72.1956 128.711> 670.5 20G<220.5 234>
VStem: 132.5 105<552.535 674.5> 311 101.5<213.11 367.322>
LayerCount: 2
Fore
SplineSet
277.5 370.5 m 0
 233.5 370.5 157 260.5 138 161.5 c 0
 124.5 93 132 33 173.5 33 c 0
 247.5 33 311 213.5 311 302 c 0
 311 333 307 370.5 277.5 370.5 c 0
166.5 310.5 m 1
 215.5 390.5 292 442 332 442 c 0
 383 442 412.5 400.5 412.5 329.5 c 0
 412.5 145.5 254 -6 143.5 -6 c 0
 84 -6 39 37.5 39 109 c 0
 39 120.5 42.5 147 45 160 c 2
 123.5 559.5 l 2
 127.5 577.5 132.5 601.5 132.5 612.5 c 0
 132.5 631.5 87.5 631.5 71.5 631.5 c 1
 68.5 635.5 71.5 652.5 75.5 656.5 c 1
 130.5 661.5 209.5 682.5 231.5 690.5 c 1
 236.5 687.5 237.5 677.5 237.5 671.5 c 0
 237.5 663.5 229.5 621 224.5 596.5 c 2
 166.5 310.5 l 1
EndSplineSet
Validated: 33
EndChar

StartChar: c
Encoding: 99 99 66
Width: 369
Flags: W
HStem: -6 71<103 202.336> 396.5 45.5<193.218 289>
VStem: 20 102<83.7771 245.271>
LayerCount: 2
Fore
SplineSet
271 442 m 0
 307 442 333 429 346 418.5 c 1
 350.5 412 358 397 358 380 c 0
 358 353.5 339.5 327 313 327 c 0
 293.5 327 278 340 269.5 355.5 c 0
 260 372 247 396.5 221.5 396.5 c 0
 175.5 396.5 122 285.5 122 166 c 0
 122 114.5 136 65 187.5 65 c 0
 232.5 65 286 128 289 131 c 1
 294.5 131 301.5 114 301.5 108 c 1
 288.5 87 205 -6 135.5 -6 c 0
 70.5 -6 20 42 20 135.5 c 0
 20 293.5 159.5 442 271 442 c 0
EndSplineSet
Validated: 1
EndChar

StartChar: d
Encoding: 100 100 67
Width: 469
Flags: W
HStem: -6 73<72.5 159.782 277.25 361.25> 394.5 47.5<261.5 313.5> 631.5 25<284.696 341.211> 670.5 20G<433 446.5>
VStem: 15 100<74.8898 220.718> 345 105<550.109 674.5>
LayerCount: 2
Fore
SplineSet
292 347 m 1
 294 373.5 283.5 394.5 261.5 394.5 c 0
 187 394.5 115 267.5 115 151 c 0
 115 99.5 129 67 158.5 67 c 0
 201 67 265 190 280.5 278.5 c 1
 280.5 278.5 292 340.5 292 347 c 1
336 559.5 m 1
 339 577.5 345 601.5 345 612.5 c 0
 345 631.5 300 631.5 284 631.5 c 1
 281 635.5 284 652.5 288 656.5 c 1
 343 661.5 422 682.5 444 690.5 c 1
 449 687.5 450 677.5 450 671.5 c 0
 450 663.5 442 621 437 596.5 c 2
 342.5 119 l 2
 341.5 115 338.5 91 338.5 86 c 0
 338.5 77 340.5 63.5 350.5 63.5 c 0
 372 63.5 418 118.5 421 123 c 1
 426 123 433 106 433 100 c 1
 419 74.5 338.5 -7 288 -7 c 0
 266.5 -7 251.5 8 246 31 c 0
 243 39.5 241.5 57 243.5 78.5 c 0
 245.5 92 247.5 105.5 249 113 c 1
 231 79.5 162 -6 102 -6 c 0
 43 -6 15 52.5 15 115.5 c 0
 15 277.5 171.5 432 298.5 441.5 c 0
 314 442 307.5 442 313.5 442 c 1
 336 559.5 l 1
EndSplineSet
Validated: 33
EndChar

StartChar: e
Encoding: 101 101 68
Width: 379
Flags: W
HStem: -6 71<97 196.839> 190.5 31.5<125.5 167.895> 403 39<199.346 297>
VStem: 20 101<83.5899 189.216> 263.5 96.5<303.855 400.446>
LayerCount: 2
Fore
SplineSet
271.5 442 m 0
 322.5 442 360 415 360 365 c 0
 360 265.5 185 190.5 123 190.5 c 1
 122 187.5 121 167 121 162 c 0
 121 113 136 65 186 65 c 0
 231 65 285 129 288 132 c 1
 294 132 301.5 113 301.5 107 c 1
 288.5 85 195.5 -6 132.5 -6 c 0
 61.5 -6 20 46.5 20 139.5 c 0
 20 287.5 156.5 442 271.5 442 c 0
125.5 222 m 1
 164.5 222 263.5 289.5 263.5 363.5 c 0
 263.5 386 250 403 229.5 403 c 0
 171 403 130.5 273 125.5 222 c 1
EndSplineSet
Validated: 1
EndChar

StartChar: f
Encoding: 102 102 69
Width: 304
Flags: W
HStem: -225.5 44.5<-83.7451 -3.43571> 377 41.5<44.2115 111.005 213.005 316.814> 645.5 44.5<270.923 351.255>
LayerCount: 2
Fore
SplineSet
335.505 690 m 0
 367.005 690 390.505 679 399.505 668.5 c 1
 402.005 663.031 403.95 655.521 403.834 647.5 c 0
 402.969 623.572 391.213 599.5 370.005 599.5 c 0
 353.005 599.5 341.005 609.5 330.005 623 c 0
 322.005 633 313.005 645.5 297.005 645.5 c 0
 262.005 645.5 244.005 577.5 213.005 418.5 c 1
 313.005 418.5 l 2
 317.005 418.5 318.005 411.5 318.005 406.5 c 0
 318.005 396.5 313.005 385 308.005 377 c 1
 205.005 377 l 1
 205.005 377 172.005 176.5 148.005 50.5 c 0
 116.005 -113.5 12.0049 -225.5 -67.9951 -225.5 c 0
 -99.4951 -225.5 -122.995 -214.5 -131.995 -204 c 1
 -134.495 -197.408 -136.323 -188.686 -135.952 -179.5 c 0
 -134.534 -156.737 -122.714 -135 -102.495 -135 c 0
 -85.4951 -135 -73.4951 -145 -62.4951 -158.5 c 0
 -54.4951 -168.5 -45.4951 -181 -29.4951 -181 c 0
 9.50488 -181 22.0049 -112.5 53.0049 46.5 c 1
 111.005 377 l 1
 36.0049 377 l 2
 35.0049 377 34.0049 378 34.0049 380 c 0
 34.0049 390 58.0049 418.5 81.0049 418.5 c 2
 118.005 418.5 l 1
 150.005 582.5 262.005 690 335.505 690 c 0
EndSplineSet
Validated: 1
EndChar

StartChar: g
Encoding: 103 103 70
Width: 427
VWidth: 512
Flags: W
HStem: -229.5 43<81.2707 235.529> 387 52<349.274 427.213> 411 36<181.565 252.289>
VStem: -53 95<-151.664 -66.1889> 35.5 128.5<45.75 104.5> 40 94.5<190.619 344.755> 275.5 84<-131.12 -4.75> 276 93<227.034 387.2>
LayerCount: 2
Fore
SplineSet
275.5 -115.5 m 0x92
 275.5 -63.5 180 -28.5 121.5 -10.5 c 1
 83.5 -28.5 42 -53.5 42 -97 c 0
 42 -159.5 101 -186.5 170 -186.5 c 0
 221 -186.5 275.5 -158.5 275.5 -115.5 c 0x92
223 411 m 0xa5
 166.5 412 136 330 134.5 262 c 0
 133.5 214 147.5 166 187 165 c 0
 238 164 275 237 276 298 c 0
 277 346 262 410 223 411 c 0xa5
348 387.5 m 1
 350.5 381.5 369 349.5 369 310.5 c 0
 369 210.5 288.5 158 254.5 142.5 c 0
 223 126.5 164 115.5 164 93.5 c 0xc9
 164 62 359.5 49.5 359.5 -59 c 0
 359.5 -154 258.5 -229.5 114 -229.5 c 0
 14 -229.5 -53 -185.5 -53 -122.5 c 0xd2
 -53 -52.5 33.5 -17 87 5 c 1
 87 5 59 19.5 55.5 23 c 1
 45.5 31 35.5 36.5 35.5 55 c 0xc8
 35.5 80 117.5 123.5 158 133 c 1
 111 141 40 179 40 258 c 0
 40 364 130 447 225.5 447 c 1xa4
 264 447 290.5 435.5 315.5 424 c 0
 327 418.5 377 437 390 439 c 1
 403 435 436 415.5 436 403 c 0
 436 396 430 387 422 387 c 0xc4
 408 387 361 388 348 387.5 c 1
EndSplineSet
Validated: 33
EndChar

StartChar: h
Encoding: 104 104 71
Width: 487
Flags: W
HStem: -7 70.5<295.75 382.75> 350 92<273.75 367.25> 631.5 25<74.1956 130.711> 670.5 20G<222.5 236>
VStem: 134.5 105<549.419 674.5> 261 99<27.7834 181.379> 307.5 99.5<220.16 397.425>
LayerCount: 2
Fore
SplineSet
226.5 596.5 m 1xfa
 226.5 596.5 173.5 326.5 172.5 322 c 1
 171 316 160.5 261 159.5 256 c 1
 181 302.5 285.5 442 343.5 442 c 1
 391 442 407 413 407 365.5 c 0xfa
 407 331.5 396.5 278.5 390 246.5 c 2
 364 119 l 2
 363 115 360 91.5 360 86.5 c 0
 360 77.5 362 63.5 372 63.5 c 0
 393.5 63.5 439.5 118.5 442.5 123 c 1
 447.5 123 454.5 106 454.5 100 c 1
 440.5 74.5 360 -7 309.5 -7 c 0
 282 -7 261 14 261 54.5 c 0xfc
 261 65.5 265.5 96.5 269 111 c 1
 298 253 l 2
 300.5 263.5 307.5 307.5 307.5 318 c 0
 307.5 334.5 304 350 290 350 c 0
 257.5 350 158.5 227 133 105 c 1
 130 89.5 115.5 23 110.5 0 c 1
 100.5 -3 75 -5 64.5 -5 c 0
 54 -5 30 -3 18 0 c 1
 21 15.5 125 556.5 125.5 559.5 c 1
 129 578 134.5 601.5 134.5 612.5 c 0
 134.5 631.5 89.5 631.5 73.5 631.5 c 1
 70.5 635.5 73.5 652.5 77.5 656.5 c 1
 132.5 661.5 211.5 682.5 233.5 690.5 c 1
 238.5 687.5 239.5 677.5 239.5 671.5 c 0
 239.5 663.5 230.5 616 226.5 596.5 c 1xfa
EndSplineSet
Validated: 1
EndChar

StartChar: i
Encoding: 105 105 72
Width: 286
VWidth: 512
Flags: W
HStem: -7 70.5<90.5 177.25> 371.5 70.5<88.75 172.75> 543 123.5<143.5 217.188>
VStem: 55.5 99<27.7834 177.461> 112 98.5<257.539 406.139> 124.5 112<562.724 647.872>
LayerCount: 2
Fore
SplineSet
107.5 316 m 2xf0
 108.5 321 112 343.5 112 348.5 c 0
 112 357.5 109.5 371.5 99.5 371.5 c 0
 78 371.5 32 316.5 29 312 c 1
 24 312 17 329 17 335 c 1
 31 360.5 107 442 157.5 442 c 0
 188 442 210.5 418.5 210.5 380.5 c 0xe8
 210.5 369.5 205.5 339.5 202.5 324 c 1
 158.5 119 l 2
 157 112 154.5 91.5 154.5 86.5 c 4
 154.5 77.5 156.5 63.5 166.5 63.5 c 4
 188 63.5 234 118.5 237 123 c 5
 242 123 249 106 249 100 c 5
 235 74.5 154.5 -7 104 -7 c 0
 77 -7 55.5 14 55.5 54.5 c 0
 55.5 65.5 60.5 96.5 63.5 111 c 1
 107.5 316 l 2xf0
189.5 666.5 m 0
 217 666.5 236.5 643.5 236.5 615.5 c 0
 236.5 578 207 543 170.5 543 c 0
 142.5 543 124.5 567.5 124.5 596 c 0xe4
 124.5 633 153.5 666.5 189.5 666.5 c 0
EndSplineSet
Validated: 1
EndChar

StartChar: j
Encoding: 106 106 73
Width: 268
VWidth: 512
Flags: W
HStem: -226.5 21G<-80.25 -62.25> 371.5 70.5<97.25 181.25> 543.5 124<164 237.688>
VStem: 120.5 98.5<252.277 406.139> 145 112<563.224 649.441>
LayerCount: 2
Fore
SplineSet
116 316 m 2xf0
 117 321 120.5 343.5 120.5 348.5 c 0
 120.5 357.5 118 371.5 108 371.5 c 0
 86.5 371.5 40.5 316.5 37.5 312 c 1
 32.5 312 25.5 329 25.5 335 c 1
 39.5 360.5 115.5 442 166 442 c 0
 196.5 442 219 418.5 219 380.5 c 0
 219 369.5 214 339.5 211 324 c 1
 211 324 172 120 164.5 82.5 c 1
 153 22.5 127.5 -43.5 85.5 -99.5 c 0
 43 -155.5 -46.5 -215.5 -78 -226.5 c 1
 -82.5 -225 -87 -213.5 -87 -205.5 c 1
 -1 -146 40.5 -69 66 61 c 1
 116 316 l 2xf0
210 667.5 m 0
 237.5 667.5 257 644 257 616 c 0
 257 578.5 227.5 543.5 191 543.5 c 0
 163 543.5 145 568 145 596.5 c 0xe8
 145 633.5 174 667.5 210 667.5 c 0
EndSplineSet
Validated: 1
EndChar

StartChar: k
Encoding: 107 107 74
Width: 481
VWidth: 512
Flags: W
HStem: -4 70.5<272 377.75> 381 61<276.142 374.25> 631.5 25<74.6956 131.211> 670.5 20G<223 236.5>
VStem: 135 105<548.133 674.5> 325 103.5<312.415 379.973>
LayerCount: 2
Fore
SplineSet
350 442 m 1
 398.5 442 428.5 414.5 428.5 372 c 0
 428.5 293.5 330 242.5 237 220.5 c 1
 289.5 130.5 325.5 66.5 367.5 66.5 c 0
 388 66.5 426 110 435.5 122.5 c 1
 442 122.5 447.5 105 447.5 100 c 1
 438.5 79.5 363 -4 311 -4 c 0
 233 -4 182 128 150 199.5 c 1
 142.5 162 111 0 111 0 c 1
 100.5 -3 76.5 -5.5 65.5 -5.5 c 0
 54.5 -5.5 30 -3 18 0 c 1
 21 15.5 125.5 556.5 126 559.5 c 1
 130 578 135 601.5 135 612.5 c 0
 135 631.5 90 631.5 74 631.5 c 1
 71 635.5 74 652.5 78 656.5 c 1
 133 661.5 212 682.5 234 690.5 c 1
 239 687.5 240 677.5 240 671.5 c 0
 240 663.5 231 616 227 596.5 c 2
 176.5 331.5 l 1
 185 346.5 265 442 350 442 c 1
294.5 381 m 1
 236 381 164 281.5 158 239 c 1
 222.5 239 325 279.5 325 348 c 1
 325 362 320 381 294.5 381 c 1
EndSplineSet
Validated: 1
EndChar

StartChar: l
Encoding: 108 108 75
Width: 262
Flags: W
HStem: -7 70.5<67.75 154.75> 631.5 25<77.1956 133.711> 670.5 20G<225.5 239>
VStem: 33 99<27.7834 179.883> 137.5 105<552.113 674.5>
LayerCount: 2
Fore
SplineSet
128.5 559.5 m 2
 132 577.5 137.5 601.5 137.5 612.5 c 0
 137.5 631.5 92.5 631.5 76.5 631.5 c 1
 73.5 635.5 76.5 652.5 80.5 656.5 c 1
 135.5 661.5 214.5 682.5 236.5 690.5 c 1
 241.5 687.5 242.5 677.5 242.5 671.5 c 0
 242.5 663.5 234.5 621 229.5 596.5 c 2
 136 119 l 2
 135 114 132 91.5 132 86.5 c 0
 132 77.5 134 63.5 144 63.5 c 0
 165.5 63.5 211.5 118.5 214.5 123 c 1
 219.5 123 226.5 106 226.5 100 c 1
 212.5 74.5 132 -7 81.5 -7 c 0
 54 -7 33 14 33 54.5 c 0
 33 65.5 38 96.5 41 111 c 1
 128.5 559.5 l 2
EndSplineSet
Validated: 1
EndChar

StartChar: m
Encoding: 109 109 76
Width: 736
Flags: W
HStem: -4.5 21G<310.25 322.75> 350 92<294.995 374.28 523.856 599.064> 371.5 70.5<92.5 149.996>
VStem: 112 98.5<243.497 406.139> 331.5 98.5<234.057 376.25> 509.5 99<27.7834 177.761> 557.5 99.5<221.516 397.635>
LayerCount: 2
Fore
SplineSet
517.5 111 m 1xdc
 522.5 133.5 548 253 548 253 c 2
 550.5 263.5 557.5 307.5 557.5 318 c 0
 557.5 336 554.5 350 540 350 c 0
 505.5 350 409 225.5 385.5 111.5 c 1
 363 0 l 1
 351 -2 329 -4.5 316.5 -4.5 c 0
 304 -4.5 282.5 -2 269.5 0 c 1
 323.5 263 l 2
 326.5 277 331.5 310.5 331.5 320 c 0
 331.5 338 325.5 350 313.5 350 c 0xda
 276.5 350 184.5 218 160.5 106.5 c 2
 138 0 l 1
 126 -2.5 104.5 -5 92 -5 c 0
 79.5 -5 58 -2.5 45 0 c 1
 107.5 316 l 2
 108.5 321 112 343.5 112 348.5 c 0
 112 357.5 109.5 371.5 99.5 371.5 c 0
 78 371.5 32 316.5 29 312 c 1
 24 312 17 329 17 335 c 1
 31 360.5 107 442 157.5 442 c 0xba
 188 442 210.5 418.5 210.5 380.5 c 0
 210.5 369.5 205 339.5 202 324 c 0
 197.5 300 191 273.5 187 255.5 c 1
 220 321 309.5 442 360.5 442 c 0
 417.5 442 430 401.5 430 351 c 0
 430 331 424.5 294.5 419.5 274 c 1
 456 339 541.5 442 590 442 c 0
 641 442 657 414.5 657 365.5 c 0xda
 657 330 646 276 640 246.5 c 1
 637.5 234 615 133 612.5 119 c 1
 610.5 109 608.5 91.5 608.5 86.5 c 0
 608.5 77.5 610.5 63.5 620.5 63.5 c 0
 642 63.5 688 118.5 691 123 c 1
 696 123 703 106 703 100 c 1
 689 74.5 608.5 -7 558 -7 c 0
 531 -7 509.5 14 509.5 54.5 c 0
 509.5 65.5 514.5 96.5 517.5 111 c 1xdc
EndSplineSet
Validated: 1
EndChar

StartChar: n
Encoding: 110 110 77
Width: 518
Flags: W
HStem: -7 70.5<326.5 413.25> 350 92<303.914 379.564> 371.5 70.5<88.75 172.75>
VStem: 112 98.5<243.572 406.139> 291.5 99<27.7834 181.379> 338 99.5<220.16 397.635>
LayerCount: 2
Fore
SplineSet
202 324 m 1xb4
 201 318 188 259.5 188 260 c 1
 209.5 306.5 312 442 370.5 442 c 1
 421.5 442 437.5 414.5 437.5 365.5 c 0xd4
 437.5 333 426.5 276.5 420.5 246.5 c 2
 394.5 119 l 2
 393 112 390.5 91.5 390.5 86.5 c 0
 390.5 77.5 392.5 63.5 402.5 63.5 c 0
 424 63.5 470 118.5 473 123 c 1
 478 123 485 106 485 100 c 1
 471 74.5 390.5 -7 340 -7 c 0
 313 -7 291.5 14 291.5 54.5 c 0xd8
 291.5 65.5 296.5 96.5 299.5 111 c 1
 328.5 253 l 2
 331 263.5 338 307.5 338 318 c 0
 338 336 335 350 320.5 350 c 0xd4
 287.5 350 186.5 232.5 160.5 106.5 c 1
 156 82.5 143 24 138 0 c 1
 126 -2.5 104.5 -5 92 -5 c 0
 79.5 -5 58 -2.5 45 0 c 1
 107.5 316 l 2
 108.5 321 112 343.5 112 348.5 c 0
 112 357.5 109.5 371.5 99.5 371.5 c 0
 78 371.5 32 316.5 29 312 c 1
 24 312 17 329 17 335 c 1
 31 360.5 107 442 157.5 442 c 0
 188 442 210.5 418.5 210.5 380.5 c 0
 210.5 369.5 205.5 339.5 202 324 c 1xb4
EndSplineSet
Validated: 37
EndChar

StartChar: o
Encoding: 111 111 78
Width: 435
Flags: W
HStem: -5.5 36<140.962 209.162> 406 36<206.432 277.425>
VStem: 20 101.5<50.7185 248.234> 293.5 101.5<186.394 387.924>
LayerCount: 2
Fore
SplineSet
250 406 m 0
 170.5 406 121.5 246.5 121.5 141.5 c 0
 121.5 89.5 132 30.5 167 30.5 c 0
 246 30.5 293.5 191 293.5 292.5 c 0
 293.5 349 285 406 250 406 c 0
262.5 442 m 0
 344 442 395 395 395 292.5 c 0
 395 150.5 267 -5.5 149.5 -5.5 c 0
 68 -5.5 20 49 20 140 c 0
 20 282 145 442 262.5 442 c 0
EndSplineSet
Validated: 1
EndChar

StartChar: p
Encoding: 112 112 79
Width: 474
Flags: W
HStem: -227 30.5<-52.7384 -12.2534> -218 28.5<113.888 160.27> -5 39.5<163.407 238.339> 372.5 69.5<279.646 378.583>
VStem: 337.583 101.5<210.033 364.696>
LayerCount: 2
Fore
SplineSet
291.583 372.5 m 0x38
 260.083 372.5 216.083 341.5 191.583 311.5 c 1
 189.083 298 157.583 140 157.583 140 c 2
 144.583 72 164.583 34.5 192.583 34.5 c 0
 270.583 34.5 337.583 199.5 337.583 301 c 0
 337.583 345 323.583 372.5 291.583 372.5 c 0x38
346.583 442 m 0
 410.583 442 439.083 391 439.083 321 c 0
 439.083 159.5 290.083 -5 168.083 -5 c 0
 156.583 -5 139.083 -3 131.583 4 c 1
 102.084 -135.5 l 2
 100.084 -144.5 99.084 -153.5 99.084 -163.5 c 0
 99.084 -168.5 103.084 -183.5 113.084 -186.5 c 0
 130.083 -190.5 157.083 -189.5 160.083 -189.5 c 0
 164.083 -190.5 161.583 -217 156.583 -219 c 1
 143.583 -219 132.583 -218 121.584 -218 c 0x78
 70.583 -218 7.08301 -220 -50.917 -227 c 1
 -55.917 -226 -54.417 -199.5 -49.417 -196.5 c 1xb8
 -31.417 -196.5 -18.417 -191.5 -9.41699 -180.5 c 0
 -2.41699 -171.5 1.58301 -160.5 6.58301 -137.5 c 2
 83.584 241 l 1
 35.583 193 l 1
 31.583 198 29.083 210.5 29.083 216.5 c 0
 29.083 224 34.583 231 38.083 234 c 2
 93.084 289.5 l 1
 121.083 438.5 l 1
 132.083 441.5 159.583 443 170.583 443 c 0
 181.583 443 205.583 440.5 215.583 435.5 c 1
 212.083 417 202.083 367.5 200.583 359.5 c 1
 228.083 387.5 295.583 442 346.583 442 c 0
EndSplineSet
Validated: 33
EndChar

StartChar: q
Encoding: 113 113 80
Width: 440
Flags: W
HStem: -227.5 21G<124.5 144> -218.5 20.5<129 276.5 311.47 340.44> -6 73<70.75 158.915> 394.5 47.5<220.323 330>
VStem: 15 100<76.0255 218.714>
LayerCount: 2
Fore
SplineSet
337 -219.5 m 1x78
 323 -219.5 289.5 -218.5 276.5 -218.5 c 0x78
 218.5 -218.5 162.5 -223.5 125.5 -227.5 c 1xb8
 123.5 -225.5 123 -198 129 -198 c 0
 158 -195 189 -184.5 194 -158.5 c 2
 244 107 l 1
 223 71.5 159 -6 101 -6 c 0
 40.5 -6 15 57 15 115 c 0
 15 274.5 173 442 312.5 442 c 0
 347.5 442 378 436 400.5 424.5 c 1
 342.5 122.5 l 2
 341.5 118.5 293.5 -141.5 293.5 -141.5 c 2
 292.5 -149 291.5 -156.5 291.5 -162.5 c 0
 291.5 -177.5 296 -191 340 -191 c 0
 344 -191 342 -216.5 337 -219.5 c 1x78
291.5 341 m 1
 295 361 288.5 394.5 261.5 394.5 c 0
 187.5 394.5 115 268.5 115 153.5 c 0
 115 98.5 130.5 67 157.5 67 c 0
 200.5 67 262 182.5 280 275.5 c 1
 282.5 289 289.5 327.5 291.5 341 c 1
EndSplineSet
Validated: 33
EndChar

StartChar: r
Encoding: 114 114 81
Width: 393
Flags: W
HStem: -4.5 21G<89 100.5> 355.5 86.5<295.886 369.153> 371.5 70.5<87.75 171.75>
VStem: 111 98.5<239.519 406.139>
LayerCount: 2
Fore
SplineSet
341 442 m 1xd0
 366.5 442 380 434.5 393 425 c 1
 399 417.5 405.5 403.5 405.5 389 c 0
 405.5 352 383.5 331 358.5 331 c 0
 344 331 330.5 340 320.5 347.5 c 0
 313.5 352.5 309 355.5 297 355.5 c 0xd0
 264.5 355.5 184.5 222 161 106.5 c 2
 140 0 l 1
 129.5 -2.5 106 -4.5 95 -4.5 c 0
 83 -4.5 59 -2.5 47 0 c 1
 106.5 316 l 2
 107.5 321 111 343.5 111 348.5 c 0
 111 357.5 108.5 371.5 98.5 371.5 c 0
 77 371.5 31 316.5 28 312 c 1
 23 312 16 329 16 335 c 1
 30 360.5 106 442 156.5 442 c 0xb0
 187 442 209.5 418.5 209.5 380.5 c 0
 209.5 369.5 204 339.5 201 324 c 0
 197 301.5 189 266 185.5 250 c 1
 212 329.5 290.5 442 341 442 c 1xd0
EndSplineSet
Validated: 1
EndChar

StartChar: s
Encoding: 115 115 82
Width: 343
Flags: W
HStem: -6.5 36<89.3383 182.377> 407 36.5<143.573 212.777>
VStem: 56.5 75<307.609 378.47> 194.5 77<56.7951 129.36>
LayerCount: 2
Fore
SplineSet
210.5 443.5 m 1
 257 443.5 287 432 308.5 414.5 c 1
 315.5 406 319 386 319 378.5 c 1
 319 356 303 332.5 277 332.5 c 1
 255.5 332.5 237 354.5 224 373 c 0
 212 391 202.5 407 176 407 c 1
 147.5 407 131.5 380 131.5 356 c 0
 131.5 317.5 179 282 213 246.5 c 0
 240.5 217 271.5 183 271.5 127 c 0
 271.5 45.5 198 -6.5 107.5 -6.5 c 1
 72 -6.5 35 4.5 11 24 c 1
 5 32 0 47.5 0 58 c 1
 0 85.5 18 108 42.5 108 c 1
 65 108 77 87 94 63 c 0
 108 43.5 121.5 29.5 147.5 29.5 c 1
 178.5 29.5 194.5 60.5 194.5 80 c 0
 194.5 119.5 149 153 117 189 c 0
 87 222.5 56.5 252.5 56.5 311 c 0
 56.5 379 120 443.5 210.5 443.5 c 1
EndSplineSet
Validated: 1
EndChar

StartChar: t
Encoding: 116 116 83
Width: 303
Flags: W
HStem: -7 70.5<83.5 170.25> 377 41.5<46.2066 108.5 210 294.915>
VStem: 48.5 99<27.7834 182.578>
LayerCount: 2
Fore
SplineSet
116.5 418.5 m 1
 129.5 488 l 1
 140.5 502 209 554 217 554 c 0
 223 554 230 551 234 548 c 1
 210 418.5 l 1
 291.5 418.5 l 2
 295.5 418.5 296 411.5 296 406.5 c 0
 296 396.5 291.5 385 286.5 377 c 1
 202 377 l 1
 151.5 119 l 2
 150 111 147.5 91.5 147.5 86.5 c 0
 147.5 77.5 149.5 63.5 159.5 63.5 c 0
 181 63.5 227 118.5 230 123 c 1
 235 123 242 106 242 100 c 1
 228 74.5 147.5 -7 97 -7 c 0
 70 -7 48.5 14 48.5 54.5 c 0
 48.5 65.5 53 94 56.5 111 c 2
 108.5 377 l 1
 38 377 l 2
 37 377 36 378 36 380 c 0
 36 390 60 418.5 83 418.5 c 2
 116.5 418.5 l 1
EndSplineSet
Validated: 1
EndChar

StartChar: u
Encoding: 117 117 84
Width: 512
Flags: W
HStem: -7 92<116.246 189.097> -7 70.5<318 404.75> 371.5 70.5<84.75 168.75>
VStem: 60.5 99.5<37.0964 214.203> 108 98.5<253.907 406.139> 283 99<27.7834 193.88>
LayerCount: 2
Fore
SplineSet
290 106 m 0x74
 295 133.5 300 153.5 305 176 c 1
 273 107.5 171.5 -7 117 -7 c 1
 72 -7 60.5 22.5 60.5 72 c 0xb4
 60.5 102 71.5 159 77 186.5 c 1
 81 207 100.5 295.5 103.5 316 c 2
 104.5 321 108 343.5 108 348.5 c 0
 108 357.5 105.5 371.5 95.5 371.5 c 0
 74 371.5 28 316.5 25 312 c 1
 20 312 13 329 13 335 c 1
 27 360.5 103 442 153.5 442 c 0
 184 442 206.5 418.5 206.5 380.5 c 0xac
 206.5 369.5 201.5 339.5 198.5 324 c 1
 197.5 318 169.5 182 169.5 182 c 2
 167.5 171.5 160 127.5 160 117 c 0
 160 100.5 163.5 85 177.5 85 c 0xb4
 210 85 311 221.5 335.5 345.5 c 1
 339.5 367 349 413.5 353.5 435 c 1
 363.5 438 386.5 440 397 440 c 0
 407.5 440 434 438 446 435 c 1
 386 119 l 2
 384.5 111.5 382 91.5 382 86.5 c 0
 382 77.5 384 63.5 394 63.5 c 0
 415.5 63.5 461.5 118.5 464.5 123 c 1
 469.5 123 476.5 106 476.5 100 c 1
 462.5 74.5 382 -7 331.5 -7 c 0
 304.5 -7 283 14 283 54.5 c 0
 283 62 286 84.5 290 106 c 0x74
EndSplineSet
Validated: 1
EndChar

StartChar: v
Encoding: 118 118 85
Width: 452
VWidth: 512
Flags: W
HStem: 368 74<80 169.5>
VStem: 99.5 98.5<89.2721 367.989> 343.5 89<280.092 400.924>
LayerCount: 2
Fore
SplineSet
211 88.5 m 1
 262.5 130.5 292.5 167 319 218.5 c 0
 339 257.5 343.5 298 343.5 320 c 0
 343.5 343 330.5 371.5 309.5 390 c 1
 312.5 417 342 442 366 442 c 0
 404 442 432.5 413 432.5 356 c 0
 432.5 229.5 188 -5.5 122 -5.5 c 1
 107.5 23.5 99.5 143 99.5 219 c 2
 99.5 344.5 l 2
 99.5 353.5 99 368 89 368 c 0
 71 368 28 316.5 25 312 c 1
 20 312 13 329 13 335 c 1
 27.5 361 103 442 153.5 442 c 0
 185.5 442 198 417 198 387 c 2
 198 387 198 350.5 198 344.5 c 1
 198 258.5 l 2
 198 182 205.5 104 211 88.5 c 1
EndSplineSet
Validated: 1
EndChar

StartChar: w
Encoding: 119 119 86
Width: 677
VWidth: 512
Flags: W
HStem: 368 74<80 169.5>
VStem: 99.5 98.5<109.648 367.989> 344 78<272.609 345.89> 568.5 89<274.418 400.889>
LayerCount: 2
Fore
SplineSet
422 390.5 m 1
 422.5 344 426.5 266.5 431.5 206.5 c 0
 436.5 154 443 104.5 450 94 c 1
 489.5 124 525 163 549.5 217.5 c 0
 567.5 255.5 568.5 294.5 568.5 317.5 c 0
 568.5 342.5 555.5 371.5 534.5 390 c 1
 537.5 417 567 442 591 442 c 0
 629 442 657.5 413 657.5 356 c 0
 657.5 229.5 436.5 -5 365 -5 c 1
 354.5 8.5 343.5 89 339 126 c 0
 335.5 155.5 333 191 332.5 203 c 1
 283 121.5 180 9 123 -5.5 c 1
 108.5 23.5 99.5 143 99.5 219 c 2
 99.5 344.5 l 2
 99.5 353.5 99 368 89 368 c 0
 71 368 28 316.5 25 312 c 1
 20 312 13 329 13 335 c 1
 27.5 361 103 442 153.5 442 c 0
 185.5 442 198 417 198 387 c 2
 198 387 198 350.5 198 344.5 c 1
 198 258.5 l 2
 198 182 205.5 121 211 105.5 c 1
 246 138 286.5 201.5 305 236.5 c 0
 324 272.5 336.5 306.5 344 335 c 1
 352 357 404.5 389 422 390.5 c 1
EndSplineSet
Validated: 1
EndChar

StartChar: x
Encoding: 120 120 87
Width: 496
VWidth: 512
Flags: W
HStem: -6 70.5<54.75 121.437 280 365.75> 368 74<109.5 195.75> 375.5 66.5<351.747 417>
LayerCount: 2
Fore
SplineSet
181 442 m 0xc0
 210.5 442 229.5 407.5 240 371 c 2
 265.5 282.5 l 1
 315.5 373 l 1
 336 410 367 442 403.5 442 c 0
 430.5 442 456.5 430.5 469 419.5 c 1
 473.5 411 479.5 394.5 479.5 382.5 c 0
 479.5 358.5 465.5 328.5 435 328.5 c 0
 415.5 328.5 401 342 394 354 c 0
 388.5 364 378.5 375.5 370 375.5 c 0xa0
 361 375.5 350.5 363 340.5 346 c 2
 278.5 240.5 l 1
 320 103.5 l 2
 326 83.5 337 64.5 356 64.5 c 0
 375.5 64.5 418.5 113 425.5 123 c 1
 430.5 123 437.5 105.5 437.5 100 c 1
 425 77 345.5 -6 296.5 -6 c 0
 263.5 -6 244 31 231.5 70 c 1
 231.5 71 214.5 129.5 207.5 153 c 1
 158 63.5 l 1
 137.5 26.5 106.5 -5.5 70 -5.5 c 0
 39.5 -5.5 21 5 7 15.5 c 1
 1.5 22.5 -5 37.5 -5 52.5 c 0
 -5 76.5 8 108 38.5 108 c 0
 58 108 72.5 94.5 79.5 82.5 c 0
 85 73 95 61 103.5 61 c 0
 112 61 123 70 135 91.5 c 2
 194.5 195 l 1
 154.5 328.5 l 2
 150 343.5 138 368 117.5 368 c 0
 101.5 368 61.5 323 54.5 313 c 1
 49.5 313 42.5 330.5 42.5 336 c 1
 55.5 359.5 132 442 181 442 c 0xc0
EndSplineSet
Validated: 1
EndChar

StartChar: y
Encoding: 121 121 88
Width: 473
Flags: W
HStem: -225.5 73<-72.0493 39.4739> 368 74<67.5 188.25>
VStem: 144.5 98<20.5 281.348> 353 85.5<241.312 398.435>
LayerCount: 2
Fore
SplineSet
131 442 m 0
 245.5 442 242.5 81.5 242.5 20.5 c 1
 278.5 64.5 353 185.5 353 294.5 c 0
 353 344.5 332.5 371.5 319.5 388 c 1
 323.5 418 351.5 442 378 442 c 0
 417 442 438.5 402 438.5 356 c 0
 438.5 122 104.5 -225.5 -30.5 -225.5 c 0
 -66.5 -225.5 -93 -206.5 -93 -174 c 0
 -93 -157 -81.5 -135 -66.5 -127 c 1
 -51.5 -136 -7 -152.5 23 -152.5 c 0
 85 -152.5 113.5 -119 131 -92 c 0
 147.5 -59.5 144.5 13.5 144.5 56.5 c 0
 144.5 170.5 128 368 79 368 c 0
 56 368 18 315 15 312 c 1
 9.5 312.5 2.5 330.5 3 335 c 1
 14 354 84 442 131 442 c 0
EndSplineSet
Validated: 33
EndChar

StartChar: z
Encoding: 122 122 89
Width: 414
Flags: W
HStem: -1.5 83.5<221.117 298.86> 35 83<62.4688 168.279> 323 83.5<226.209 329.457> 359 83.5<97.4917 177.489>
LayerCount: 2
Fore
SplineSet
158.5 442.5 m 0x10
 194 442.5 218.5 432 244.5 421.5 c 0
 262 414.5 284 406.5 314 406.5 c 0
 344 406.5 382 434.5 394 442 c 1
 408 440 409.5 426 410 418 c 0
 410 404 116 112.5 113 108.5 c 1
 117.5 110.5 139.5 118 157 118 c 0x60
 182 118 206 111.5 225.5 102 c 0
 243.5 94 266 82 284.5 82 c 0
 312.5 82 335.5 131.5 342 140.5 c 1
 351.5 140.5 356 128.5 357 120.5 c 1
 339 82 286.5 -1.5 236.5 -1.5 c 0x80
 203.5 -1.5 175.5 9.5 149 20.5 c 0
 132 27.5 103 35 72 35 c 0
 46 35 22 11.5 4 -1 c 1
 -9 0 -11 13.5 -12 22.5 c 1
 -12 38 290.5 333.5 292.5 337.5 c 1
 288.5 335.5 263 323 240 323 c 0x60
 215 323 191.5 330 172 339 c 0
 154 347.5 131.5 359 112.5 359 c 0
 83.5 359 61 309 54.5 300 c 1
 46 300 40.5 311.5 39.5 320 c 1
 52 349.5 109 442.5 158.5 442.5 c 0x10
EndSplineSet
Validated: 1
EndChar

StartChar: braceleft
Encoding: 123 123 90
Width: 228
Flags: W
HStem: 719 20.5<265.054 279.845>
VStem: 19.5332 261.5
LayerCount: 2
Fore
SplineSet
127.033 403 m 0
 132.033 430 125.533 453.5 121.533 479 c 0
 116.533 503 113.033 527.5 118.533 557 c 0
 137.533 655.5 227.533 726 271.533 739.5 c 1
 278.033 739.5 284.033 727.5 281.033 719 c 1
 252.533 705.5 195.033 658 184.533 603.5 c 0
 177.033 565 183.033 542.5 188.533 516.5 c 0
 193.533 493.5 198.533 467.5 190.533 428 c 0
 176.533 357.5 115.033 310 87.0332 302.5 c 1
 112.033 295 156.033 247.5 142.033 177 c 0
 134.033 137.5 119.533 111.5 105.533 88.5 c 0
 90.0332 62.5 75.0332 40 67.5332 1.5 c 0
 57.0332 -53 95.5332 -100.5 118.533 -114 c 1
 118.033 -122.5 108.033 -134.5 101.533 -134.5 c 1
 62.5332 -121 0.533203 -50.5 19.5332 48 c 0
 25.5332 79 40.0332 104.5 54.5332 129.5 c 0
 68.5332 153.5 83.0332 176 88.0332 202 c 0
 98.0332 255 66.5332 280.5 32.0332 291.5 c 1
 31.0332 293.5 30.5332 298.5 31.5332 302.5 c 0
 32.5332 306.5 34.0332 311.5 36.0332 313.5 c 1
 75.0332 324.5 117.033 350 127.033 403 c 0
EndSplineSet
Validated: 33
EndChar

StartChar: bar
Encoding: 124 124 91
Width: 203
Flags: W
VStem: 1.10156 222.5
LayerCount: 2
Fore
SplineSet
170.602 757 m 1
 179.102 764.5 192.602 769.5 208.102 769.5 c 0
 215.602 769.5 224.602 766.5 223.602 761 c 2
 54.6016 -111 l 1
 45.6016 -119 27.1016 -124 14.1016 -124 c 0
 6.60156 -124 0.101562 -119.5 1.10156 -115 c 2
 1.10156 -115 135.602 587.5 170.602 757 c 1
EndSplineSet
Validated: 1
EndChar

StartChar: braceright
Encoding: 125 125 92
Width: 230
Flags: W
HStem: -134.5 20.5<-37.6133 -21.4266>
VStem: -38.0508 260.5
LayerCount: 2
Fore
SplineSet
139.949 739.5 m 1
 178.949 726 241.449 655.5 222.449 557 c 0
 216.449 527 202.949 502 188.449 477.5 c 0
 174.449 453 159.449 429.5 154.449 403 c 0
 144.449 350 175.949 324.5 210.449 313.5 c 1
 211.449 311.5 211.449 306.5 210.449 302.5 c 0
 209.449 298 208.449 294 206.449 291.5 c 1
 167.449 280.5 125.449 255 115.449 202 c 0
 110.449 176 115.949 153 120.449 129 c 0
 125.449 104 129.449 78.5 123.449 48 c 0
 104.449 -50.5 13.9492 -121 -30.0508 -134.5 c 1
 -36.5508 -134.5 -41.0508 -122.5 -38.0508 -114 c 1
 -10.0508 -100.5 46.9492 -53 57.4492 1.5 c 0
 64.4492 39.5 58.9492 62.5 53.4492 88 c 0
 48.4492 111 43.4492 137 51.4492 177 c 0
 65.4492 247.5 127.449 295 155.449 302.5 c 1
 130.449 310 85.9492 357.5 99.9492 428 c 0
 108.449 470 122.949 495.5 137.949 519.5 c 0
 152.949 544.5 167.449 567 174.449 603.5 c 0
 184.949 658 146.449 705.5 123.949 719 c 1
 124.449 727.5 133.449 739.5 139.949 739.5 c 1
EndSplineSet
Validated: 33
EndChar

StartChar: asciitilde
Encoding: 126 126 93
Width: 542
Flags: W
HStem: 247.5 56<309.201 445.428> 300.5 56<115.713 248.729>
LayerCount: 2
Fore
SplineSet
194.5 356.5 m 0x40
 282 356.5 315.5 303.5 403 303.5 c 0
 439 303.5 465 324.5 496 347.5 c 1
 498 346 501 342 501 335 c 0
 501 297 430.5 247.5 366 247.5 c 0x80
 278 247.5 243 300.5 155 300.5 c 0
 119 300.5 93 279.5 62 256.5 c 1
 60 258 57 262 57 269 c 0
 57 313 141 356.5 194.5 356.5 c 0x40
EndSplineSet
Validated: 1
EndChar

StartChar: exclamdown
Encoding: 161 161 95
Width: 219
VWidth: 512
Flags: W
HStem: 314 127<96.2428 170.604>
VStem: -23.417 104.5<-188.116 -71.0834> 74.083 117.5<334.853 418.586>
LayerCount: 2
Fore
SplineSet
191.583 380.5 m 1xa0
 188.083 343.5 156.583 314 120.583 314 c 27
 91.583 314 70.583 340 74.083 370.5 c 1
 77.583 408 107.583 441 144.083 441 c 27
 175.083 441 195.083 412 191.583 380.5 c 1xa0
14.583 -208 m 1
 -10.417 -208 -27.417 -184.5 -23.417 -152.5 c 1
 -20.917 -125 47.583 98 85.083 233 c 0
 90.083 250 108.583 259.5 117.583 259.5 c 1
 122.583 259.5 123.583 249 123.583 239.5 c 1
 122.083 204 96.583 -48 81.083 -147.5 c 0xc0
 75.583 -178 47.083 -208 14.583 -208 c 1
EndSplineSet
Validated: 33
EndChar

StartChar: cent
Encoding: 162 162 96
Width: 381
Flags: W
HStem: -6 71<106 205.336> 396.5 45.5<196.218 292>
VStem: 23 102<65.1424 245.271>
LayerCount: 2
Fore
SplineSet
274 442 m 0
 310 442 336 429 349 418.5 c 1
 353.5 412 361 397 361 380 c 0
 361 353.5 342.5 327 316 327 c 0
 296.5 327 281 340 272.5 355.5 c 0
 263 372 250 396.5 224.5 396.5 c 0
 178.5 396.5 125 285.5 125 166 c 0
 125 114.5 139 65 190.5 65 c 0
 235.5 65 289 128 292 131 c 1
 297.5 131 304.5 114 304.5 108 c 1
 291.5 87 208 -6 138.5 -6 c 0
 73.5 -6 23 42 23 135.5 c 0
 23 293.5 162.5 442 274 442 c 0
269.5 474 m 17
 276.5 474 303.5 473 302.5 466 c 9
 126.5 -45 l 17
 118.5 -45 92.5 -43 93.5 -36 c 9
 269.5 474 l 17
EndSplineSet
Validated: 37
EndChar

StartChar: sterling
Encoding: 163 163 97
Width: 463
Flags: W
HStem: -8 85.5<242.15 322.614> 40 75<79.8469 204.558> 293.5 40.5<68.8506 334.899> 589 49<272.384 375.307>
LayerCount: 2
Fore
SplineSet
76.7178 334 m 1x30
 97.7178 334 334.307 334 345.807 334 c 1
 353.307 328.5 337.307 299 328.307 293.5 c 1
 314.807 293.5 61.2178 293.5 54.7178 293.5 c 1
 50.2178 303 67.7178 329 76.7178 334 c 1x30
200.718 259 m 0
 185.92 183.96 142.718 131.5 113.718 105 c 1
 132.218 113.5 152.308 115 183.308 115 c 0x70
 225.808 115 276.307 77.5 318.307 77.5 c 0
 356.307 77.5 378.307 118.5 391.807 137.5 c 1
 395.807 138.5 401.807 133 403.307 125.5 c 0
 405.307 120.5 403.807 115.5 402.807 111.5 c 1
 384.807 77 331.307 -8 261.808 -8 c 0xb0
 200.308 -8 149.808 40 92.3066 40 c 0x70
 69.3066 40 31.3066 8.5 12.3066 -7.5 c 1
 2.80664 -7.5 -1.19336 8 0.306641 15.5 c 1
 18.8066 42 49.3066 68.5 66.8066 92 c 1
 88.2178 133.5 101.274 182 111.718 234.5 c 0
 120.994 281.5 113.289 359.5 122.218 404 c 0
 152.454 554.954 264.808 638 358.307 638 c 0
 392.307 638 406.807 625 419.307 607 c 1
 424.307 584 407.307 537 375.807 537 c 0
 334.807 537 340.307 589 301.307 589 c 0
 251.308 589 227.322 522.98 214.718 454.5 c 0
 202.983 389 210.883 311 200.718 259 c 0
EndSplineSet
Validated: 37
EndChar

StartChar: currency
Encoding: 164 164 98
Width: 519
Flags: W
HStem: 120 33.5<205.133 288.41> 462 34<245.6 327.076>
LayerCount: 2
Fore
SplineSet
245 153.5 m 0
 302 153.5 351 234 358.5 317.5 c 0
 367.5 398.5 337.5 462 289 462 c 0
 232 462 181 379.5 173.5 296 c 0
 164.5 215 196.5 153.5 245 153.5 c 0
400 455 m 1
 465.5 510 l 2
 467.431 511.772 470.366 511.224 472.874 509.5 c 1
 482.181 505.801 493.818 484.685 495.5 466 c 1
 428.5 410 l 1
 437.5 385.5 441 357 437.5 327 c 0
 433.5 274.5 408.5 229 383.5 199 c 1
 422.5 141 l 2
 423.384 139.321 423.205 137.361 421.5 134.592 c 1
 417.419 124.163 393.464 105.468 374 100 c 1
 336.5 155 l 1
 304.5 133 267.5 120 230.5 120 c 0
 190.5 120 156.5 135 132.5 160 c 1
 73.5 110 l 2
 71.7188 108.361 69.0723 108.682 66.8496 110 c 1
 57.5234 113.312 45.7148 134.918 44 154 c 1
 104 205 l 1
 94 229.5 90.5 257.5 94 287.5 c 0
 98.5 340.5 123.5 389.5 154 423 c 1
 116.5 479 l 2
 115.725 480.534 115.685 482.167 117 484.583 c 1
 120.775 495.083 145.6 514.405 165.5 520 c 1
 203 465 l 1
 234 485 269 496 304 496 c 0
 344 496 376 481 400 455 c 1
EndSplineSet
Validated: 33
EndChar

StartChar: yen
Encoding: 165 165 99
Width: 614
Flags: W
HStem: -3.5 32<134.793 201.119 314.621 368.496> 134 41<138.177 428.767> 217.5 41<154.256 444.846> 605 32<93.3789 135.573 278.74 335.015 456.152 510.293 586.693 651.284>
LayerCount: 2
Fore
SplineSet
156.2 217.5 m 2
 153.2 217.5 151.7 221 151.7 225 c 0
 151.7 234 157.2 250 165.7 258.5 c 1
 443.7 258.5 l 2
 445.7 258.5 446.7 255.5 446.7 251.5 c 0
 446.7 243.5 444.2 227 434.2 217.5 c 1
 156.2 217.5 l 2
140.121 134 m 2
 137.121 134 135.621 137.5 135.621 141.5 c 0
 135.621 150.5 141.121 166.5 149.621 175 c 1
 427.621 175 l 2
 429.621 175 430.621 172 430.621 168 c 0
 430.621 160 428.121 143.5 418.121 134 c 1
 140.121 134 l 2
222.621 126 m 2
 249.621 265 l 1
 250.621 272 250.621 279.5 248.121 288.5 c 1
 241.621 315 173.621 522 173.621 522 c 2
 163.121 553 157.121 564.5 142.621 581.5 c 0
 131.621 598.5 103.121 604.5 91.6211 605 c 1
 87.6211 608.5 91.6211 631.5 97.1211 637 c 1
 135.621 634 175.621 631 216.621 631 c 0
 257.621 631 302.121 634 338.121 637 c 1
 340.121 631 336.621 608.5 331.121 605 c 1
 319.121 604.5 276.621 601.5 271.621 577 c 0
 270.121 571 273.121 564.5 276.121 555 c 2
 346.621 333 l 1
 378.621 372.5 472.621 509.5 507.621 563 c 0
 511.121 568.5 513.621 574.5 514.621 581 c 0
 516.621 592.5 484.621 604 453.621 604.5 c 1
 450.621 609.5 455.121 631.5 459.121 636.5 c 1
 496.121 633.5 517.121 630.5 554.121 630.5 c 0
 597.121 630.5 618.121 634.5 655.121 636.5 c 1
 656.621 632 652.121 608 647.621 604.5 c 1
 638.121 604 591.621 603.5 569.121 573.5 c 1
 557.621 559.5 379.121 316.5 360.621 288 c 1
 354.121 279 353.121 272 351.621 264.5 c 1
 324.121 126 l 2
 316.621 90.5 311.621 61.5 314.621 44.5 c 0
 316.121 32.5 359.121 29 370.621 28.5 c 1
 373.621 22.5 370.121 2 364.621 -3.5 c 1
 329.621 -0.5 285.121 2.5 249.121 2.5 c 0
 213.121 2.5 168.621 -0.5 132.121 -3.5 c 1
 128.621 2 133.121 22.5 138.621 28.5 c 1
 150.121 29 195.121 32.5 201.121 44.5 c 0
 210.621 61.5 215.121 90.5 222.621 126 c 2
EndSplineSet
Validated: 37
EndChar

StartChar: brokenbar
Encoding: 166 166 100
Width: 208
VWidth: 512
Flags: W
VStem: 3.10156 222
LayerCount: 2
Fore
SplineSet
172.102 755.5 m 1
 180.602 763 194.102 768 209.602 768 c 1
 217.102 768 226.102 765 225.102 759.5 c 2
 154.102 392 l 1
 145.102 384 127.102 379 114.102 379 c 1
 106.602 379 99.6016 383.5 100.602 388 c 2
 100.602 388 139.602 585.5 172.102 755.5 c 1
74.6016 252.5 m 1
 83.1016 260 96.6016 265 112.102 265 c 1
 119.602 265 128.602 262 127.602 256.5 c 2
 56.6016 -111 l 1
 47.6016 -119 29.1016 -124 16.1016 -124 c 1
 8.60156 -124 2.10156 -119.5 3.10156 -115 c 2
 3.10156 -115 42.1016 82.5 74.6016 252.5 c 1
EndSplineSet
Validated: 1
EndChar

StartChar: section
Encoding: 167 167 101
Width: 417
Flags: W
HStem: -85 50<40.0791 154.645> 603 50<267.296 382.036>
LayerCount: 2
Fore
SplineSet
362.069 653 m 0
 375.069 653 390.569 648.5 402.569 642.5 c 1
 405.569 632.5 403.569 620.5 402.569 614.5 c 0
 399.069 596.5 381.569 576.5 360.569 576.5 c 0
 343.569 576.5 335.569 586 328.069 592.5 c 0
 321.069 598.5 310.569 603 296.569 603 c 0
 267.569 603 220.569 587 213.569 549 c 0
 204.569 503 262.569 426.5 297.569 383.5 c 0
 341.069 330 385.569 270.5 368.069 181.5 c 0
 353.569 105 238.569 -8.5 198.569 -34.5 c 9
 202.069 -22.5 201.069 -14 208.569 -3 c 24
 220.069 14.5 244.569 35 244.569 35 c 0
 272.569 68.5 291.069 88.5 300.069 132.5 c 0
 316.069 215.5 274.069 277.5 233.569 327.5 c 0
 197.569 371.5 141.569 426.5 155.069 496.5 c 0
 171.069 576.5 258.069 653 362.069 653 c 0
177.569 532.5 m 0
 148.569 498 131.069 479.5 122.069 435.5 c 0
 106.069 352.5 147.569 290.5 188.569 240.5 c 0
 224.569 196.5 280.569 141.5 267.069 71.5 c 0
 251.069 -8.5 164.069 -85 60.0693 -85 c 0
 47.0693 -85 30.5693 -80 19.5693 -74 c 1
 17.0693 -65.5 18.0693 -54 19.0693 -48 c 0
 22.5693 -30 41.0693 -8.5 62.0693 -8.5 c 0
 79.0693 -8.5 87.5693 -18.5 95.0693 -25.5 c 0
 101.569 -31.5 111.069 -35 125.069 -35 c 0
 154.069 -35 201.569 -19 208.569 19 c 0
 217.569 65 159.569 141.5 124.569 184.5 c 0
 81.0693 238 36.5693 297.5 54.0693 386.5 c 0
 68.5693 463 183.569 576.5 223.569 602.5 c 9
 220.069 590.5 221.069 582 213.569 571 c 24
 202.069 553.5 177.569 532.5 177.569 532.5 c 0
EndSplineSet
Validated: 37
EndChar

StartChar: dieresis
Encoding: 168 168 102
Width: 346
VWidth: 512
Flags: W
HStem: 461.725 115.55<92.6451 161.823 271.195 340.373>
VStem: 76.4238 103.85<480.091 560.995> 254.975 103.849<480.091 560.995>
LayerCount: 2
Fore
SplineSet
254.975 517.45 m 5
 258.299 550.025 284.949 577.275 316.574 577.275 c 31
 343.225 577.275 362.149 553.525 358.824 525.45 c 5
 355.499 492.375 328.324 461.725 296.199 461.725 c 31
 268.1 461.725 251.649 488.875 254.975 517.45 c 5
76.4238 517.45 m 5
 79.749 550.025 106.399 577.275 138.024 577.275 c 31
 164.674 577.275 183.6 553.525 180.274 525.45 c 5
 176.949 492.375 149.774 461.725 117.649 461.725 c 31
 89.5488 461.725 73.0996 488.875 76.4238 517.45 c 5
EndSplineSet
Validated: 33
EndChar

StartChar: copyright
Encoding: 169 169 103
Width: 609
Flags: W
HStem: 54 38<206.963 373.661> 179 28<277.767 370.127> 439 30<295.97 389.713> 561 38<259.15 428.678>
VStem: 403.336 18<250.643 266.458> 412.336 21<382.86 411.029>
LayerCount: 2
Fore
SplineSet
421.336 264 m 1xf8
 421.336 260 402.336 204 396.336 202 c 0
 368.336 191 336.336 179 299.336 179 c 0
 222.336 179 173.336 236 183.336 320 c 0
 193.336 404 263.336 469 337.336 469 c 0
 363.336 469 401.336 461 427.336 452 c 1
 427.336 450 433.336 394 433.336 390 c 0
 433.336 386 423.336 382 417.336 382 c 1
 415.336 382 414.336 382 412.336 384 c 1xf4
 410.336 398 399.336 439 339.336 439 c 0
 287.336 439 250.336 384 243.336 328 c 0
 234.336 256 269.336 207 317.336 207 c 0
 343.336 207 364.336 215 377.336 226 c 0
 392.336 240 401.336 266 403.336 268 c 1
 407.336 268 419.336 266 421.336 264 c 1xf8
99.3359 326 m 0
 83.3359 196 167.336 92 288.336 92 c 0
 409.336 92 519.336 196 535.336 326 c 0
 551.336 456 466.336 561 345.336 561 c 0
 224.336 561 115.336 456 99.3359 326 c 0
62.3359 326 m 0
 81.3359 477 209.336 599 349.336 599 c 0
 489.336 599 589.336 477 570.336 326 c 0
 551.336 175 422.336 54 282.336 54 c 0
 142.336 54 43.3359 175 62.3359 326 c 0
EndSplineSet
Validated: 33
EndChar

StartChar: ordfeminine
Encoding: 170 170 104
Width: 389
VWidth: 512
Flags: W
HStem: 247.5 50.5<108.753 174.653> 519.5 36<209.092 293>
VStem: 57 74.5<300.629 416.211> 225 75<268.415 370.352>
LayerCount: 2
Fore
SplineSet
261.5 247.5 m 0
 241 247.5 225 261 225 286.5 c 0
 225 291 226.5 302 228.5 312 c 0
 230 321 231 324.5 232 328.5 c 1
 216.5 303.5 166.5 248.5 122.5 248.5 c 0
 81 248.5 57 283 57 330.5 c 0
 57 451.5 187 555.5 279.5 555.5 c 0
 306.5 555.5 334 550 348.5 545 c 1
 303 338 l 2
 302.5 335 300 319 300 316 c 0
 300 310 301.5 300.5 309 300.5 c 0
 325 300.5 360.5 338 362.5 341 c 1
 366 339.5 371 327.5 370 321 c 1
 360 303.5 299.5 247.5 261.5 247.5 c 0
240.5 519.5 m 0
 186 519.5 131.5 436.5 131.5 356.5 c 0
 131.5 319 142.5 298 164 298 c 0
 196 298 241 376 256 443 c 2
 271 510.5 l 1
 265 516.5 250.5 519.5 240.5 519.5 c 0
EndSplineSet
Validated: 1
EndChar

StartChar: guillemotleft
Encoding: 171 171 105
Width: 482
VWidth: 512
Flags: W
LayerCount: 2
Fore
SplineSet
397.555 91.5 m 1
 392.055 82 379.055 75 373.055 73 c 1
 356.055 94.5 292.555 168 209.555 230.5 c 1
 205.055 234.5 202.555 239.5 203.055 245 c 0
 203.555 253 209.555 260.5 215.055 264.5 c 1
 339.055 335.5 402.555 393.5 440.555 423 c 1
 445.055 422 458.055 415.5 460.055 406 c 1
 455.055 397 319.055 266.5 298.555 248.5 c 1
 312.055 230.5 396.055 98.5 397.555 91.5 c 1
221.055 91.5 m 1
 215.555 82 202.055 75 196.055 73 c 1
 179.055 94.5 116.055 168 33.0547 230.5 c 1
 28.5547 234.5 25.5547 239.5 26.0547 245 c 0
 26.5547 253 32.5547 260.5 38.0547 264.5 c 1
 162.055 335.5 225.555 393.5 263.555 423 c 1
 268.055 422 281.055 415.5 283.055 406 c 1
 278.055 397 142.055 266.5 121.555 248.5 c 1
 135.055 230.5 219.555 98.5 221.055 91.5 c 1
EndSplineSet
Validated: 1
EndChar

StartChar: logicalnot
Encoding: 172 172 106
Width: 527
VWidth: 512
Flags: W
HStem: 316 47<56.0447 414.5>
LayerCount: 2
Fore
SplineSet
71.5 363 m 1
 478 363 l 1
 473.5 339.5 432.5 129.5 432.5 129.5 c 1
 430.5 126 408.5 115.5 393.5 115.5 c 1
 385.5 115.5 377.5 118.5 378.5 123.5 c 2
 414.5 316 l 1
 58 316 l 1
 56.5 316 54 321.5 54 327 c 0
 54 342 61.5 356.5 71.5 363 c 1
EndSplineSet
Validated: 1
EndChar

StartChar: registered
Encoding: 174 174 107
Width: 609
Flags: W
HStem: 111 38<217.963 384.661> 253 15<196.167 224.939 279.586 303.336 431.072 449.336> 379 19<291.336 308.92> 509 18<228.336 253.276 306.436 352.829> 618 39<270.15 439.678>
LayerCount: 2
Fore
SplineSet
341.336 527 m 0
 382.336 527 423.336 501 417.336 453 c 0
 413.336 421 378.336 394 355.336 386 c 1
 375.336 348 395.336 316 406.336 299 c 0
 423.336 275 439.336 270 451.336 269 c 1
 452.336 266 449.336 254 449.336 253 c 1
 430.336 253 408.336 254 397.336 255 c 0
 380.336 256 368.336 264 357.336 282 c 0
 355.336 286 317.336 352 307.336 373 c 0
 306.336 375 303.336 379 299.336 379 c 0
 297.336 379 291.336 379 289.336 379 c 1
 287.336 364 280.336 310 280.336 310 c 1
 278.336 295 277.336 283 279.336 276 c 0
 280.336 271 298.336 268 303.336 268 c 1
 304.336 265 303.336 255 301.336 253 c 1
 285.336 254 266.336 256 250.336 256 c 0
 234.336 256 212.336 254 196.336 253 c 1
 194.336 255 196.336 265 198.336 268 c 1
 203.336 268 223.336 271 225.336 276 c 0
 229.336 283 229.336 295 231.336 310 c 2
 251.336 471 l 2
 253.336 486 255.336 498 253.336 505 c 0
 252.336 510 233.336 512 228.336 512 c 1
 227.336 515 228.336 525 230.336 527 c 1
 247.336 526 268.336 526 284.336 526 c 0
 300.336 526 319.336 527 341.336 527 c 0
365.336 447 m 0
 369.336 482 360.336 509 326.336 509 c 0
 319.336 509 308.336 509 306.336 505 c 0
 304.336 500 303.336 489 301.336 476 c 2
 291.336 398 l 1
 291.336 398 304.336 398 308.336 398 c 0
 337.336 398 361.336 415 365.336 447 c 0
110.336 384 m 0
 94.3359 254 178.336 149 299.336 149 c 0
 420.336 149 530.336 254 546.336 384 c 0
 562.336 514 477.336 618 356.336 618 c 0
 235.336 618 126.336 514 110.336 384 c 0
73.3359 384 m 0
 92.3359 535 220.336 657 360.336 657 c 0
 500.336 657 600.336 535 581.336 384 c 0
 562.336 233 433.336 111 293.336 111 c 0
 153.336 111 54.3359 233 73.3359 384 c 0
EndSplineSet
Validated: 33
EndChar

StartChar: macron
Encoding: 175 175 108
Width: 261
Flags: W
HStem: 552 38<16.403 249.869>
VStem: 15 236.5<552.288 589.712>
LayerCount: 2
Fore
SplineSet
24 590 m 9
 246.5 590 l 2
 249.5 590 251.5 585 251.5 581 c 0
 251.5 573 246.5 558 240.5 552 c 1
 20 552 l 2
 17 552 15 558 15 563 c 0
 15 569 20 584 24 590 c 9
EndSplineSet
Validated: 1
EndChar

StartChar: degree
Encoding: 176 176 109
Width: 274
VWidth: 512
Flags: W
HStem: 431 41.5<137.357 221.286> 599.5 41<154.017 238.309>
VStem: 89.6934 196.5
LayerCount: 2
Fore
SplineSet
129.193 530.5 m 0
 125.693 498.5 145.193 472.5 175.693 472.5 c 0
 209.693 472.5 243.193 505 246.693 542.5 c 0
 250.193 574.5 230.693 599.5 200.193 599.5 c 0
 166.193 599.5 132.693 569 129.193 530.5 c 0
89.6934 527 m 0
 95.6934 590 152.693 640.5 207.693 640.5 c 0
 258.193 640.5 292.193 599 286.193 546 c 0
 280.193 484.5 223.693 431 167.693 431 c 0
 117.193 431 83.6934 474 89.6934 527 c 0
EndSplineSet
Validated: 33
EndChar

StartChar: plusminus
Encoding: 177 177 110
Width: 499
VWidth: 512
Flags: W
HStem: 16 47<5.46436 409.598> 306.5 47<62.4644 235 295 466.598>
LayerCount: 2
Fore
SplineSet
408 63 m 2
 410 63 411 60 411 55 c 0
 411 42 409.5 28 398.5 16 c 1
 8 16 l 2
 5 16 3 19 3 24 c 0
 3 37 7 50 17 63 c 1
 408 63 l 2
64.5 306.5 m 2
 61.5 306.5 60 309.5 60 314.5 c 0
 60 327.5 64 340.5 74 353.5 c 1
 243 353.5 l 1
 276.5 526.5 l 2
 279 539.5 317.5 542.5 321.5 542.5 c 0
 329.5 542.5 331.5 538.5 330.5 534.5 c 2
 295 353.5 l 1
 464.5 353.5 l 2
 466.5 353.5 468 350.5 468 345.5 c 0
 468 332.5 466.5 318.5 455.5 306.5 c 1
 287 306.5 l 1
 252.5 130.5 l 2
 250.5 120.5 229 114.5 213 114.5 c 0
 203 114.5 199 118.5 199.5 122.5 c 2
 235 306.5 l 1
 64.5 306.5 l 2
EndSplineSet
Validated: 1
EndChar

StartChar: uni00B2
Encoding: 178 178 111
Width: 343
Flags: W
HStem: 254.5 65<131.764 264.5> 595.5 49.755<170.882 243.957>
VStem: 253.5 84<491.726 586.303>
LayerCount: 2
Fore
SplineSet
337.5 558.5 m 0
 337.5 503.253 289.149 452.453 246.5 413 c 0
 204.387 373.277 151.155 333 131.764 319.5 c 1
 237 319.5 l 2
 268 319.5 282.742 345.949 295.536 369.756 c 0
 297.146 372.781 300.671 374.5 304.5 374.5 c 0
 307.719 374.5 317.195 370.609 318.5 369 c 1
 304.573 339.559 269.939 265.488 264.5 254.5 c 9
 264.5 254.5 51.1367 254.5 49.002 254.5 c 1
 47.3926 256.61 45 266.171 45 269.5 c 1
 89.2715 311.245 146.047 365.642 192.536 417.072 c 0
 233.771 463.049 253.5 504 253.5 541 c 0
 253.5 574.075 231.94 595.5 200.999 595.5 c 0
 157.936 595.5 131.361 558.312 123.788 549.713 c 1
 120.154 549.713 111.714 559.872 113.019 567.092 c 1
 123.872 586.215 174 645.255 241 645.255 c 0
 295.759 645.255 337.5 610 337.5 558.5 c 0
EndSplineSet
Validated: 1
EndChar

StartChar: uni00B3
Encoding: 179 179 112
Width: 326
Flags: W
HStem: 246 31<119.672 192.21> 445.5 22.5<138.264 172.317> 601 45<168.27 238.058>
VStem: 229.697 82<329.555 436.435> 243.197 67.5<522.416 595.665>
LayerCount: 2
Fore
SplineSet
235.197 646 m 0xe8
 266.197 646 310.697 628.5 310.697 574.5 c 0xe8
 310.697 525 255.197 492 228.697 481 c 1
 259.697 479 311.697 453.5 311.697 398 c 0
 311.697 295 188.197 246 124.197 246 c 0
 90.6973 246 60.6973 254.5 48.6973 265 c 1
 46.1973 270 43.1973 280.5 44.1973 289 c 0
 45.6973 307 62.1973 330 80.6973 330 c 0
 99.6973 330 106.697 313.5 115.197 298.5 c 0
 124.197 283 139.197 277 154.697 277 c 0
 189.697 277 229.697 318 229.697 379 c 0xf0
 229.697 417 210.697 449 172.697 449 c 0
 164.697 449 149.697 448 141.197 445.5 c 1
 139.697 448.5 138.197 450.5 138.197 454.5 c 0
 138.197 457.5 138.697 466 139.697 468 c 1
 179.697 474.5 243.197 501.5 243.197 556 c 0
 243.197 578.5 230.197 601 200.197 601 c 0
 164.697 601 136.197 562 130.697 557.5 c 1
 126.697 558 117.697 568.5 120.197 576.5 c 1
 150.197 617.5 190.197 646 235.197 646 c 0xe8
EndSplineSet
Validated: 1
EndChar

StartChar: acute
Encoding: 180 180 113
Width: 212
VWidth: 512
Flags: W
HStem: 524.5 162.5
VStem: 76.0293 182.5
LayerCount: 2
Fore
SplineSet
223.529 687 m 0
 253.529 687 259.529 670.5 258.529 662 c 0
 254.529 624 96.5293 524.5 87.5293 524.5 c 0
 81.5293 524.5 75.5293 536.5 76.0293 541.5 c 0
 76.5293 549 152.529 644 183.029 674 c 0
 193.029 683.5 208.029 687 223.529 687 c 0
EndSplineSet
Validated: 33
EndChar

StartChar: paragraph
Encoding: 182 182 115
Width: 522
Flags: W
HStem: -86 44.5<178.631 258.94> 622 37<337.608 392.731 491.11 554>
VStem: 66 209<355.996 525.801>
LayerCount: 2
Fore
SplineSet
306.388 659 m 0
 361.388 659 411.444 656 447.444 656 c 0
 484.944 656 522.5 659 560.5 662 c 1
 564 656.5 559.5 635 554 629 c 1
 542.5 628.5 500.943 624 494.943 612 c 0
 485.443 594 479.037 564.576 472.443 528 c 1
 456.443 435 422.38 253 410.38 190 c 1
 378.381 26 274.381 -86 194.381 -86 c 0
 162.881 -86 139.381 -75 130.381 -64.5 c 1
 127.881 -57.9072 126.053 -49.1855 126.424 -40 c 0
 127.841 -17.2363 139.663 4.5 159.881 4.5 c 0
 176.881 4.5 188.881 -5.5 199.881 -19 c 0
 207.881 -29 216.881 -41.5 232.881 -41.5 c 0
 271.881 -41.5 284.381 27 315.381 186 c 1
 382.83 537 l 2
 388.721 567 394.83 600 392.83 612 c 0
 390.83 621 381.5 622 373.941 622 c 0
 329.5 622 275 535 275 448.5 c 0
 275 381 291 343.5 323 325 c 1
 325 324 330 318 330 316 c 0
 330 291 268.387 273 237.388 273 c 0
 115.388 273 66 369 66 440 c 0
 66 584 221.388 659 306.388 659 c 0
EndSplineSet
Validated: 33
EndChar

StartChar: periodcentered
Encoding: 183 183 116
Width: 230
VWidth: 512
Flags: W
HStem: 196.5 133.5<76.4939 148.773>
VStem: 51 125<223.694 303.471>
LayerCount: 2
Fore
SplineSet
51 251 m 0
 51 293 89.5 330 127 330 c 1
 156 330 176 307.5 176 278 c 0
 176 237.5 139 196.5 101.5 196.5 c 1
 71.5 196.5 51 220.5 51 251 c 0
EndSplineSet
Validated: 1
EndChar

StartChar: cedilla
Encoding: 184 184 117
Width: 284
VWidth: 512
Flags: W
HStem: -157.5 23.5<94.2219 153.529> -63 35<148 164.047>
VStem: 166.5 44.5<-120.89 -63.6197>
LayerCount: 2
Fore
SplineSet
145.5 -4 m 1
 169.5 -4 l 9
 148 -28 l 25
 167.5 -28 l 2
 190.5 -28 211 -46 211 -70.5 c 0
 211 -114 163.5 -157.5 99 -157.5 c 3
 87 -157.5 68.5 -152.5 63 -148 c 1
 62 -145.5 61 -142 61 -139 c 0
 61 -123.5 71.5 -115.5 78 -115.5 c 3
 93 -115.5 99.5 -134 121 -134 c 3
 147 -134 166.5 -117 166.5 -93.5 c 0
 166.5 -72.5 152 -63 140 -63 c 0
 129.5 -63 123.5 -66 113 -70.5 c 0
 111 -70.5 102 -63.5 102 -59 c 0
 102 -54.5 120.5 -38.5 145.5 -4 c 1
EndSplineSet
Validated: 1
EndChar

StartChar: uni00B9
Encoding: 185 185 118
Width: 260
Flags: W
LayerCount: 2
Fore
SplineSet
123.632 533.5 m 1
 124.632 548.5 122.132 561.834 116.632 564 c 0
 112.632 564.5 100.213 561.194 95.6318 559 c 1
 122.113 572.975 162.15 601.031 164.07 605.031 c 1
 164.07 605.531 165.183 608.031 165.683 608.531 c 1
 203.52 623.531 246.632 640.243 247.632 638.712 c 1
 247.632 638.712 243.132 628.5 239.558 609.924 c 2
 241.558 609.924 221.802 483.124 221.802 481.624 c 1
 217.238 465.867 208.933 439.636 205.238 411.867 c 1
 205.544 408.499 208.357 310.742 210.5 310.742 c 1
 209.919 301.742 207.857 282.144 210.052 276.5 c 0
 212.745 270.469 227.438 266.112 229.632 265.5 c 1
 219.302 266.112 189.62 254.531 177.788 254.031 c 1
 155.457 254.531 116.351 255.113 93.7129 254.5 c 1
 81.4873 256.031 57.9688 264.242 48 263.742 c 1
 50.3691 265.242 73.1016 279.499 76.1318 282.867 c 1
 82.3896 288.992 99.499 297.367 104.532 307.323 c 1
 107.532 310.323 132.132 424 133.132 429.5 c 2
 136.632 448 137.632 453 134.132 458.5 c 1
 126.745 458.5 127.632 535 123.632 533.5 c 1
EndSplineSet
Validated: 33
EndChar

StartChar: ordmasculine
Encoding: 186 186 119
Width: 350
Flags: W
HStem: 249 26<151.698 203.837> 527.5 25.5<200.186 251.488>
VStem: 61 76.027<279.512 433.772> 264.905 76.029<369.681 523.609>
LayerCount: 2
Fore
SplineSet
232.971 527.5 m 0
 173.346 527.5 137.027 421 137.027 349.5 c 0
 137.027 313.5 146.527 275 171.506 275 c 0
 230.63 275 264.905 382.5 264.905 451.5 c 0
 264.905 490.5 256.527 527.5 232.971 527.5 c 0
241.768 553 m 0
 302.605 553 340.934 521 340.934 451.5 c 0
 340.934 355 245.438 249 158.037 249 c 0
 97.2002 249 61 286 61 348 c 0
 61 444.5 154.367 553 241.768 553 c 0
EndSplineSet
Validated: 1
EndChar

StartChar: guillemotright
Encoding: 187 187 120
Width: 308
VWidth: 512
Flags: W
VStem: 17 257
LayerCount: 2
Fore
SplineSet
79.5 404.5 m 1
 85 414 98.5 421 104.5 423 c 1
 121.5 401.5 184.5 328 267.5 265.5 c 1
 272 261.5 274.5 256.5 274 251 c 0
 273.5 243 267.5 235.5 262 231.5 c 1
 138 160.5 75 102.5 37 73 c 1
 32.5 74 19 80.5 17 90 c 1
 22 99 158 229.5 178.5 247.5 c 1
 165 265.5 81 397.5 79.5 404.5 c 1
76.5 404.5 m 1
 82 414 95 421 101 423 c 1
 118 401.5 181.5 328 264.5 265.5 c 1
 269 261.5 271.5 256.5 271 251 c 0
 270.5 243 264.5 235.5 259 231.5 c 1
 135 160.5 71.5 102.5 33.5 73 c 1
 29 74 16 80.5 14 90 c 1
 19 99 155 229.5 175.5 247.5 c 1
 162 265.5 78 397.5 76.5 404.5 c 1
EndSplineSet
Validated: 5
EndChar

StartChar: onequarter
Encoding: 188 188 121
Width: 669
VWidth: 512
Flags: W
HStem: -1.5 21G<131.625 171.718 499.125 517.125> 108 44<391.125 493.125 574.625 611.969> 253.5 22.742<46.6018 96.9943 184.244 228.776>
LayerCount: 2
Fore
SplineSet
608.625 402.5 m 0
 614.625 402.5 621.625 392 620.625 387 c 2
 574.625 152 l 25
 608.625 152 l 18
 612.625 152 613.125 140.5 612.125 131.5 c 0
 611.625 123 606.625 112 604.125 108 c 1
 566.125 108 l 25
 546.125 2 l 1
 546.125 2 528.125 -1.5 506.125 -1.5 c 0
 492.125 -1.5 471.625 0 472.625 4 c 2
 493.125 108 l 25
 330.125 108 l 1
 326.125 110 324.625 118.5 325.625 122.5 c 1
 588.625 394 l 2
 594.125 399.5 604.625 402.5 608.625 402.5 c 0
530.125 298 m 25
 391.125 152 l 25
 501.125 152 l 25
 530.125 298 l 25
93.625 549 m 1
 90.125 551.5 87.625 561.334 87.625 565.5 c 0
 87.625 566.5 88.7061 569.694 90.625 571 c 1
 150.106 600.475 228.143 639.031 245.063 647.031 c 1
 246.675 647.031 l 2
 250.012 647.031 252.125 635.743 251.625 630.212 c 1
 251.625 630.212 238.125 603 228.05 550.424 c 2
 188.294 342.624 l 2
 184.231 322.367 181.925 301.136 182.231 291.367 c 0
 182.537 279.499 226.85 276.242 230.993 276.242 c 0
 232.912 276.242 231.85 265.644 231.044 261.5 c 0
 230.237 258.469 229.431 254.613 228.625 253.5 c 1
 206.294 254.613 152.113 257.031 129.781 257.031 c 0
 107.45 257.031 68.8428 254.613 45.7061 253.5 c 1
 43.4805 256.531 46.9619 276.242 49.9932 276.242 c 0
 56.8613 276.242 94.0938 280.999 98.625 289.367 c 0
 103.382 298.992 105.992 311.367 108.025 323.323 c 2
 144.625 510 l 2
 151.625 546.5 156.125 566.5 145.625 566.5 c 0
 136.238 566.5 103.125 553 93.625 549 c 1
606.125 629.5 m 2
 157.625 -7 l 1
 157.625 -7 131.625 -7 131.625 4 c 0
 131.625 6 132.625 8 133.625 10 c 26
 583.125 646.5 l 1
 583.125 646.5 607.125 645.5 607.125 634.5 c 0
 607.125 632.5 607.125 630.5 606.125 629.5 c 2
EndSplineSet
Validated: 33
EndChar

StartChar: onehalf
Encoding: 189 189 122
Width: 718
VWidth: 512
Flags: W
HStem: 0 65<469.854 602.589> 253.5 22.742<46.6018 96.9943 184.244 228.776> 341 49.755<508.971 582.046>
VStem: 591.589 84<237.226 331.803>
LayerCount: 2
Fore
SplineSet
675.589 304 m 0
 675.589 248.753 627.238 197.953 584.589 158.5 c 0
 542.477 118.777 489.244 78.5 469.854 65 c 1
 575.089 65 l 2
 606.089 65 620.831 91.4492 633.625 115.256 c 0
 635.235 118.281 638.76 120 642.589 120 c 0
 645.808 120 655.284 116.109 656.589 114.5 c 1
 642.661 85.0586 608.028 10.9883 602.589 0 c 9
 602.589 0 389.225 0 387.091 0 c 1
 385.482 2.10938 383.089 11.6699 383.089 15 c 1
 427.359 56.7451 484.135 111.142 530.625 162.572 c 0
 571.859 208.549 591.589 249.5 591.589 286.5 c 0
 591.589 319.575 570.03 341 539.089 341 c 0
 496.025 341 469.449 303.811 461.876 295.213 c 1
 458.242 295.213 449.802 305.372 451.107 312.592 c 1
 461.961 331.715 512.089 390.755 579.089 390.755 c 0
 633.848 390.755 675.589 355.5 675.589 304 c 0
93.625 549 m 1
 90.125 551.5 87.625 561.334 87.625 565.5 c 0
 87.625 566.5 88.7061 569.694 90.625 571 c 1
 150.106 600.475 228.143 639.031 245.063 647.031 c 1
 246.675 647.031 l 2
 250.012 647.031 252.125 635.743 251.625 630.212 c 1
 251.625 630.212 238.125 603 228.05 550.424 c 2
 188.294 342.624 l 2
 184.231 322.367 181.925 301.136 182.231 291.367 c 0
 182.537 279.499 226.85 276.242 230.993 276.242 c 0
 232.912 276.242 231.85 265.644 231.044 261.5 c 0
 230.237 258.469 229.431 254.613 228.625 253.5 c 1
 206.294 254.613 152.113 257.031 129.781 257.031 c 0
 107.45 257.031 68.8428 254.613 45.7061 253.5 c 1
 43.4805 256.531 46.9619 276.242 49.9932 276.242 c 0
 56.8613 276.242 94.0938 280.999 98.625 289.367 c 0
 103.382 298.992 105.992 311.367 108.025 323.323 c 2
 144.625 510 l 2
 151.625 546.5 156.125 566.5 145.625 566.5 c 0
 136.238 566.5 103.125 553 93.625 549 c 1
606.125 629.5 m 2
 157.625 -7 l 1
 157.625 -7 131.625 -7 131.625 4 c 0
 131.625 6 132.625 8 133.625 10 c 26
 583.125 646.5 l 1
 583.125 646.5 607.125 645.5 607.125 634.5 c 0
 607.125 632.5 607.125 630.5 606.125 629.5 c 2
EndSplineSet
Validated: 33
EndChar

StartChar: threequarters
Encoding: 190 190 123
Width: 678
VWidth: 512
Flags: W
HStem: -1.5 21G<132.197 172.29 509.197 527.197> 108 44<401.197 503.197 584.697 622.041> 246 31<109.672 182.21> 445.5 22.5<128.264 162.317> 601 45<158.27 228.058>
VStem: 219.697 82<329.555 436.435> 233.197 67.5<522.416 595.665>
LayerCount: 2
Fore
SplineSet
618.697 402.5 m 0xf8
 624.697 402.5 631.697 392 630.697 387 c 2
 584.697 152 l 25
 618.697 152 l 18
 622.697 152 623.197 140.5 622.197 131.5 c 0
 621.697 123 616.697 112 614.197 108 c 1
 576.697 108 l 25
 556.197 2 l 1
 556.197 2 538.197 -1.5 516.197 -1.5 c 0
 502.197 -1.5 482.197 0 483.197 4 c 2
 503.197 108 l 25
 340.197 108 l 1
 336.197 110 334.697 118.5 335.697 122.5 c 1
 598.697 394 l 2
 604.197 399.5 614.697 402.5 618.697 402.5 c 0xf8
540.197 298 m 25
 401.197 152 l 25
 511.197 152 l 25
 540.197 298 l 25
225.197 646 m 0
 256.197 646 300.697 628.5 300.697 574.5 c 0xfa
 300.697 525 245.197 492 218.697 481 c 1
 249.697 479 301.697 453.5 301.697 398 c 0
 301.697 295 178.197 246 114.197 246 c 0
 80.6973 246 50.6973 254.5 38.6973 265 c 1
 36.1973 270 33.1973 280.5 34.1973 289 c 0
 35.6973 307 52.1973 330 70.6973 330 c 0
 89.6973 330 96.6973 313.5 105.197 298.5 c 0
 114.197 283 129.197 277 144.697 277 c 0
 179.697 277 219.697 318 219.697 379 c 0xfc
 219.697 417 200.697 449 162.697 449 c 0
 154.697 449 139.697 448 131.197 445.5 c 1
 129.697 448.5 128.197 450.5 128.197 454.5 c 0
 128.197 457.5 128.697 466 129.697 468 c 1
 169.697 474.5 233.197 501.5 233.197 556 c 0xfa
 233.197 578.5 220.197 601 190.197 601 c 0
 154.697 601 126.197 562 120.697 557.5 c 1
 116.697 558 107.697 568.5 110.197 576.5 c 1
 140.197 617.5 180.197 646 225.197 646 c 0
606.697 629.5 m 2
 158.197 -7 l 1
 158.197 -7 132.197 -7 132.197 4 c 0
 132.197 6 133.197 8 134.197 10 c 26
 583.697 646.5 l 1
 583.697 646.5 607.697 645.5 607.697 634.5 c 0
 607.697 632.5 607.697 630.5 606.697 629.5 c 2
EndSplineSet
Validated: 33
EndChar

StartChar: questiondown
Encoding: 191 191 124
Width: 337
VWidth: 512
Flags: W
HStem: -208.5 61<45.1674 122.732> 315.5 127<190.812 261.889>
VStem: -26 62<-139.151 -46.345> 166.5 118<338.074 418.634> 171.5 81<122.717 189.307>
LayerCount: 2
Fore
SplineSet
284.5 384 m 0xf0
 281 346.5 248 315.5 214 315.5 c 1
 184 315.5 163 340.5 166.5 372 c 0
 170 409 204 442.5 238 442.5 c 1
 269 442.5 288 415.5 284.5 384 c 0xf0
135 224 m 1
 135 229 141.5 239 146.5 242 c 1
 170.5 242 252.5 193.5 252.5 137.5 c 3
 252.5 83.5 213.5 59 187.5 41 c 0
 150.5 15.5 113.5 -1.5 74.5 -31.5 c 0
 54.5 -47 36 -66.5 36 -98 c 3
 36 -129.5 53 -147.5 80.5 -147.5 c 0
 117.5 -147.5 133 -99 167 -99 c 0
 204.5 -99 213 -140.5 205.5 -168.5 c 1
 197 -183.5 163.5 -208.5 121 -208.5 c 0
 42 -208.5 -26 -139 -26 -71 c 0
 -26 -22.5 -13.5 14 40 52.5 c 0
 60 68.5 96 85 135.5 112 c 0
 159 127.5 171.5 144 171.5 166 c 3xe8
 171.5 195 144.5 217.5 135 224 c 1
EndSplineSet
Validated: 33
EndChar

StartChar: AE
Encoding: 198 198 131
Width: 827
VWidth: 512
Flags: W
HStem: -3.5 31.5<-60.7466 -7.94695 95.2337 143.153 289.581 349.907> -0.144531 43.1445<482.063 674.974> 282 46.5<265.292 391.791> 299 45.5<507.421 639.847> 618 46<368.397 392.846 572.09 725.815> 618 38.5<369.816 393.805 534.172 689.619>
VStem: 662.315 28.5<221.566 284.627> 755.315 32.5<518.148 578.392>
LayerCount: 2
Fore
SplineSet
484.815 656.5 m 1xa7
 547.815 656.5 708.815 663.5 786.815 664 c 1
 786.315 614 786.815 567.5 787.815 523 c 1
 784.815 520 775.315 518 768.315 518 c 0
 761.815 518 755.815 520.5 755.315 525.5 c 0
 746.315 592 714.315 618 669.315 618 c 2
 601.315 618 l 2
 571.815 618 541.315 617 536.315 605.5 c 0
 529.315 586 526.815 559.5 523.315 526 c 2
 506.815 353 l 2
 506.315 347 522.815 344.5 541.815 344.5 c 2
 582.815 344.5 l 2
 652.815 344.5 658.315 351.5 684.315 415 c 0
 686.315 420 690.815 422.5 697.315 422.5 c 0
 704.315 422.5 711.315 420.5 713.315 417.5 c 1
 705.315 386 693.315 257 690.815 225.5 c 1
 688.315 223.5 681.315 221.5 674.815 221.5 c 0
 668.315 221.5 662.815 224 662.315 229 c 0
 657.815 281.5 647.815 286.5 640.315 291.5 c 0
 630.815 297.5 590.815 299 555.815 299 c 0
 529.815 299 501.815 297.5 500.815 287 c 2
 486.815 147.5 l 2
 486.315 143.5 479.315 77 482.315 62.5 c 0
 484.315 50 502.315 43 541.815 43 c 2
 580.315 43 l 2
 615.315 43 655.315 49.5 681.315 68 c 0
 702.315 83.5 722.815 117 745.815 166 c 0
 747.815 170 753.315 172 760.315 172 c 0
 769.315 172 782.315 169 784.315 166 c 1
 758.815 112 726.815 41 713.815 -3 c 1
 650.418 -3 519.642 0 414.315 -0.144531 c 0x5b
 351.66 -0.21875 294.41 -2.83105 288.315 -3 c 1
 285.315 2.5 287.815 28 292.815 32.5 c 1
 304.315 33 354.315 39.5 360.315 50.5 c 0
 371.06 69.7178 376.151 108.758 380.879 157.5 c 1
 382.737 176.068 390.194 256.355 391.815 275 c 1
 391.315 278 389.815 281 386.815 281 c 0
 356.815 282.5 324.315 282 312.815 282 c 1
 293.815 282 265.815 282 236.315 281 c 0
 233.315 281 230.315 279 228.815 277 c 2
 228.815 277 138.815 147 129.315 133 c 1
 103.815 95.5 88.3154 67.5 87.3154 58.5 c 0
 83.8154 37.5 135.315 28.5 143.815 28.5 c 1
 145.815 25 144.315 1 140.815 -3.5 c 1
 106.315 -0.5 78.8154 3 37.8154 3 c 0
 -5.18457 3 -23.1846 -0.5 -61.1846 -3.5 c 1
 -63.1846 -1 -64.6846 22.5 -59.1846 28 c 1
 -48.1846 28 -5.68457 40 7.81543 54.5 c 0
 34.3154 81.5 50.8154 104 73.3154 136.5 c 2
 387.315 588 l 1
 388.815 590 393.815 598.951 393.815 604.5 c 0
 393.815 615 380.315 624 366.315 624 c 1
 363.315 627.5 365.815 652 368.815 658 c 1
 389.315 656.5 465.315 656.5 484.815 656.5 c 1xa7
420.815 557 m 1
 265.315 334.5 l 1
 264.815 334 264.815 330.5 266.815 330.5 c 0
 285.315 329 306.815 328.5 325.315 328.5 c 0x23
 349.815 328.5 368.315 328.5 392.815 330.5 c 1
 393.815 330.5 398.315 335.5 398.315 335.5 c 1
 398.315 335.5 420.315 549.5 420.815 557 c 1
EndSplineSet
Validated: 33
EndChar

StartChar: Eth
Encoding: 208 208 141
Width: 701
Flags: W
HStem: -3 38.5<-1.28337 68.1202 184.58 357.103> 308.5 37.5<61.1382 401.318> 622 37<118.477 175.462 287.763 439.313>
LayerCount: 2
Fore
SplineSet
69.2266 346 m 1
 97.2266 346 386.227 346 399.227 346 c 0
 403.227 346 405.227 342 404.227 338 c 0
 403.227 333 398.727 315.5 393.727 308.5 c 1
 365.727 308.5 75.7266 308.5 62.7266 308.5 c 0
 58.7266 308.5 58.7266 315.5 59.7266 319.5 c 0
 60.7266 324.5 62.2266 339 69.2266 346 c 1
EndSplineSet
Refer: 35 68 N 1 0 0 1 5.91278e-05 0 2
Validated: 5
EndChar

StartChar: multiply
Encoding: 215 215 148
Width: 422
Flags: W
HStem: 214 64<195.484 213.5>
VStem: 174 64.5<228.625 261.5>
LayerCount: 2
Fore
SplineSet
32 69 m 0
 26 69 18 94.5 18 110.5 c 1
 172 245.5 l 2
 173 246.5 174 247.5 174 248.5 c 0
 174 250.5 172 254.5 171 255.5 c 2
 72 390.5 l 1
 72 404.5 96.5 425 101.5 425 c 0
 104.5 425 103.5 423 105.5 421 c 2
 209.5 280 l 2
 210.5 279 212.5 278 213.5 278 c 2
 215.5 279 l 26
 373.5 420 l 2
 375.5 422 377.5 423 379.5 423 c 0
 386.5 423 393.5 398.5 393.5 380.5 c 1
 240.5 244.5 l 2
 239.5 243.5 238.5 243.5 238.5 242.5 c 3
 238.5 241.5 238.5 241.5 239.5 240.5 c 2
 339.5 104.5 l 1
 339.5 90.5 322 69 315 69 c 0
 311 69 309 70 308 72 c 2
 205 212 l 2
 204 213 203 214 202 214 c 0
 201 214 199 213 198 212 c 2
 37 72 l 2
 35 70 34 69 32 69 c 0
EndSplineSet
Validated: 1
EndChar

StartChar: Oslash
Encoding: 216 216 149
Width: 707
Flags: W
HStem: -10.5 39.5<256.735 400.432> 626.5 39.5<335.693 471.366>
VStem: 55 119<153.692 402.639> 556.5 119<247.542 501.501>
LayerCount: 2
Fore
SplineSet
404 626.5 m 1
 272 626.5 174 443.5 174 256 c 0
 174 141 211 29 327 29 c 1
 471 29 556.5 229.5 556.5 401.5 c 0
 556.5 507 519.502 626.5 404 626.5 c 1
419.5 666 m 0
 580.5 666 675.5 530 675.5 385.5 c 0
 675.5 140.5 486 -10.5 307 -10.5 c 0
 156 -10.5 55 117 55 269 c 0
 55 508.5 245.828 666 419.5 666 c 0
106.086 -13 m 21
 98.086 -10 78.086 5 83.086 11 c 13
 599.086 668 l 21
 607.086 666 628.086 651 623.086 645 c 13
 106.086 -13 l 21
EndSplineSet
Validated: 37
EndChar

StartChar: Thorn
Encoding: 222 222 155
Width: 531
Flags: W
HStem: -3.5 33<-4.09374 64.9227 182.836 238.492> 134 41<231.347 332.508> 469.5 42.5<270.564 369.496> 628 33<119.561 174.734 292.298 360.676>
VStem: 174.734 93.002<503.156 606.802>
LayerCount: 2
Fore
SplineSet
350.918 512 m 0
 448.418 512 537.524 429.5 515.07 314.5 c 0
 496.386 217.536 396.918 134 284.918 134 c 0
 257.918 134 236.918 146 229.418 156.5 c 0
 227.124 159.611 225.496 170.798 225.552 176.5 c 0
 225.587 180.543 226.899 183.481 228.625 183 c 1
 239.918 177 251.125 175 271.125 175 c 0
 324.625 175 384.727 221.5 400.07 300 c 0
 417.215 388.972 388.418 469.5 318.918 469.5 c 0
 303.211 469.5 280.918 467 268.418 457 c 0
 258.394 448.633 251.933 434.5 246.64 408.5 c 2
 193.234 130.5 l 2
 186.418 94 179.734 64.5 182.734 46.5 c 0
 184.234 34.5 229.734 30 241.234 29.5 c 1
 244.234 23.5 240.234 2 234.734 -3.5 c 1
 198.234 -0.5 152.734 2.5 115.234 2.5 c 0
 77.7344 2.5 31.2344 -0.5 -6.76562 -3.5 c 1
 -10.2656 2 -5.76562 23.5 -0.265625 29.5 c 1
 11.2344 30 59.2344 34.5 65.2344 46.5 c 0
 74.7344 64.5 80.418 94 87.2344 130.5 c 2
 164.734 528 l 2
 171.418 564.5 177.734 594 174.734 612 c 0
 173.234 624 127.234 627.5 115.734 628 c 1
 112.734 634 117.234 655.5 122.734 661 c 1
 162.234 658.5 205.734 657 243.234 657 c 0
 280.734 657 326.234 660 364.234 663 c 1
 367.734 657.5 363.234 636 357.734 630 c 1
 346.234 629.5 298.357 625.156 292.734 613 c 0
 283.418 592.5 275.236 555 268.736 520 c 0
 267.736 515.5 267.236 506.5 267.736 504.5 c 0
 268.236 502 269.29 501.176 271.236 501.5 c 0
 289.918 507 315.918 512 350.918 512 c 0
EndSplineSet
Validated: 33
EndChar

StartChar: germandbls
Encoding: 223 223 156
Width: 505
VWidth: 512
Flags: W
HStem: -225.5 44.5<-83.8037 -3.44612> -4 32<298.312 365.617> 377 41.5<44.6529 81.4463> 648.5 41.5<282.775 360.351>
VStem: 253.614 77.999<306.267 373.221> 379.613 77<57.045 137.029> 389.113 87.5<492.638 620.368>
LayerCount: 2
Fore
SplineSet
213.949 418.5 m 0xfa
 240.18 567.646 269.614 648.5 320.613 648.5 c 0
 366.613 648.5 389.113 588 389.113 551.5 c 0xfa
 389.113 493.5 356.113 454.5 334.613 432.5 c 0
 292.096 388.982 253.614 364.5 253.614 317 c 0
 253.614 271 276.727 240.6 305.613 204.5 c 0
 332.113 171.5 379.613 119 379.613 82 c 0
 379.613 50 359.613 28 331.613 28 c 0
 282.613 28 280.613 98 247.614 98 c 3
 226.447 98 205.697 83 204.614 55 c 0
 204.314 39.6328 212.114 27 216.114 21.5 c 1
 231.614 9 251.614 -4 311.613 -4 c 3
 390.613 -4 456.613 53 456.613 124.5 c 1xfc
 456.613 181.5 422.613 219.5 383.113 269 c 0
 360.977 296.883 331.613 329.5 331.613 356.5 c 3
 331.613 373.5 347.613 391.5 367.613 408.5 c 0
 397.497 433.318 476.613 476 476.613 571 c 0
 476.613 649.5 407.113 690 348.446 690 c 0
 268.446 690 150.446 582.5 118.446 418.5 c 1
 81.4463 418.5 l 2
 58.4463 418.5 34.4463 390 34.4463 380 c 0
 34.4463 378 35.4463 377 36.4463 377 c 2
 111.446 377 l 1
 53.4463 46.5 l 1
 22.4463 -112.5 9.44629 -181 -29.5537 -181 c 0
 -45.5537 -181 -54.5537 -168.5 -62.5537 -158.5 c 0
 -73.5537 -145 -85.5537 -135 -102.554 -135 c 0
 -122.631 -135 -134.452 -156.423 -135.938 -179 c 0
 -136.36 -188.347 -134.554 -197.246 -132.054 -204 c 1
 -123.054 -214.5 -99.5537 -225.5 -68.0537 -225.5 c 0
 11.9463 -225.5 115.946 -113.5 147.946 50.5 c 0
 171.946 176.5 188.446 274.5 213.949 418.5 c 0xfa
EndSplineSet
Validated: 41
EndChar

StartChar: ae
Encoding: 230 230 163
Width: 582
VWidth: 512
Flags: W
HStem: -8 62<64.5225 152.845> -6 71<313.793 400.923> 193.5 34.5<331.523 379.092> 404 38<174.419 274.495 399.324 503.773>
VStem: 60.0225 84.0005<299.739 369.135> 467.023 96.5<305.041 400.606>
LayerCount: 2
Fore
SplineSet
433.523 403 m 1x3c
 378.023 403 338.523 289.5 331.523 228 c 1
 370.523 228 467.023 289.5 467.023 363.5 c 1
 467.023 385 454.523 403 433.523 403 c 1x3c
224.903 99.4414 m 1
 223.337 106.857 231.656 193.508 234.63 204.923 c 1
 201.942 198.492 165.156 185.175 149.023 176.082 c 0
 120.248 160.061 105.022 134.314 103.522 112.5 c 1
 99.5225 75 122.023 54 146.023 54 c 1xbc
 172.019 54 219.574 90.9199 224.903 99.4414 c 1
253.523 442 m 1
 295.466 442 326.094 414.129 336.854 378.536 c 1
 373.701 415.35 426.124 442 474.023 442 c 0
 533.523 442 563.523 405.5 563.523 363.5 c 1
 563.523 268 395.523 198.5 327.523 193.5 c 1
 326.523 189 324.523 169.5 324.523 160.5 c 0
 324.523 110.5 341.023 65 390.023 65 c 1
 433.523 65 488.023 128.5 491.523 132 c 1
 497.523 132 504.523 114 505.023 107 c 1
 480.523 70.5 392.523 -6 335.523 -6 c 1x7c
 292.062 -6 250.247 19.0869 233.881 63.502 c 1
 217.726 47.043 119.991 -8 91.5225 -8 c 1
 37.5225 -8 -0.977539 36.5 4.52246 97 c 0
 8.52246 139.5 40.5225 175 64.5225 187 c 0
 90.0225 198 182.523 225 234.023 241.5 c 0
 240.089 243.316 240.242 249.018 242.023 260 c 2
 249.023 314 l 2
 250.279 322.182 250.437 330.892 250.437 337 c 1
 250.437 369 236.878 404 206.023 404 c 0
 174.523 404 159.523 374 144.023 333 c 0
 133.437 305.534 116.523 288.5 90.5225 288.5 c 0
 68.5225 288.5 57.5225 308.5 60.0225 327 c 0
 61.5225 340 68.5225 353 76.0225 364 c 1
 97.5225 383 182.523 442 253.523 442 c 1
EndSplineSet
Validated: 33
EndChar

StartChar: eth
Encoding: 240 240 173
Width: 451
VWidth: 0
Flags: W
HStem: -7 40<142.534 217.511> 403.5 40<200.358 284.961> 669 22.5<150.704 163.701>
LayerCount: 2
Fore
SplineSet
164.092 509 m 17
 160.092 516 150.092 536 155.092 541 c 9
 405.092 705 l 17
 409.092 699 420.092 679 415.092 674 c 9
 164.092 509 l 17
144.092 669 m 1
 145.092 676 152.592 691.5 159.592 691.5 c 1
 299.592 652.5 443.592 502.5 395.592 256.5 c 0
 366.592 108.5 255.092 -7 165.092 -7 c 0
 43.0918 -7 6.5918 100.5 27.5918 210.5 c 0
 48.5918 318.5 152.592 443.5 258.592 443.5 c 0
 284.092 443.5 304.592 435.5 313.092 426.5 c 1
 314.092 497.5 289.092 593 144.092 669 c 1
290.092 217 m 0
 301.092 272 305.092 335 301.092 350.5 c 0
 291.748 385.938 270.592 403.5 244.092 403.5 c 0
 184.092 403.5 146.592 310 129.592 217 c 0
 111.716 118.796 128.092 33 172.592 33 c 0
 231.592 33 271.092 119 290.092 217 c 0
EndSplineSet
Validated: 37
EndChar

StartChar: divide
Encoding: 247 247 180
Width: 523
VWidth: 0
Flags: W
HStem: 2 106<187.977 256.601> 223.5 49<43.6617 473.62> 387.5 106<261.693 330.59>
VStem: 175.5 95.5<15.1567 95.5989> 249.216 96<401.608 481.099>
LayerCount: 2
Fore
SplineSet
45.5 223.5 m 2xe0
 42.5 223.5 41 227.5 41 232.5 c 0
 41 244.5 46 262 53.5 272.5 c 1
 473 272.5 l 2
 475 272.5 476 269.5 476 264.5 c 0
 476 251.5 472 234.5 463.5 223.5 c 1
 45.5 223.5 l 2xe0
304.216 493.5 m 1
 327.716 493.5 345.216 474 345.216 450 c 1
 345.216 418 320.216 387.5 288.216 387.5 c 1
 264.216 387.5 249.216 409 249.216 433.5 c 1xe8
 249.216 465 272.716 493.5 304.216 493.5 c 1
230.5 108 m 1
 254 108 271 88.5 271 64.5 c 1
 271 32.5 246.5 2 214.5 2 c 1
 190.5 2 175.5 23.5 175.5 48 c 1xf0
 175.5 79.5 199 108 230.5 108 c 1
EndSplineSet
Validated: 1
EndChar

StartChar: oslash
Encoding: 248 248 181
Width: 435
Flags: W
HStem: -10 21G<69.8999 84.2222> -5.5 36<140.962 209.162> 406 36<206.432 277.425>
VStem: 20 101.5<50.7185 248.234> 293.5 101.5<186.394 387.924>
LayerCount: 2
Fore
SplineSet
72 -10 m 17xb8
 67.7998 -7.97461 51.2998 -0.849609 53.9248 3.2002 c 9
 324.825 446.675 l 17
 329.025 445.325 346.05 438.2 343.425 434.15 c 9
 72 -10 l 17xb8
EndSplineSet
Refer: 78 111 N 1 0 0 1 0 0 2
Validated: 5
EndChar

StartChar: thorn
Encoding: 254 254 187
Width: 473
Flags: W
HStem: -227 30.5<-52.7384 -12.2534> -218 28.5<113.888 160.27> -5 39.5<163.407 238.339> 372.5 69.5<279.646 378.583> 632.5 25<95.2796 151.794> 671.5 20G<243.583 257.083>
VStem: 155.583 105<550.684 675.5> 337.583 101.5<210.033 364.696>
LayerCount: 2
Fore
SplineSet
247.583 597.5 m 2xbf
 244.583 579 202.083 367.5 200.583 359.5 c 1
 228.083 387.5 295.583 442 346.583 442 c 0
 410.583 442 439.083 391 439.083 321 c 0
 439.083 159.5 290.083 -5 168.083 -5 c 0
 156.583 -5 139.083 -3 131.583 4 c 1
 102.084 -135.5 l 2
 100.084 -144.5 99.084 -153.5 99.084 -163.5 c 0
 99.084 -168.5 103.084 -183.5 113.084 -186.5 c 0
 130.083 -190.5 157.083 -189.5 160.083 -189.5 c 0
 164.083 -190.5 161.583 -217 156.583 -219 c 1
 143.583 -219 132.583 -218 121.584 -218 c 0x7f
 70.583 -218 7.08301 -220 -50.917 -227 c 1
 -55.917 -226 -54.417 -199.5 -49.417 -196.5 c 1
 -31.417 -196.5 -18.417 -191.5 -9.41699 -180.5 c 0
 -2.41699 -171.5 1.58301 -160.5 6.58301 -137.5 c 2
 83.584 241 l 1
 35.583 193 l 1
 31.583 198 29.083 210.5 29.083 216.5 c 0
 29.083 224 34.583 231 38.083 234 c 2
 93.084 289.5 l 1
 146.583 560.5 l 2
 150.083 578.5 155.583 602.5 155.583 613.5 c 0
 155.583 632.5 110.583 632.5 94.584 632.5 c 1
 91.584 636.5 94.584 653.5 98.584 657.5 c 1
 153.583 662.5 232.583 683.5 254.583 691.5 c 1
 259.583 688.5 260.583 678.5 260.583 672.5 c 0
 260.583 664.5 252.583 622 247.583 597.5 c 2xbf
291.583 372.5 m 0
 260.083 372.5 216.083 341.5 191.583 311.5 c 1
 189.083 298 157.583 140 157.583 140 c 2
 144.583 72 164.583 34.5 192.583 34.5 c 0
 270.583 34.5 337.583 199.5 337.583 301 c 0
 337.583 345 323.583 372.5 291.583 372.5 c 0
EndSplineSet
Validated: 33
EndChar

StartChar: dagger
Encoding: 8224 8224 190
Width: 369
Flags: W
HStem: 434.5 86<81.5469 135.997 317.141 368.682> 464 23<141.23 196.988 247.973 311.968> 642 20G<247.272 267.772>
VStem: 123.772 14.5<-14.7344 21.6058>
LayerCount: 2
Fore
SplineSet
184.272 487 m 8x70
 197.772 487 203.772 492 215.772 505 c 1
 221.772 538 226.272 606 212.272 625 c 1
 216.272 646 236.772 662 257.772 662 c 0
 277.772 662 297.272 646 293.272 625 c 1
 272.272 606 249.772 538 243.772 505 c 1
 250.772 492 256.772 487 268.772 487 c 0x70
 299.772 487 329.272 501.5 350.272 520.5 c 1
 370.272 520.5 379.272 498.5 377.272 478.5 c 0
 375.272 457.311 354.272 434.5 334.272 434.5 c 1xb0
 320.272 453.5 294.272 463.5 264.272 464 c 24
 248.772 464 233.772 448 231.772 436 c 1
 234.772 419 241.272 394 247.272 365 c 1
 200.272 227 189.272 178 138.272 -3 c 1
 134.772 -9.5 132.772 -15 128.772 -16 c 1
 125.272 -15 125.272 -7.5 123.772 -3 c 1
 143.272 178 151.272 227 157.272 365 c 1
 172.272 390 190.272 419 200.272 436 c 1
 202.272 448 193.772 464 179.772 464 c 24x70
 147.272 463.5 119.272 453.5 98.2725 434.5 c 1
 78.2725 434.5 69.2725 452.5 71.2725 473.5 c 0
 73.2725 494.689 95.2725 520.5 115.272 520.5 c 1xb0
 129.272 501.5 153.272 487 184.272 487 c 8x70
EndSplineSet
Validated: 33
EndChar

StartChar: daggerdbl
Encoding: 8225 8225 191
Width: 385
Flags: W
HStem: 125.5 86<28.2548 79.4722 260.491 315.668> 159 23<84.6452 148.69 199.386 256.585> 434.5 86<89.15 144.191 324.995 376.927> 464 23<148.097 205.011 255.542 319.775> 642 20G<257.841 278.341>
LayerCount: 2
Fore
SplineSet
238.841 281 m 1x18
 221.841 252 205.841 227 195.841 210 c 1
 193.841 198 202.841 182 217.341 182 c 24x58
 248.841 182.5 277.341 192.5 298.341 211.5 c 1
 318.341 211.5 329.841 191 325.841 170 c 0
 321.841 149 301.341 125.5 281.341 125.5 c 1x88
 267.341 144.5 243.841 159 212.841 159 c 0
 200.841 159 192.841 154 180.841 141 c 1
 174.841 108 169.341 40 183.341 21 c 1
 179.341 0 156.841 -16 136.841 -16 c 0
 115.841 -16 98.8408 0 102.841 21 c 1
 123.841 40 146.841 108 152.841 141 c 1
 145.841 154 140.341 159 127.841 159 c 16x48
 96.8408 159 67.3408 144.5 46.3408 125.5 c 1
 26.3408 125.5 15.8408 149 19.8408 170 c 0
 23.8408 191 43.3408 211.5 63.3408 211.5 c 1x88
 77.3408 192.5 101.341 182.5 132.341 182 c 24
 146.841 182 162.341 198 164.341 210 c 1
 161.341 227 153.341 256 148.341 281 c 1
 163.341 295.5 175.341 311.5 183.841 323.5 c 1
 180.341 335.5 173.341 349.5 164.841 365 c 1
 179.841 390 198.341 419 208.341 436 c 1
 210.341 448 201.841 464 187.341 464 c 24x58
 155.841 463.5 127.341 453.5 106.341 434.5 c 1
 86.3408 434.5 75.3408 455 79.3408 476 c 0
 83.3408 497 102.841 520.5 122.841 520.5 c 1x28
 136.841 501.5 160.841 487 191.841 487 c 8
 204.341 487 211.341 492 223.341 505 c 1
 229.341 538 234.341 606 220.341 625 c 1
 224.341 646 247.341 662 268.341 662 c 0
 288.341 662 304.841 646 300.841 625 c 1
 279.841 606 257.341 538 251.341 505 c 1
 258.341 492 264.341 487 276.341 487 c 0x18
 307.341 487 337.341 501.5 358.341 520.5 c 1
 378.341 520.5 389.341 497 385.341 476 c 0
 381.341 455 361.841 434.5 341.841 434.5 c 1x28
 327.841 453.5 303.341 463.5 272.341 464 c 24
 257.841 464 241.341 448 239.341 436 c 1
 242.341 419 248.841 394 254.841 365 c 1
 240.841 350.5 227.841 335 219.841 323.5 c 1
 222.341 313 227.841 297 238.841 281 c 1x18
EndSplineSet
Validated: 33
EndChar

StartChar: bullet
Encoding: 8226 8226 192
Width: 369
Flags: W
HStem: 139 248.5<139.456 227.881>
VStem: 68.4268 230
LayerCount: 2
Fore
SplineSet
68.4268 263 m 0
 81.4268 331 144.427 387.5 207.927 387.5 c 0
 271.427 387.5 311.427 331 298.427 263 c 0
 285.427 195 222.927 139 159.427 139 c 0
 95.9268 139 55.4268 195 68.4268 263 c 0
EndSplineSet
Validated: 33
EndChar

StartChar: uni2010
Encoding: 8208 8208 193
Width: 366
VWidth: 512
Flags: W
VStem: 50 255.5<207.969 264>
LayerCount: 2
Fore
SplineSet
72.5 264 m 2
 299.5 276 l 2
 304.5 276 305.5 269 305.5 264 c 0
 305.5 251 291 208 281 207 c 10
 55 196 l 2
 52 196 50 203 50 211 c 0
 50 222 61.5 263 72.5 264 c 2
EndSplineSet
Validated: 1
EndChar

StartChar: uni2011
Encoding: 8209 8209 194
Width: 366
VWidth: 512
Flags: W
VStem: 50 255.5<207.969 264>
LayerCount: 2
Fore
SplineSet
72.5 264 m 2
 299.5 276 l 2
 304.5 276 305.5 269 305.5 264 c 0
 305.5 251 291 208 281 207 c 10
 55 196 l 2
 52 196 50 203 50 211 c 0
 50 222 61.5 263 72.5 264 c 2
EndSplineSet
Validated: 1
EndChar

StartChar: figuredash
Encoding: 8210 8210 195
Width: 521
Flags: W
HStem: 197 68<57.8125 448.688>
LayerCount: 2
Fore
SplineSet
450 265 m 2
 455.5 265 456.5 257 456.5 250.5 c 0
 456.5 232.5 443 203 434.5 197 c 1
 56.5 197 l 2
 51 197 50 205 50 211.5 c 0
 50 229.5 63.5 259 72 265 c 1
 450 265 l 2
EndSplineSet
Validated: 1
EndChar

StartChar: endash
Encoding: 8211 8211 196
Width: 545
Flags: W
HStem: 197 68<57.8125 471.688>
LayerCount: 2
Fore
SplineSet
473 265 m 2
 478.5 265 479.5 257 479.5 250.5 c 0
 479.5 232.5 466 203 457.5 197 c 1
 56.5 197 l 2
 51 197 50 205 50 211.5 c 0
 50 229.5 63.5 259 72 265 c 1
 473 265 l 2
EndSplineSet
Validated: 1
EndChar

StartChar: emdash
Encoding: 8212 8212 197
Width: 840
Flags: W
HStem: 197 68<58.8125 767.188>
LayerCount: 2
Fore
SplineSet
768.5 265 m 2
 774 265 775 257 775 250.5 c 0
 775 232.5 761.5 203 753 197 c 1
 57.5 197 l 2
 52 197 51 205 51 211.5 c 0
 51 229.5 64.5 259 73 265 c 1
 768.5 265 l 2
EndSplineSet
Validated: 1
EndChar

StartChar: afii00208
Encoding: 8213 8213 198
Width: 1069
Flags: W
HStem: 197 68<59.8125 995.188>
LayerCount: 2
Fore
SplineSet
996.5 265 m 2
 1002 265 1003 257 1003 250.5 c 0
 1003 232.5 989.5 203 981 197 c 1
 58.5 197 l 2
 53 197 52 205 52 211.5 c 0
 52 229.5 65.5 259 74 265 c 1
 996.5 265 l 2
EndSplineSet
Validated: 1
EndChar

StartChar: quoteleft
Encoding: 8216 8216 199
Width: 187
Flags: W
HStem: 478 228
VStem: 101.634 93<494.468 580.445>
LayerCount: 2
Fore
SplineSet
100.634 555 m 0
 118.634 649 224.634 706 232.634 706 c 0
 239.634 706 245.634 699 247.634 688 c 1
 184.634 652 173.634 615 171.634 606 c 0
 167.634 586 175.634 570 182.634 558 c 0
 189.634 546 197.634 537 194.634 524 c 0
 189.634 500 155.634 478 125.634 478 c 0
 118.634 478 108.634 481 101.634 485 c 1
 95.6338 498 95.6338 527 100.634 555 c 0
EndSplineSet
Validated: 33
EndChar

StartChar: quoteright
Encoding: 8217 8217 200
Width: 195
Flags: W
HStem: 479 228
VStem: 138 92<600.51 690.825>
LayerCount: 2
Fore
SplineSet
229 630 m 0
 211 536 108 479 100 479 c 0
 93 479 86 486 84 497 c 1
 147 533 158 571 160 580 c 0
 164 600 156 614 149 626 c 0
 142 638 135 647 138 660 c 0
 143 684 175 707 205 707 c 0
 212 707 223 704 230 700 c 1
 236 687 234 658 229 630 c 0
EndSplineSet
Validated: 33
EndChar

StartChar: quotesinglbase
Encoding: 8218 8218 201
Width: 198
Flags: W
HStem: -102 228
VStem: 12 93<26.6731 108.962>
LayerCount: 2
Fore
SplineSet
105 48 m 0
 87 -46 -18 -102 -26 -102 c 0
 -33 -102 -40 -95 -42 -84 c 1
 21 -48 34 -11 36 -2 c 0
 40 18 31 32 24 44 c 0
 17 56 9 66 12 79 c 0
 17 103 51 126 81 126 c 0
 88 126 98 122 105 118 c 1
 111 105 110 76 105 48 c 0
EndSplineSet
Validated: 33
EndChar

StartChar: quotedblleft
Encoding: 8220 8220 202
Width: 323
Flags: W
HStem: 478 228
VStem: 101.634 93<494.468 580.445> 236.634 93<493.628 580.323>
LayerCount: 2
Fore
SplineSet
236.634 555 m 4
 254.634 649 359.634 706 367.634 706 c 4
 374.634 706 381.634 699 383.634 688 c 5
 320.634 652 308.634 615 306.634 606 c 4
 302.634 587 308.634 573 315.634 562 c 4
 323.634 550 332.634 538 329.634 524 c 4
 324.634 500 291.634 478 261.634 478 c 4
 254.634 478 243.634 481 236.634 485 c 5
 230.634 498 231.634 527 236.634 555 c 4
100.634 555 m 4
 118.634 649 224.634 706 232.634 706 c 4
 239.634 706 245.634 699 247.634 688 c 5
 184.634 652 173.634 615 171.634 606 c 4
 167.634 586 174.634 572 181.634 560 c 4
 188.634 548 197.634 538 194.634 524 c 4
 189.634 500 155.634 478 125.634 478 c 4
 118.634 478 108.634 481 101.634 485 c 5
 95.6338 498 95.6338 527 100.634 555 c 4
EndSplineSet
Validated: 33
EndChar

StartChar: quotedblright
Encoding: 8221 8221 203
Width: 332
Flags: W
HStem: 478 228
VStem: 138 92<603.677 690.372> 273 93<603.555 690.372>
LayerCount: 2
Fore
SplineSet
230 629 m 0
 212 535 108 478 100 478 c 0
 93 478 86 485 84 496 c 1
 147 532 159 569 161 578 c 0
 165 597 159 611 152 622 c 0
 144 634 135 646 138 660 c 0
 143 684 175 706 205 706 c 0
 212 706 223 703 230 699 c 1
 236 686 235 657 230 629 c 0
366 629 m 0
 348 535 243 478 235 478 c 0
 228 478 221 485 219 496 c 1
 282 532 294 569 296 578 c 0
 300 598 292 612 285 624 c 0
 278 636 270 646 273 660 c 0
 278 684 311 706 341 706 c 0
 348 706 359 703 366 699 c 1
 372 686 371 657 366 629 c 0
EndSplineSet
Validated: 33
EndChar

StartChar: quotedblbase
Encoding: 8222 8222 204
Width: 334
Flags: W
HStem: -104 228
VStem: 12 92<21.6768 108.372> 147 93<21.5546 108.372>
LayerCount: 2
Fore
SplineSet
105 47 m 0
 87 -47 -18 -104 -26 -104 c 0
 -33 -104 -40 -97 -42 -86 c 1
 21 -50 33 -13 35 -4 c 0
 39 15 33 29 26 40 c 0
 18 52 9 64 12 78 c 0
 17 102 50 124 80 124 c 0
 87 124 97 121 104 117 c 1
 110 104 110 75 105 47 c 0
240 47 m 0
 222 -47 117 -104 109 -104 c 0
 102 -104 96 -97 94 -86 c 1
 157 -50 168 -13 170 -4 c 0
 174 16 167 30 160 42 c 0
 153 54 144 64 147 78 c 0
 152 102 185 124 215 124 c 0
 222 124 233 121 240 117 c 1
 246 104 245 75 240 47 c 0
EndSplineSet
Validated: 33
EndChar

StartChar: onedotenleader
Encoding: 8228 8228 205
Width: 211
Flags: W
HStem: -12.5 127<30.7857 101.601>
VStem: 8.41309 117<11.6392 92.2515>
LayerCount: 2
Fore
SplineSet
8.41309 46 m 0
 11.9131 83 44.4131 114.5 78.4131 114.5 c 1
 108.413 114.5 128.913 90 125.413 58.5 c 0
 121.913 21.5 88.9131 -12.5 54.9131 -12.5 c 1
 23.9131 -12.5 4.91309 14.5 8.41309 46 c 0
EndSplineSet
Validated: 33
EndChar

StartChar: ellipsis
Encoding: 8230 8230 206
Width: 700
Flags: W
HStem: -12.5 127<30.7857 101.601 275.286 346.1 519.024 589.649>
VStem: 8.41309 117<11.6392 92.2515> 252.913 117<11.6392 92.2515> 496.413 117.5<11.6392 91.9263>
LayerCount: 2
Fore
SplineSet
496.413 46 m 0
 499.913 83.5 532.913 114.5 566.913 114.5 c 1
 596.913 114.5 617.413 90 613.913 58.5 c 0
 610.413 21.5 576.913 -12.5 542.913 -12.5 c 1
 511.913 -12.5 492.913 14.5 496.413 46 c 0
252.913 46 m 0
 256.413 83 288.913 114.5 322.913 114.5 c 1
 352.913 114.5 373.413 90 369.913 58.5 c 0
 366.413 21.5 333.413 -12.5 299.413 -12.5 c 1
 268.413 -12.5 249.413 14.5 252.913 46 c 0
8.41309 46 m 0
 11.9131 83 44.4131 114.5 78.4131 114.5 c 1
 108.413 114.5 128.913 90 125.413 58.5 c 0
 121.913 21.5 88.9131 -12.5 54.9131 -12.5 c 1
 23.9131 -12.5 4.91309 14.5 8.41309 46 c 0
EndSplineSet
Validated: 33
EndChar

StartChar: perthousand
Encoding: 8240 8240 207
Width: 982
VWidth: 512
Flags: W
HStem: -4.5 29<423.232 483.522 742.732 803.022> 285.5 28<459.921 519.671 779.421 839.171> 339.5 29<172.274 232.565> 629.5 28<208.963 268.713>
VStem: 74.4521 76.9109<384.306 543.959> 288.405 77.877<452.332 614.846> 325.41 76.911<40.3055 199.959> 539.363 77.8781<108.332 270.846> 644.91 76.911<40.3055 199.959> 858.863 77.8781<108.332 270.846>
LayerCount: 2
Fore
SplineSet
814.796 285.5 m 1xf9c0
 756.171 285.5 719.27 184.5 721.821 109 c 1
 722.382 75.5 734.314 24.5 769.791 24.5 c 1
 828.416 24.5 861.241 129 858.863 202.5 c 1
 858.095 237 847.354 285.5 814.796 285.5 c 1xf9c0
822.579 313.5 m 1
 890.916 313.5 933.979 271 936.741 197.5 c 1
 940.062 102 851.273 -4.5 758.873 -4.5 c 1
 691.035 -4.5 647.147 44 644.91 110 c 1
 641.588 206.5 728.18 313.5 822.579 313.5 c 1
495.296 285.5 m 1
 436.671 285.5 399.77 184.5 402.321 109 c 1xfbc0
 402.882 75.5 414.814 24.5 450.291 24.5 c 1
 508.916 24.5 541.741 129 539.363 202.5 c 1
 538.595 237 527.854 285.5 495.296 285.5 c 1
503.079 313.5 m 1
 571.416 313.5 614.479 271 617.241 197.5 c 1
 620.562 102 531.773 -4.5 439.373 -4.5 c 1
 371.535 -4.5 327.647 44 325.41 110 c 1
 322.088 206.5 408.68 313.5 503.079 313.5 c 1
244.338 629.5 m 1
 185.713 629.5 148.812 528.5 151.363 453 c 1
 151.924 419.5 163.856 368.5 199.334 368.5 c 1
 257.96 368.5 290.783 473 288.405 546.5 c 1xfdc0
 287.637 581 276.895 629.5 244.338 629.5 c 1
252.121 657.5 m 1
 320.46 657.5 363.521 615 366.282 541.5 c 1
 369.604 446 280.815 339.5 188.415 339.5 c 1
 120.578 339.5 76.6895 388 74.4521 454 c 1
 71.1299 550.5 157.722 657.5 252.121 657.5 c 1
620.5 634 m 1
 99.499 -7 l 1
 97.499 -9 72.5 -9 65.5 -3.5 c 1
 62 -2.5 59.5 0 59 5 c 9
 580.5 647.5 l 1
 582.5 649.5 602.5 648.5 607.5 643 c 1
 613.5 642 619 639.5 620.5 634 c 1
EndSplineSet
Validated: 33
EndChar

StartChar: minute
Encoding: 8242 8242 208
Width: 169
Flags: W
HStem: 489 210
VStem: 139.67 77.5<618.553 688.247>
LayerCount: 2
Fore
SplineSet
189.67 699 m 0
 203.17 699 219.17 691.5 217.17 674.5 c 0
 212.67 631 145.67 534.5 117.169 498 c 0
 112.669 492.5 107.669 489 103.67 489 c 0
 97.6699 489 94.1699 494 95.1699 501 c 0
 96.1699 504 121.669 612 139.67 666 c 0
 143.67 678 171.67 699 189.67 699 c 0
EndSplineSet
Validated: 33
EndChar

StartChar: second
Encoding: 8243 8243 209
Width: 292
Flags: W
HStem: 489 210
VStem: 139.67 77.5<618.553 688.247> 263.17 76.5<617.859 688.745>
LayerCount: 2
Fore
SplineSet
312.67 699 m 0
 326.17 699 341.67 691.5 339.67 674.5 c 0
 335.17 631 270.17 536 240.67 498 c 0
 236.17 492.5 231.17 489 227.17 489 c 0
 221.17 489 216.67 494 217.67 501 c 0
 218.67 504 245.17 612 263.17 666 c 0
 267.17 678 294.67 699 312.67 699 c 0
189.67 699 m 0
 203.17 699 219.17 691.5 217.17 674.5 c 0
 212.67 631 145.67 534.5 117.169 498 c 0
 112.669 492.5 107.669 489 103.67 489 c 0
 97.6699 489 94.1699 494 95.1699 501 c 0
 96.1699 504 121.669 612 139.67 666 c 0
 143.67 678 171.67 699 189.67 699 c 0
EndSplineSet
Validated: 33
EndChar

StartChar: uni2038
Encoding: 8248 8248 210
Width: 363
Flags: W
HStem: -48.5 160
VStem: 69.0625 225.5
LayerCount: 2
Fore
SplineSet
279.562 -48.5 m 0
 267.562 -48.5 220.562 -3 193.562 37.5 c 1
 154.062 -3.5 86.0625 -48.5 74.0625 -48.5 c 0
 68.0625 -48.5 69.0625 -32.5 69.0625 -30 c 1
 72.5625 -17 138.562 16.5 194.562 101.5 c 1
 198.562 109 198.562 111.5 204.562 111.5 c 0
 223.562 111.5 212.562 95.5 246.062 37 c 0
 258.562 15 293.562 -23.5 294.562 -27 c 1
 293.562 -30.5 286.062 -48.5 279.562 -48.5 c 0
EndSplineSet
Validated: 1
EndChar

StartChar: guilsinglleft
Encoding: 8249 8249 211
Width: 304
VWidth: 512
Flags: W
VStem: 26.0635 256.999
LayerCount: 2
Fore
SplineSet
220.563 91.5 m 1
 215.063 82 202.063 75 196.063 73 c 1
 179.063 94.5 115.563 168 32.5635 230.5 c 1
 28.0635 234.5 25.5635 239.5 26.0635 245 c 0
 26.5635 253 32.5635 260.5 38.0635 264.5 c 1
 162.063 335.5 225.563 393.5 263.563 423 c 1
 268.063 422 281.063 415.5 283.063 406 c 1
 278.063 397 142.063 266.5 121.563 248.5 c 1
 135.063 230.5 219.063 98.5 220.563 91.5 c 1
EndSplineSet
Validated: 1
EndChar

StartChar: guilsinglright
Encoding: 8250 8250 212
Width: 305
VWidth: 512
Flags: W
VStem: 14 257
LayerCount: 2
Fore
SplineSet
76.5 404.5 m 1
 82 414 95 421 101 423 c 1
 118 401.5 181.5 328 264.5 265.5 c 1
 269 261.5 271.5 256.5 271 251 c 0
 270.5 243 264.5 235.5 259 231.5 c 1
 135 160.5 71.5 102.5 33.5 73 c 1
 29 74 16 80.5 14 90 c 1
 19 99 155 229.5 175.5 247.5 c 1
 162 265.5 78 397.5 76.5 404.5 c 1
EndSplineSet
Validated: 1
EndChar

StartChar: uni203E
Encoding: 8254 8254 213
Width: 789
Flags: W
HStem: 736 68<227.812 756.688>
LayerCount: 2
Fore
SplineSet
758 804 m 2
 763.5 804 764.5 796 764.5 789.5 c 0
 764.5 771.5 751 742 742.5 736 c 1
 226.5 736 l 2
 221 736 220 744 220 750.5 c 0
 220 768.5 233.5 798 242 804 c 1
 758 804 l 2
EndSplineSet
Validated: 1
EndChar

StartChar: Euro
Encoding: 8364 8364 214
Width: 649
Flags: W
HStem: -7.5 39.1172<300.606 451.121> 246 41<34.4577 383.861> 345.5 41<49.6719 399.02> 611.833 38.141<366.48 515.067>
VStem: 82.6152 117.318<157.768 340.436> 583.456 32.252<470.891 537.554>
LayerCount: 2
Fore
SplineSet
443.62 611.833 m 0
 314.38 611.833 199.65 476.068 199.933 267.89 c 0
 200.088 165.307 248.539 31.6172 369.75 31.6172 c 0
 420.731 31.6172 460.073 51.3682 490.533 77.6875 c 0
 528.771 110.31 557.533 165.9 565.858 184.062 c 1
 578.625 184.062 590.779 177.758 593.779 174.258 c 1
 591.005 159.249 541.495 42.8232 527.841 33.1172 c 1
 475.887 4.30371 423.192 -7.5 343.951 -7.5 c 0
 185.183 -7.5 82.6152 126.435 82.6152 263.806 c 0
 82.6152 508.627 285.952 651.876 455.841 649.974 c 0
 510.778 649.442 578.407 634.817 626.643 623.112 c 1
 625.757 600.495 617.595 501.956 615.708 481.691 c 0
 614.999 475.336 606.659 470.888 599.828 470.888 c 1
 595.553 470.888 587.174 470.888 583.456 476.691 c 1
 584.674 534.23 538.019 611.833 443.62 611.833 c 0
51.1592 345.5 m 2
 47.8408 345.5 47.1592 349.5 47.1592 353.5 c 0
 47.1592 360.5 53.1592 380.5 60.1592 386.5 c 1
 398 386.5 l 2
 400 386.5 401 382.5 401 378.5 c 0
 401 373.5 398 354.5 389 345.5 c 1
 51.1592 345.5 l 2
36 246 m 2
 32.8408 246 32 250 32 254 c 0
 32 261 38 281 45 287 c 1
 382.841 287 l 2
 384.841 287 385.841 283 385.841 279 c 0
 385.841 274 382.841 255 373.841 246 c 1
 36 246 l 2
EndSplineSet
Validated: 37
EndChar

StartChar: arrowleft
Encoding: 8592 8592 215
Width: 693
Flags: W
HStem: 213 68<141.5 663.245>
LayerCount: 2
Fore
SplineSet
192 327 m 2
 141.5 281 l 1
 666 281 l 2
 671 281 672.5 276.5 672.5 268 c 0
 672.5 256 660.5 221 648.5 213 c 1
 129 213 l 1
 129 213 152.5 178 161 167 c 1
 198 116 209.5 106.5 209.5 96.5 c 0
 209.5 84.5 184 75 178.5 73 c 1
 177.5 75 130 132 12 227 c 0
 9 228.5 8 234 8 237.5 c 0
 8 245.5 12 259 21 268 c 1
 158 347 244.5 420.5 247.5 423 c 1
 256 420.5 271.5 412 270.5 401.5 c 1
 270.5 394.5 266.5 395.5 192 327 c 2
EndSplineSet
Validated: 1
EndChar

StartChar: arrowup
Encoding: 8593 8593 216
Width: 323
Flags: W
VStem: 8 325.5
LayerCount: 2
Fore
SplineSet
155 566.5 m 1
 103 519.5 l 1
 40 462.5 29 452 22 452 c 0
 10.5 452 9 476 8 481.5 c 1
 10 482.5 74.5 540.5 191.5 687.5 c 0
 194.5 692.5 199.5 694 205.5 694 c 0
 214.5 694 223 693 229 686 c 1
 277 555 331.5 483 333.5 480 c 1
 329.5 470 316.5 451.5 307 451.5 c 0
 297.5 451.5 293.5 463 250 522.5 c 2
 218 565.5 l 1
 102.5 -25.5 l 2
 101.5 -28.5 98.5 -32 89.5 -32 c 0
 73.5 -32 42.5 -21.5 39.5 -17.5 c 1
 155 566.5 l 1
EndSplineSet
Validated: 1
EndChar

StartChar: arrowright
Encoding: 8594 8594 217
Width: 690
Flags: W
HStem: 213 69<21.2549 543.5>
LayerCount: 2
Fore
SplineSet
543.5 213 m 1
 18.5 213 l 2
 13.5 213 12 217.5 12 226 c 0
 12 238 24 274 36 282 c 1
 558 282 l 1
 524 329 l 1
 480.5 386 474.5 388.5 475.5 401 c 1
 478 413.5 501.5 421 507 423 c 1
 509.5 420 555.5 355 667.5 268 c 1
 671.5 263 671.5 257 670.5 250 c 0
 670 244 667 232.5 660 227 c 1
 514 140 439.5 74.5 438.5 73 c 1
 430 75.5 414 84 416 94.5 c 1
 417 103 430.5 112.5 496 170.5 c 1
 543.5 213 l 1
EndSplineSet
Validated: 33
EndChar

StartChar: arrowdown
Encoding: 8595 8595 218
Width: 327
Flags: W
VStem: -5 325
LayerCount: 2
Fore
SplineSet
110 109.5 m 1
 226 701 l 2
 227 704.5 230 707 239 707 c 0
 254.5 707 284.5 696.5 288.5 692.5 c 1
 173.5 108.5 l 1
 225.5 155.5 l 1
 288 212.5 296 223 306.5 223 c 0
 318 223 319 199 320 193.5 c 1
 318 192.5 253.5 134.5 136.5 -12.5 c 0
 133.5 -17.5 128.5 -19 122.5 -19 c 0
 113.5 -19 105 -17.5 99 -10.5 c 1
 51 120.5 -3 192 -5 195 c 1
 -1 205 11.5 223.5 21 223.5 c 0
 30 223.5 34 212.5 78.5 151.5 c 1
 110 109.5 l 1
EndSplineSet
Validated: 1
EndChar

StartChar: radical
Encoding: 8730 8730 219
Width: 472
Flags: W
LayerCount: 2
Fore
SplineSet
-17.9053 159 m 1
 -28.9053 165.5 -35.9053 177.5 -34.9053 185 c 0
 -33.4053 195.5 -17.4053 204 -8.90527 209 c 0
 27.0947 230.5 124.095 295.5 139.095 307.5 c 0
 148.095 314.5 163.095 315 164.095 307 c 1
 166.095 274.5 170.095 253 173.095 237.5 c 2
 224.095 8 l 1
 232.095 29.5 511.595 791 511.595 791 c 1
 554.595 787.5 l 1
 554.595 787.5 232.595 -89 208.595 -153 c 1
 191.595 -171 172.095 -176.5 166.095 -176.5 c 0
 162.095 -176.5 158.095 -175.5 157.595 -171.5 c 2
 71.5947 208 l 1
 -17.9053 159 l 1
EndSplineSet
Validated: 1
EndChar

StartChar: infinity
Encoding: 8734 8734 220
Width: 827
Flags: W
HStem: 41 65.5<137.141 245.853 531.348 637.524> 357 67<177.535 285.426 568.746 676.067>
LayerCount: 2
Fore
SplineSet
616.115 362 m 0
 559.115 362 485.115 277 455.615 246 c 0
 454.615 245 454.115 244.5 455.115 243.5 c 0
 478.615 199.5 516.615 106.5 580.615 106.5 c 0
 642.615 106.5 693.115 181.5 699.615 248.5 c 0
 706.615 313 670.115 362 616.115 362 c 0
237.115 357 m 0
 176.615 357 119.115 288 112.615 214 c 0
 105.615 150.5 142.115 103.5 194.115 103.5 c 0
 255.115 103.5 319.115 179.5 357.615 218 c 0
 358.615 219 359.115 219 358.115 220 c 0
 341.615 251.5 302.115 357 237.115 357 c 0
260.615 424 m 0
 350.615 424 400.615 341.5 429.615 293.5 c 0
 430.615 291.5 434.615 290.5 435.615 292.5 c 0
 484.615 345.5 563.615 424 653.615 424 c 0
 735.615 424 785.615 348 776.615 261.5 c 0
 766.115 144 657.115 41 549.115 41 c 0
 427.115 41 389.115 171 379.115 171 c 2
 378.115 171 l 1
 316.115 108 246.615 39 155.615 39 c 0
 74.1152 39 28.1152 116 37.1152 202.5 c 0
 47.6152 320 153.615 424 260.615 424 c 0
EndSplineSet
Validated: 33
EndChar

StartChar: lessequal
Encoding: 8804 8804 221
Width: 483
Flags: W
HStem: 5 61.5<-4.41075 365.152>
LayerCount: 2
Fore
SplineSet
9.5 66.5 m 1
 366 66.5 l 2
 370.5 66.5 372 59 372 53 c 3
 372 39 363 20 352.5 5 c 1
 -6 5 l 2
 -11 5 -12 12.5 -12 18.5 c 3
 -12 32.5 -1 53.5 9.5 66.5 c 1
446.5 529 m 17
 450.5 524 459 501.5 459 482.5 c 27
 459 477.5 458 471.5 454 469.5 c 2
 120.5 309 l 1
 396 145.5 l 1
 396 127.5 379 86.5 373 86.5 c 0
 371.5 86.5 369 86.5 366.5 88 c 2
 51 274 l 2
 43 279 37 292 37 302 c 0
 37 327.5 56.5 342 68.5 348 c 1
 138.5 381 373 495 446.5 529 c 17
EndSplineSet
Validated: 1
EndChar

StartChar: greaterequal
Encoding: 8805 8805 222
Width: 485
Flags: W
HStem: 5 61.5<31.5143 401.477>
LayerCount: 2
Fore
SplineSet
45 66.5 m 1
 402 66.5 l 2
 406.5 66.5 408 59 408 53 c 3
 408 39 400 20 388 5 c 1
 30 5 l 2
 25 5 24 12.5 24 18.5 c 3
 24 32.5 35 53.5 45 66.5 c 1
51.5 87 m 17
 46.5 93.5 39 121 39 136 c 1
 39 140.5 40.5 144.5 44.5 146.5 c 2
 380.5 308.5 l 1
 107.5 470.5 l 1
 107.5 492 123.5 529.5 129.5 529.5 c 0
 131.5 529.5 134.5 529.5 137 528 c 2
 450.5 344 l 2
 458 339.5 465 327 465 317.5 c 0
 465 303.5 450.5 278.5 433 270 c 1
 363 237 125 121 51.5 87 c 17
EndSplineSet
Validated: 1
EndChar

StartChar: gravecomb
Encoding: 768 768 223
Width: 227
Flags: W
HStem: 529.5 139.5
VStem: 162 171.5
LayerCount: 2
Fore
SplineSet
325 529.5 m 5
 309 531.5 162 606.5 162 633.5 c 4
 162 658.5 189 669 204 669 c 4
 218 669 231 666 238 660.5 c 4
 259.668 641.833 332 549.5 333.5 540.5 c 5
 333 536 328 530.5 325 529.5 c 5
EndSplineSet
Validated: 1
EndChar

StartChar: acutecomb
Encoding: 769 769 224
Width: 221
Flags: W
HStem: 529.5 139.5
VStem: 156 171.5
LayerCount: 2
Fore
SplineSet
164.5 529.5 m 1
 161.5 530.5 156.5 536 156 540.5 c 1
 157.5 549.5 229.832 641.833 251.5 660.5 c 0
 258.5 666 271.5 669 285.5 669 c 0
 300.5 669 327.5 658.5 327.5 633.5 c 0
 327.5 606.5 180.5 531.5 164.5 529.5 c 1
EndSplineSet
Validated: 1
EndChar

StartChar: uni0302
Encoding: 770 770 225
Width: 369
Flags: W
HStem: 598 151.5
VStem: 181.353 213
LayerCount: 2
Fore
SplineSet
313.353 749.5 m 0
 316.853 749.5 320.251 746.448 323.353 740.5 c 0
 351.853 686 375.853 645 394.353 615 c 1
 392.853 607 386.853 599 381.853 598 c 1
 357.853 617 310.032 658 299.032 670 c 1
 283.532 658 218.353 616.5 187.853 598 c 1
 183.353 599 179.853 607 181.353 615 c 1
 210.353 643 255.853 690.5 300.853 740.5 c 0
 305.604 745.812 309.353 749.5 313.353 749.5 c 0
EndSplineSet
Validated: 1
EndChar

StartChar: tildecomb
Encoding: 771 771 226
Width: 346
Flags: W
HStem: 621.5 46<326.141 422.654> 661 46<198.741 298.168>
VStem: 163.174 296
LayerCount: 2
Fore
SplineSet
263.674 707 m 0x60
 287.174 707 304.174 701 320.674 692.5 c 0
 341.174 682.5 357.174 667.5 386.674 667.5 c 0xa0
 419.174 667.5 445.674 699.5 452.674 707 c 1x60
 455.674 706 460.174 704 459.174 696.5 c 0
 457.174 681.5 446.674 665.5 437.674 656.5 c 0
 411.174 630.5 386.174 621.5 358.674 621.5 c 0xa0
 335.174 621.5 320.174 627.5 302.674 636.5 c 0
 283.174 646.5 264.174 661 234.674 661 c 0x60
 202.174 661 175.674 629 168.674 621.5 c 1xa0
 165.674 622.5 162.174 625.5 163.174 633 c 0
 165.174 648 174.674 663 183.674 672 c 0
 210.174 698 236.174 707 263.674 707 c 0x60
EndSplineSet
Validated: 1
EndChar

StartChar: dotlessi
Encoding: 305 305 227
Width: 286
VWidth: 512
Flags: W
HStem: -7 70.5<90.5 177.25> 371.5 70.5<88.75 172.75>
VStem: 55.5 99<27.7834 177.461> 112 98.5<257.539 406.139>
LayerCount: 2
Fore
SplineSet
107.5 316 m 2xe0
 108.5 321 112 343.5 112 348.5 c 0
 112 357.5 109.5 371.5 99.5 371.5 c 0
 78 371.5 32 316.5 29 312 c 1
 24 312 17 329 17 335 c 1
 31 360.5 107 442 157.5 442 c 0
 188 442 210.5 418.5 210.5 380.5 c 0xd0
 210.5 369.5 205.5 339.5 202.5 324 c 1
 158.5 119 l 2
 157 112 154.5 91.5 154.5 86.5 c 0
 154.5 77.5 156.5 63.5 166.5 63.5 c 0
 188 63.5 234 118.5 237 123 c 1
 242 123 249 106 249 100 c 1
 235 74.5 154.5 -7 104 -7 c 0
 77 -7 55.5 14 55.5 54.5 c 0
 55.5 65.5 60.5 96.5 63.5 111 c 1
 107.5 316 l 2xe0
EndSplineSet
Validated: 1
EndChar

StartChar: uni0304
Encoding: 772 772 230
Width: 352
Flags: W
HStem: 551.5 41<166.26 394.658>
VStem: 164 232.5<551.93 592.5>
LayerCount: 2
Fore
SplineSet
386 551.5 m 1
 167 551.5 l 1
 167 551.5 164 554.5 164 560.5 c 0
 164 567.5 171.5 592.5 176.68 592.5 c 2
 391.68 592.5 l 2
 393.68 592.5 396.5 589.5 396.5 585.5 c 0
 396.5 580.451 394 560.5 386 551.5 c 1
EndSplineSet
Validated: 1
EndChar

StartChar: uni0305
Encoding: 773 773 231
Width: 526
Flags: W
HStem: 736.5 67.5<140.968 682.265>
LayerCount: 2
Fore
SplineSet
130.408 746.5 m 0
 130.408 748.5 144.408 804 154.408 804 c 2
 695.908 804 l 2
 697.908 804 701.408 803 699.408 795 c 0
 696.408 777 684.408 747.5 682.408 743.5 c 0
 679.408 737.5 673.408 736.5 673.408 736.5 c 1
 134.408 736.5 l 1
 134.408 736.5 128.408 736.5 130.408 746.5 c 0
EndSplineSet
Validated: 1
EndChar

StartChar: uni0306
Encoding: 774 774 232
Width: 230
Flags: W
HStem: 520 51<172.795 275.541> 621 20G<150.184 154.184 321.184 325.184>
VStem: 133.184 23<600.595 637.994> 318.184 18<621 639.513>
LayerCount: 2
Fore
SplineSet
224.184 571 m 0
 262.184 571 300.184 595 318.184 638 c 0
 318.184 640 320.184 641 322.184 641 c 0
 328.184 641 337.184 633 336.184 628 c 0
 336.184 627 334.184 622 334.184 620 c 0
 315.184 567 264.184 520 214.184 520 c 0
 164.184 520 130.184 564 133.184 621 c 0
 133.184 623 134.184 627 134.184 628 c 0
 135.184 633 147.184 641 153.184 641 c 0
 155.184 641 156.184 640 156.184 638 c 0
 157.184 595 189.184 571 224.184 571 c 0
EndSplineSet
Validated: 33
EndChar

StartChar: uni0307
Encoding: 775 775 233
Width: 250
Flags: W
HStem: 520.5 119<206.954 278.048>
VStem: 188.104 109.5<539.611 620.41>
LayerCount: 2
Fore
SplineSet
188.104 581 m 0
 194.104 613.5 224.104 639.5 254.604 639.5 c 1
 284.604 639.5 303.604 613.5 297.604 581 c 0
 291.604 548.5 262.604 520.5 232.104 520.5 c 1
 201.104 520.5 182.104 548.5 188.104 581 c 0
EndSplineSet
Validated: 33
EndChar

StartChar: uni0308
Encoding: 776 776 234
Width: 324
Flags: W
HStem: 468 115.5<139.833 210.71 312.539 383.099>
VStem: 121.086 108.001<486.94 564.287> 293.587 108.5<487.213 564.287>
LayerCount: 2
Fore
SplineSet
360.087 583.5 m 1
 389.587 583.5 408.087 557 402.087 525.5 c 0
 396.087 494 366.087 468 336.587 468 c 1
 307.087 468 287.587 494.5 293.587 526 c 0
 299.587 557.5 330.587 583.5 360.087 583.5 c 1
186.587 583.5 m 1
 216.087 583.5 235.087 557 229.087 525.5 c 0
 223.087 494 193.587 468 164.087 468 c 1
 134.587 468 115.086 494.5 121.086 526 c 0
 127.087 557.5 157.087 583.5 186.587 583.5 c 1
EndSplineSet
Validated: 33
EndChar

StartChar: hookabovecomb
Encoding: 777 777 235
Width: 164
Flags: W
HStem: 631 33.5<187.615 252.855>
VStem: 128.165 51.5<576.016 625.442>
LayerCount: 2
Fore
SplineSet
234.665 664.5 m 0
 270.165 664.5 287.165 641.5 281.165 610 c 0
 274.665 575 245.165 550.5 220.165 540 c 0
 200.165 531.5 190.165 526.5 187.665 514 c 0
 186.665 509 188.165 503.5 189.165 500.5 c 1
 188.165 496.5 170.165 489 161.165 489 c 1
 156.665 491.5 143.165 502.5 145.665 514 c 0
 150.665 540.5 179.665 553 196.165 560.5 c 0
 217.665 570 231.665 582 235.165 600 c 0
 237.665 614 235.165 631 217.165 631 c 0
 197.165 631 184.165 618 179.665 595 c 0
 176.665 579 155.165 574 143.165 574 c 0
 135.665 574 126.665 578.5 128.165 587 c 0
 136.665 629.5 191.665 664.5 234.665 664.5 c 0
EndSplineSet
Validated: 33
EndChar

StartChar: uni030A
Encoding: 778 778 236
Width: 324
Flags: W
HStem: 506 39.5<229.033 305.15> 655 39<243.087 319.345>
VStem: 186.854 173.5
LayerCount: 2
Fore
SplineSet
223.854 600.5 m 0
 217.854 570 235.354 545.5 263.354 545.5 c 0
 291.354 545.5 318.354 570 324.354 600.5 c 0
 330.354 631 312.854 655 284.854 655 c 0
 256.854 655 229.854 631 223.854 600.5 c 0
186.854 600.5 m 0
 196.854 652 245.354 694 292.854 694 c 0
 340.354 694 370.354 652 360.354 600.5 c 0
 350.354 549 303.354 506 255.854 506 c 0
 208.354 506 176.854 549 186.854 600.5 c 0
EndSplineSet
Validated: 33
EndChar

StartChar: uni030B
Encoding: 779 779 237
Width: 311
Flags: W
HStem: 517.5 145.5<272.5 275.5>
VStem: 122 316.5
LayerCount: 2
Fore
SplineSet
272.5 517.5 m 1
 269 519 264 525 263.5 531 c 1
 265 540 331.5 626.5 368 657 c 0
 372.5 660.5 381.5 663 392.5 663 c 0
 417 663 438.5 648.5 438.5 630 c 0
 438.5 593 283 517.5 272.5 517.5 c 1
131 517.5 m 1
 127.5 519 122.5 525 122 531 c 1
 123.5 540 190 626.5 226.5 657 c 0
 231 660.5 240 663 251 663 c 0
 275.5 663 297 648.5 297 630 c 0
 297 593 141.5 517.5 131 517.5 c 1
EndSplineSet
Validated: 1
EndChar

StartChar: uni030C
Encoding: 780 780 238
Width: 371
Flags: W
HStem: 496.5 151.5
VStem: 168 213
LayerCount: 2
Fore
SplineSet
249 496.5 m 0
 245.5 496.5 242.102 499.552 239 505.5 c 0
 210.5 560 186.5 601 168 631 c 1
 169.5 639 175.5 647 180.5 648 c 1
 205 627.5 252.32 588 263.32 576 c 1
 278.82 588 344 629.5 374.5 648 c 1
 379 647 382.5 639 381 631 c 1
 352 603 306.5 555.5 261.5 505.5 c 0
 256.748 500.186 253 496.5 249 496.5 c 0
EndSplineSet
Validated: 1
EndChar

StartChar: uni0312
Encoding: 786 786 239
Width: 139
Flags: W
VStem: 110 106<478.474 549.224>
LayerCount: 2
Fore
SplineSet
214 635.5 m 1
 175.5 622 110 548.5 110 497 c 0
 110 482 114 471 119.5 465.5 c 1
 155 456 216 476 216 510 c 0
 216 536.5 187 543 190 569 c 0
 194 602 230 624 235 627 c 1
 235 632 215 636 214 635.5 c 1
EndSplineSet
Validated: 41
EndChar

StartChar: uni0315
Encoding: 789 789 240
Width: 131
Flags: W
HStem: 456 225
VStem: 144 90<559.974 649.355> 165 69<539 662.669>
LayerCount: 2
Fore
SplineSet
109 472 m 1xc0
 109 478 165 519 165 559 c 0xa0
 165 580 144 587 144 616 c 0
 144 675 191 681 229 681 c 1
 231 675 234 660 234 649 c 0
 234 636 233 625 230 610 c 0
 218 546 164 480 123 456 c 1
 121 456 l 2
 117 456 109 465 109 472 c 1xc0
EndSplineSet
Validated: 1
EndChar

StartChar: dotbelowcomb
Encoding: 803 803 241
Width: 258
Flags: W
HStem: -162 124<78.894 151.054>
VStem: 57.2236 115.5<-140.679 -59.3206>
LayerCount: 2
Fore
SplineSet
57.2236 -100 m 0
 63.7236 -65.5 95.2236 -38 127.224 -38 c 0
 159.224 -38 179.224 -65.5 172.724 -100 c 0
 166.224 -134.5 134.724 -162 102.724 -162 c 0
 70.7236 -162 50.7236 -134.5 57.2236 -100 c 0
EndSplineSet
Validated: 33
EndChar

StartChar: uni0326
Encoding: 806 806 242
Width: 139
Flags: W
HStem: -205.5 171<38.1107 46.3762>
VStem: 7.5 112.5<-115.543 -52.7768>
LayerCount: 2
Fore
SplineSet
7.5 -84.5 m 0
 7.5 -50.5 65.5 -34.5 107.5 -34.5 c 1
 119 -45 120 -63.5 120 -78.5 c 0
 120 -130 46.5 -191 8 -204.5 c 1
 7 -205 5 -205.5 2.5 -205.5 c 0
 -7 -205.5 -17 -200 -17 -195 c 0
 -17 -190.5 33 -171 37 -138 c 0
 40 -112 7.5 -111 7.5 -84.5 c 0
EndSplineSet
Validated: 33
EndChar

StartChar: uni0327
Encoding: 807 807 243
Width: 402
Flags: W
HStem: -154 28<121.935 200.636> -64 36.5<198.125 210.734> -23 20G<188.125 217.625>
VStem: 115.125 139.5
LayerCount: 2
Fore
SplineSet
198.125 -27.5 m 1
 198.125 -27.5 215.125 -27 218.625 -27 c 1
 244.125 -27 259.625 -51 254.625 -77 c 0
 245.625 -124 203.125 -154 150.625 -154 c 0
 135.125 -154 120.125 -147 115.125 -141.5 c 1
 115.125 -137.5 114.625 -131 115.625 -126 c 0
 116.625 -119 123.625 -112 128.125 -112 c 0
 136.125 -112 148.125 -126 165.625 -126 c 0
 191.625 -126 207.125 -110.5 210.125 -95 c 0
 214.125 -76 204.625 -64 190.625 -64 c 0
 182.625 -64 173.125 -66.5 163.125 -70.5 c 0
 161.125 -70.5 151.625 -60 154.625 -56 c 0
 165.625 -41 183.125 -17 193.125 -3 c 1
 217.625 -3 l 1
 198.125 -27.5 l 1
EndSplineSet
Validated: 33
EndChar

StartChar: Aogonek
Encoding: 260 260 254
Width: 601
Flags: W
HStem: -224 60.5<286.648 366.415> -3.5 32.5<-57.3716 -3.05852 84.8358 136.827 516.9 560.231> 238.5 45<197.398 358.397> 642.5 20G<384.398 391.648>
VStem: 248.398 57.5<-182.5 -99.4208>
LayerCount: 2
Fore
SplineSet
557.398 -3.5 m 1
 520.398 -1.5 510.398 2 471.898 2 c 0
 385.898 2 305.898 -81.5 305.898 -130.5 c 0
 305.898 -150 314.398 -163.5 339.398 -163.5 c 0
 383.898 -163.5 411.398 -129 417.898 -126.5 c 1
 425.398 -127.5 418.977 -151.173 416.398 -154.5 c 0
 391.898 -188.5 345.898 -224 303.898 -224 c 0
 269.398 -224 248.398 -196 248.398 -169 c 0
 248.398 -108.5 301.398 -55 345.398 -9 c 0
 369.898 16.5 391.898 28 391.898 67 c 0
 391.898 90.5 366.898 233.5 366.898 233.5 c 1
 366.898 233.5 365.398 237.5 362.398 237.5 c 0
 332.898 239.5 293.898 238.5 270.898 238.5 c 0
 232.898 238.5 210.898 238.5 173.398 236.5 c 0
 170.898 236.5 166.898 233.5 166.398 232.5 c 1
 166.398 232.5 128.398 168 108.398 130 c 0
 92.3984 100 80.3984 70.5 78.3984 60.5 c 0
 73.3984 35.5 132.398 29.5 139.398 29.5 c 1
 142.398 24.5 137.398 1.5 133.898 -3.5 c 1
 99.3984 -0.5 80.8984 3 39.8984 3 c 0
 -3.10156 3 -22.1016 -0.5 -60.1016 -3.5 c 1
 -62.6016 0 -59.6016 20 -54.6016 29 c 1
 -43.6016 29 -2.60156 40 9.39844 54.5 c 0
 31.8984 81.5 44.8984 104.5 63.3984 136.5 c 2
 348.398 629 l 2
 356.898 643.5 379.898 662.5 388.898 662.5 c 0
 394.398 662.5 398.398 659.5 400.398 657.5 c 1
 400.398 657.5 487.919 147 489.919 137 c 1
 495.968 102.798 499.013 80.4307 501.398 68 c 0
 507.898 35.5 554.898 29.5 561.898 29.5 c 1
 564.898 21.5 560.398 0 557.398 -3.5 c 1
321.398 505.5 m 1
 197.398 290 l 1
 197.398 290 197.398 286 199.398 286 c 0
 220.398 284.5 255.898 283.5 276.898 283.5 c 0
 305.898 283.5 325.398 284 354.398 286 c 0
 356.398 286 358.398 291 358.398 291 c 1
 321.398 505.5 l 1
EndSplineSet
Validated: 33
EndChar

StartChar: aogonek
Encoding: 261 261 255
Width: 470
Flags: W
HStem: -224 60.5<214.75 294.517> -6 73<75 160.859> 394.5 47.5<224.361 329.25>
VStem: 15 100<74.5765 223.751> 176.5 57.5<-183.5 -102.129> 240 98.5<26.5469 161.515>
LayerCount: 2
Fore
SplineSet
260.5 394.5 m 0
 188 394.5 115 268 115 151.5 c 0
 115 96.5 130 67 158.5 67 c 0
 200.5 67 261 180 280.5 277.5 c 2
 301 381 l 1
 293 390 274 394.5 260.5 394.5 c 0
433 100 m 1
 425.5 86 395.5 54.5 365 29.5 c 0
 316 -10.5 234 -77.5 234 -130.5 c 0
 234 -150 242.5 -163.5 267.5 -163.5 c 0
 312 -163.5 339.5 -129 346 -126.5 c 1
 353.5 -127.5 347.078 -151.173 344.5 -154.5 c 0
 320 -188.5 274 -224 232 -224 c 0
 197.5 -224 176.5 -197 176.5 -170 c 0
 176.5 -112.5 232.5 -51.5 277 -5.5 c 1
 254.5 -0.5 240 20 240 52 c 0
 240 58 242 74 244.5 88 c 0
 246.5 101 248 107.5 249 113 c 1
 228.5 76.5 161.5 -6 102.5 -6 c 0
 47.5 -6 15 45 15 114 c 0
 15 290.5 187 442 311.5 442 c 0
 347 442 384.5 433.5 404 426.5 c 1
 342.5 119 l 2
 341.5 115 338.5 91.5 338.5 86.5 c 0
 338.5 77.5 340.5 63.5 350.5 63.5 c 0
 372 63.5 418 118.5 421 123 c 1
 426 123 433 106 433 100 c 1
EndSplineSet
Validated: 1
EndChar

StartChar: Eogonek
Encoding: 280 280 271
Width: 565
Flags: W
HStem: -224 60.5<253.064 332.831> -3 42.5<185.63 334.917> -3 33<-3.43555 65.8127> 311 42<239.098 378.348> 620.5 36.5<287.844 481.543> 628 33<120.6 175.314>
VStem: 214.814 57.5<-183.5 -99.6794> 395.814 29<232.106 273.411> 512.814 32.501<517.239 582.65>
LayerCount: 2
Fore
SplineSet
214.814 -170 m 0xb380
 214.814 -114 272.314 -30.5 335.814 -2 c 1
 271.528 -1.5 190.976 -0.637695 115.814 -0.839844 c 0
 60.5371 -1.02441 18.2617 -2.76172 -5.68555 -3 c 1
 -9.18555 2.5 -5.18555 24 0.314453 30 c 1
 11.8145 30.5 59.8145 34.5 65.8145 46.5 c 0
 75.3145 64.5 80.8145 94 87.8145 130.5 c 2
 165.314 528 l 2
 172.314 564.5 178.314 594 175.314 612 c 0
 173.814 624 127.814 627.5 116.314 628 c 1
 113.314 634 117.814 655.5 123.314 661 c 1xb780
 162.814 658.5 206.314 657 243.814 657 c 0
 306.814 657 467.814 663.5 545.815 664 c 1
 542.815 614 545.315 567 545.315 522 c 1
 542.315 519 531.815 517 524.815 517 c 0
 517.815 517 513.314 519.5 512.814 524.5 c 0
 505.814 592 479.814 620.5 426.814 620.5 c 2
 348.314 620.5 l 2
 332.314 620.5 296.814 619.5 290.814 609 c 0
 283.314 595 279.314 571 273.814 543 c 2
 238.314 361.5 l 2
 237.314 356 256.814 353 276.814 353 c 2
 325.814 353 l 2
 397.814 353 404.314 362 431.814 424 c 0
 433.814 429 438.814 431.5 445.814 431.5 c 0
 452.814 431.5 459.314 429.5 461.314 426.5 c 1
 424.814 236 l 1
 422.814 234 414.814 232 407.814 232 c 0
 400.814 232 396.314 235 395.814 240 c 0
 393.314 292.5 386.314 298.5 378.814 303.5 c 0
 369.314 309.5 330.814 311 295.814 311 c 0
 269.814 311 228.314 310 226.314 299.5 c 2
 192.814 128.5 l 2
 190.814 118 180.814 67 185.314 54.5 c 0
 191.814 42.5 213.814 39.5 245.314 39.5 c 2
 298.314 39.5 l 2xdb80
 333.314 39.5 377.814 49 405.814 68 c 0
 427.814 83.5 453.814 117 478.814 166 c 0
 480.814 170 486.814 172 493.814 172 c 0
 502.814 172 515.814 169 517.815 166 c 1
 489.814 112 449.814 41 434.814 -3 c 1
 352.314 -3 272.314 -79 272.314 -130.5 c 0
 272.314 -150 280.814 -163.5 305.814 -163.5 c 0
 350.314 -163.5 377.814 -129 384.314 -126.5 c 1
 391.814 -127.5 385.392 -151.173 382.814 -154.5 c 0
 358.314 -188.5 312.314 -224 270.314 -224 c 0
 235.814 -224 214.814 -197 214.814 -170 c 0xb380
EndSplineSet
Validated: 33
EndChar

StartChar: eogonek
Encoding: 281 281 272
Width: 380
Flags: W
HStem: -224 60.5<79.25 159.017> -6 71<97 196.762> 190.5 31.5<125.5 167.895> 403 39<199.346 297>
VStem: 20 101<83.5899 189.216> 41.5 57<-162.342 -106.278> 263.5 96.5<303.855 400.668>
LayerCount: 2
Fore
SplineSet
125.5 222 m 1xf2
 164.5 222 263.5 289.5 263.5 363.5 c 0
 263.5 390.5 250 403 229.5 403 c 0
 171 403 130.5 273 125.5 222 c 1xf2
41.5 -170 m 0xf6
 41 -116.5 112 -39.5 145.5 -5 c 1
 140.5 -6 137.5 -6 132.5 -6 c 0
 61.5 -6 20 46.5 20 139.5 c 0
 20 287.5 156.5 442 271.5 442 c 0
 322.5 442 360 415 360 365 c 0
 360 265.5 185 190.5 123 190.5 c 1
 122 187.5 121 167 121 162 c 0xfa
 121 113 136 65 186 65 c 0
 231 65 285 129 288 132 c 1
 294 132 301.5 113 301.5 107 c 1
 296 97.5 276.5 77 249.5 53.5 c 0
 188.5 0.5 98.5 -83 98.5 -130.5 c 0
 98.5 -150 107 -163.5 132 -163.5 c 0
 176.5 -163.5 204 -129 210.5 -126.5 c 1
 218 -127.5 211.578 -151.173 209 -154.5 c 0
 184.5 -188.5 138.5 -224 96.5 -224 c 0
 62 -224 41.5 -197 41.5 -170 c 0xf6
EndSplineSet
Validated: 33
EndChar

StartChar: Iogonek
Encoding: 302 302 291
Width: 333
Flags: W
HStem: -224 60.5<37.4844 117.251> -3.5 33<-4.09374 64.9227 182.933 237.759> 629 33<118.976 174.632 293.045 361.562>
VStem: -0.265625 57<-183.5 -96.2908>
LayerCount: 2
Fore
SplineSet
241.234 29.5 m 1
 243.734 24 238.234 1.5 234.734 -3.5 c 1
 222.234 -3.5 198.734 -4.5 179.234 -8 c 0
 117.734 -21.5 56.7344 -83 56.7344 -130.5 c 0
 56.7344 -150 65.2344 -163.5 90.2344 -163.5 c 0
 134.734 -163.5 162.234 -129 168.734 -126.5 c 1
 176.234 -127.5 169.812 -151.173 167.234 -154.5 c 0
 142.734 -188.5 96.7344 -224 54.7344 -224 c 0
 20.2344 -224 -0.265625 -197 -0.265625 -170 c 0
 -0.265625 -100 72.2344 -20 119.234 3 c 1
 82.2344 3 29.7344 -0.5 -6.76562 -3.5 c 1
 -10.2656 2 -5.76562 23.5 -0.265625 29.5 c 1
 11.2344 30 59.2344 34.5 65.2344 46.5 c 0
 74.7344 64.5 80.2344 94 87.2344 130.5 c 2
 164.734 528 l 2
 171.734 564.5 177.734 594 174.734 612 c 0
 173.234 624 127.734 628.5 116.234 629 c 1
 113.234 635 117.234 656.5 122.734 662 c 1
 159.234 659 205.734 656 243.234 656 c 0
 280.734 656 326.234 659 364.234 662 c 1
 367.734 656.5 363.234 635 357.734 629 c 1
 346.234 628.5 298.734 624 292.734 612 c 0
 283.234 594 277.234 564.5 270.234 528 c 2
 193.234 130.5 l 2
 186.234 94 179.734 64.5 182.734 46.5 c 0
 184.234 34.5 229.734 30 241.234 29.5 c 1
EndSplineSet
Validated: 33
EndChar

StartChar: iogonek
Encoding: 303 303 292
Width: 287
VWidth: 512
Flags: W
HStem: -224 60.5<50.25 130.017> 371.5 70.5<89.75 173.75> 543 123.5<144.5 218.188>
VStem: 12 57.5<-183.5 -101.103> 113 98.5<257.539 406.139> 125.5 112<562.724 647.872>
LayerCount: 2
Fore
SplineSet
250 100 m 1xf8
 241.5 86 212 55.5 184.5 31.5 c 0
 130 -16.5 69.5 -79 69.5 -130.5 c 0
 69.5 -150 78 -163.5 103 -163.5 c 0
 147.5 -163.5 175 -129 181.5 -126.5 c 1
 189 -127.5 182.578 -151.173 180 -154.5 c 0
 155.5 -188.5 109.5 -224 67.5 -224 c 0
 33 -224 12 -197 12 -170 c 0
 12 -113.5 68 -48 105 -7 c 1
 78 -7 56.5 14 56.5 54.5 c 0
 56.5 65.5 61.5 96.5 64.5 111 c 1
 108.5 316 l 2
 109.5 321 113 343.5 113 348.5 c 0
 113 357.5 110.5 371.5 100.5 371.5 c 0
 79 371.5 33 316.5 30 312 c 1
 25 312 18 329 18 335 c 1
 32 360.5 108 442 158.5 442 c 0
 189 442 211.5 418.5 211.5 380.5 c 0
 211.5 369.5 206.5 339.5 203.5 324 c 1
 159.5 119 l 2
 158 112 154.5 91.5 155.5 86.5 c 0
 155.5 77.5 157.5 63.5 167.5 63.5 c 0
 189 63.5 235 118.5 238 123 c 1
 243 123 250 106 250 100 c 1xf8
190.5 666.5 m 0
 218 666.5 237.5 643.5 237.5 615.5 c 0
 237.5 578 208 543 171.5 543 c 0
 143.5 543 125.5 567.5 125.5 596 c 0xf4
 125.5 633 154.5 666.5 190.5 666.5 c 0
EndSplineSet
Validated: 33
EndChar

StartChar: Uogonek
Encoding: 370 370 339
Width: 688
Flags: W
HStem: -224 60.5<273.008 352.775> -6.5 65<250.052 377.031> 629 33<102.501 158.157 276.07 344.586 530.79 588.914 670.67 745.663>
VStem: 234.759 57.499<-181 -102.156>
LayerCount: 2
Fore
SplineSet
292.258 -130.5 m 0
 292.258 -150 300.758 -163.5 325.758 -163.5 c 0
 370.258 -163.5 397.758 -129 404.258 -126.5 c 1
 411.758 -127.5 405.336 -151.173 402.758 -154.5 c 0
 378.258 -188.5 332.258 -224 290.258 -224 c 0
 255.759 -224 234.759 -194.5 234.759 -167.5 c 0
 234.759 -111 296.758 -44.5 344.258 -1.5 c 1
 325.258 -5 305.258 -6.5 285.258 -6.5 c 0
 209.654 -6.5 147.331 21.4922 114.756 76.5 c 0
 87.249 122.792 81.541 187.448 98.7588 276 c 2
 147.759 528 l 2
 154.759 564.5 161.259 594 158.259 612 c 0
 156.759 624 111.259 628.5 99.7588 629 c 1
 96.7588 635 100.759 656.5 106.259 662 c 1
 142.759 659 188.759 656 226.259 656 c 0
 263.759 656 309.258 659 347.258 662 c 1
 350.758 656.5 346.258 635 340.758 629 c 1
 329.258 628.5 281.758 624 275.759 612 c 0
 266.259 594 260.259 564.5 253.259 528 c 2
 211.759 313 l 2
 197.831 240.701 194.808 186.884 209.09 140.5 c 0
 228.225 73.5518 283.255 58.5 331.258 58.5 c 0
 416.258 58.5 506.758 118 541.759 291.5 c 1
 584.759 512 l 2
 592.259 551.5 597.259 589.5 592.259 607.5 c 0
 588.259 622 541.759 629 528.259 629.5 c 1
 525.259 636.5 529.759 656.5 533.759 662.5 c 1
 573.759 659.5 600.259 656.5 642.259 656.5 c 0
 684.259 656.5 707.259 660.5 748.259 662.5 c 1
 750.759 657 748.759 638.5 742.259 629.5 c 1
 730.759 629 676.259 624 665.759 607.5 c 0
 654.759 590 643.759 553.5 636.259 513 c 2
 590.759 281 l 2
 566.759 161 512.258 82.5 443.258 38 c 0
 377.258 -6 292.258 -80.5 292.258 -130.5 c 0
EndSplineSet
Validated: 33
EndChar

StartChar: uogonek
Encoding: 371 371 340
Width: 512
Flags: W
HStem: -224 60.5<257.75 337.517> -7 92<94.5 193.75> 371.5 70.5<84.75 168.75>
VStem: 60.5 99.5<37.0964 214.203> 108 98.5<253.907 406.139> 219.5 57.5<-183.5 -102.129>
LayerCount: 2
Fore
SplineSet
219.5 -170 m 0xf4
 219.5 -112.5 275.5 -51.5 320 -5.5 c 1
 297.5 -0.5 282.5 20.5 282.5 52.5 c 0
 283 60 286 84.5 290 106 c 0
 295 133.5 300 153.5 305 176 c 1
 273 107.5 171.5 -7 117 -7 c 1
 72 -7 60.5 22.5 60.5 72 c 0xf4
 60.5 102 71.5 159 77 186.5 c 1
 81 207 100.5 295.5 103.5 316 c 2
 104.386 321.025 108 343.5 108 348.5 c 0
 108 357.5 105.5 371.5 95.5 371.5 c 0
 74 371.5 28 316.5 25 312 c 1
 20 312 13 329 13 335 c 1
 27 360.5 103 442 153.5 442 c 0
 184 442 206.5 418.5 206.5 380.5 c 0xec
 206.5 369.5 201.5 339.5 198.5 324 c 1
 197.5 318 169.5 182 169.5 182 c 2
 167.5 171.5 160 127.5 160 117 c 0
 160 100.5 163.5 85 177.5 85 c 0
 210 85 311 221.5 335.5 345.5 c 1
 339.5 367 349 413.5 353.5 435 c 1
 363.5 438 386.5 440 397 440 c 0
 407.5 440 434 438 446 435 c 1
 386 119 l 2
 384.5 111.5 382 91.5 381.5 86.5 c 0
 381.5 77.5 383.5 63.5 393.5 63.5 c 0
 415 63.5 461 118.5 464 123 c 1
 469 123 476 106 476 100 c 1
 468.5 86 438.5 54.5 408 29.5 c 0
 359 -10.5 277 -77.5 277 -130.5 c 0
 277 -150 285.5 -163.5 310.5 -163.5 c 0
 355 -163.5 382.5 -129 389 -126.5 c 1
 396.5 -127.5 390.078 -151.173 387.5 -154.5 c 0
 363 -188.5 317 -224 275 -224 c 0
 240.5 -224 219.5 -197 219.5 -170 c 0xf4
EndSplineSet
Validated: 1
EndChar

StartChar: Hbar
Encoding: 294 294 353
Width: 696
Flags: W
HStem: -3.5 33<-3.09327 65.9232 183.837 239.492 360.484 429.423 547.338 602.993> 320 45<243.134 484.961> 474.5 36.5<96.3616 676.899> 629 33<119.977 175.632 294.046 362.563 483.477 539.133 657.547 726.064>
LayerCount: 2
Fore
SplineSet
105.5 511 m 1
 130.5 511 665 511 677 511 c 0
 680 511 681 507 680 503 c 0
 679 498 674 482.5 669 474.5 c 1
 644 474.5 108.5 474.5 96.5 474.5 c 0
 93.5 474.5 93.5 481.5 94.5 485.5 c 0
 95.5 490.5 98.5 503 105.5 511 c 1
EndSplineSet
Refer: 39 72 N 1 0 0 1 1.00047 0 2
Validated: 5
EndChar

StartChar: hbar
Encoding: 295 295 354
Width: 488
Flags: W
HStem: -7 70.5<296.75 383.75> 350 92<274.75 368.25> 524 36.5<65.7426 342.399> 631.5 25<75.1956 131.711> 670.5 20<223.5 237>
VStem: 135.5 105<549.419 674.5> 262 99<27.7834 181.379> 308.5 99.5<220.16 397.425>
LayerCount: 2
Fore
SplineSet
74.5 560.5 m 1xfc
 101 560.5 329 560.5 341.5 560.5 c 0
 345 560.5 346.5 556.5 345.5 552.5 c 0
 344.5 547.5 339.5 531.5 334.5 524 c 1
 308 524 79 524 66.5 524 c 0
 63 524 63 531 64 535 c 0
 65 540 67.5 553 74.5 560.5 c 1xfc
EndSplineSet
Refer: 71 104 N 1 0 0 1 1 0 2
Validated: 5
EndChar

StartChar: Lslash
Encoding: 321 321 355
Width: 539
Flags: W
HStem: -1 31<-3.09311 65.0532> -1 40.5<185.552 392.264> 629 33<119.556 175.633 293.547 362.064>
LayerCount: 2
Fore
SplineSet
59 208.5 m 2x20
 432 448.5 l 1
 436 443.5 447 419 443 416 c 2
 70 178 l 1
 66 184 55 205.5 59 208.5 c 2x20
EndSplineSet
Refer: 43 76 N 1 0 0 1 1.00049 0 2
Validated: 37
EndChar

StartChar: lslash
Encoding: 322 322 356
Width: 262
Flags: W
HStem: -7 70.5<78.8443 165.844> 631.5 25<88.2899 144.805> 670.5 20<236.594 250.094>
VStem: 36.5947 224.5 44.0943 99<27.7834 179.883> 148.594 105<552.113 674.5>
LayerCount: 2
Fore
SplineSet
36.5947 289 m 2xf0
 253.095 431 l 1
 256.095 426 266.095 406 261.095 403 c 2
 43.5947 260 l 1
 39.5947 266 31.5947 286 36.5947 289 c 2xf0
EndSplineSet
Refer: 75 108 N 1 0 0 1 11.0943 0 2
Validated: 5
EndChar

StartChar: Tbar
Encoding: 358 358 357
Width: 590
Flags: W
HStem: -3.5 33<125.172 193.689 311.602 367.68> 306 39.5<116.185 451.383> 618.5 40.5<158.741 311.5 417 560.819>
VStem: 589.5 34<491.052 581.498>
LayerCount: 2
Fore
SplineSet
125 345.5 m 1
 152.5 345.5 437 345.5 450 345.5 c 0
 454 345.5 455.5 341 454.5 336.5 c 0
 453.5 331 448 314 443 306 c 1
 415.5 306 130.5 306 117.5 306 c 0
 113.5 306 113.5 313.5 114.5 318 c 0
 115.5 323.5 118 337.5 125 345.5 c 1
EndSplineSet
Refer: 51 84 N 1 0 0 1 1 0 2
Validated: 5
EndChar

StartChar: tbar
Encoding: 359 359 358
Width: 317
VWidth: 512
Flags: W
HStem: -7 70.5<96.5556 183.306> 277 39.5<27.2405 288.939> 377 41.5<59.2622 121.556 223.056 307.971>
VStem: 61.5556 99<27.7834 182.578>
LayerCount: 2
Fore
SplineSet
36.0557 316.5 m 1
 63.5557 316.5 274.556 316.5 287.556 316.5 c 0
 291.556 316.5 293.056 312 292.056 307.5 c 0
 291.056 302 285.556 285 280.556 277 c 1
 253.056 277 41.5557 277 28.5557 277 c 0
 24.5557 277 24.5557 284.5 25.5557 289 c 0
 26.5557 294.5 29.0557 308.5 36.0557 316.5 c 1
EndSplineSet
Refer: 83 116 N 1 0 0 1 13.0556 0 2
Validated: 5
EndChar

StartChar: dcroat
Encoding: 273 273 359
Width: 464
Flags: W
HStem: -6 73<72.5 159.782 277.25 361.25> 394.5 47.5<261.5 313.5> 524 36.5<221.243 497.899> 631.5 25<284.696 341.211> 670.5 20<433 446.5>
VStem: 15 100<74.8898 220.718> 345 105<550.109 674.5>
LayerCount: 2
Fore
SplineSet
230 560.5 m 1
 256.5 560.5 484.5 560.5 497 560.5 c 0
 500.5 560.5 502 556.5 501 552.5 c 0
 500 547.5 495 531.5 490 524 c 1
 463.5 524 234.5 524 222 524 c 0
 218.5 524 218.5 531 219.5 535 c 0
 220.5 540 223 553 230 560.5 c 1
EndSplineSet
Refer: 67 100 N 1 0 0 1 0 0 2
Validated: 5
EndChar

StartChar: kgreenlandic
Encoding: 312 312 362
Width: 510
VWidth: 512
Flags: W
HStem: -4 70.5<300.5 406.25> 371.5 70.5<88.75 172.75> 381 61<304.642 402.75>
VStem: 112 98.5<331.561 380.5> 353.5 103.5<312.415 379.973>
LayerCount: 2
Fore
SplineSet
107.5 316 m 2xb8
 108.5 321 112 343.5 112 348.5 c 0
 112 357.5 109.5 371.5 99.5 371.5 c 0
 78 371.5 32 316.5 29 312 c 1
 24 312 17 329 17 335 c 1
 31 360.5 107 442 157.5 442 c 0xd8
 188 442 210.5 418.5 210.5 380.5 c 0
 210.5 370.339 207.825 354.54 205.807 339 c 1
 205.695 337.904 205.089 332.75 205 331.5 c 1
 213.5 346.5 293.5 442 378.5 442 c 1
 427 442 457 414.5 457 372 c 0
 457 293.5 358.5 242.5 265.5 220.5 c 1
 318 130.5 354 66.5 396 66.5 c 0
 416.5 66.5 454.5 110 464 122.5 c 1
 470.5 122.5 476 105 476 100 c 1
 467 79.5 391.5 -4 339.5 -4 c 0
 261.5 -4 210.5 128 178.5 199.5 c 1
 171 162 139.5 0 139.5 0 c 1
 129 -3 105 -5.5 94 -5.5 c 0
 83 -5.5 58.5 -3 46.5 0 c 1
 49.5 15.5 107.5 316 107.5 316 c 2xb8
323 381 m 1xb8
 264.5 381 192.5 281.5 186.5 239 c 1
 251 239 353.5 279.5 353.5 348 c 1
 353.5 362 348.5 381 323 381 c 1xb8
EndSplineSet
Validated: 1
EndChar

StartChar: Eng
Encoding: 330 330 363
Width: 724
Flags: W
HStem: -225.5 21.5<290.734 306.917> -3.5 33<-11.6758 61.4257 146.939 207.372> 630.5 33<113.526 170.998 550.411 612.375 693.228 769.021>
LayerCount: 2
Fore
SplineSet
288.168 -204 m 1
 338.168 -187 459.168 -65.5 494.168 56.5 c 1
 225.668 544 l 1
 146.668 136 l 2
 139.668 100 136.168 68 140.168 53 c 0
 143.668 38.5 198.668 30 209.668 30 c 1
 213.168 21.5 207.668 2.5 204.668 -3.5 c 1
 167.668 -1.5 134.668 3 93.668 3 c 0
 50.668 3 27.668 -1.5 -15.332 -3.5 c 1
 -17.832 3.5 -12.832 24 -8.33203 29.5 c 1
 2.66797 29.5 59.168 37.5 69.168 52.5 c 0
 79.168 67.5 89.168 99 96.168 137 c 1
 108.668 202.5 160.168 465.5 172.668 531 c 1
 178.668 564 181.168 593 174.668 610 c 0
 169.668 622.5 123.168 630.5 112.168 630.5 c 1
 108.168 636 112.168 658.5 117.168 663.5 c 1
 152.168 661.5 180.168 657.5 217.168 657.5 c 0
 247.668 657.5 282.168 659.5 304.168 662 c 1
 330.168 583 467.168 361 547.168 207 c 1
 548.668 210.5 552.913 232 554.413 239 c 1
 607.168 510.5 l 1
 614.168 547.5 621.668 593.5 616.668 609 c 0
 612.668 623 560.668 630 547.668 630 c 1
 545.168 633.5 548.668 655.5 553.168 663 c 1
 592.668 661 620.168 656.5 662.168 656.5 c 0
 704.168 656.5 732.168 661 772.668 663 c 1
 774.168 657.5 772.668 640 765.168 629.5 c 1
 756.168 629.5 696.668 624.5 686.168 608 c 0
 677.168 593.5 665.213 549 658.168 512.5 c 2
 658.168 512.5 614.213 280 584.213 129.5 c 0
 535.193 -116.417 364.713 -216.5 295.213 -225.5 c 1
 291.713 -222.5 287.213 -212 288.168 -204 c 1
EndSplineSet
Validated: 33
EndChar

StartChar: OE
Encoding: 338 338 364
Width: 992
VWidth: 512
Flags: W
HStem: -10 42<250.037 430.005> 0.5 39<611.5 815.227> 311 42<665.658 805.033> 620.5 36<715.235 860.989> 627.5 39.5<344.374 522.417 764.751 899.915>
VStem: 53 119.5<143.753 392.815> 822.5 29<232.046 273.411> 859 29<393.868 431.454> 939.5 32.5<517.239 583.093>
LayerCount: 2
Fore
SplineSet
415 627.5 m 3xaf80
 268.5 627.5 172.5 423.5 172.5 255 c 1
 172.5 132.5 217.402 32 320 32 c 1
 413.5 32 460.779 59 495.417 114.5 c 0
 516.417 133.5 551.573 322.5 570.958 422 c 0
 581.04 475 585.562 543.974 561 578 c 0
 533.5 619 459 627.5 415 627.5 c 3xaf80
551.5 0.5 m 0x7780
 532 0.5 486.5 0.5 437 -2.5 c 0
 388.969 -5.54883 338 -10 295 -10 c 1
 152.5 -10 53 111.5 53 260 c 1
 53 492 237.356 667 436 667 c 1xaf80
 522 667 593 656.5 658.5 656.5 c 0
 721 656.5 894.5 663.5 972.5 664 c 1
 971.466 648.107 971.186 633.025 971.046 617.5 c 0
 970.792 584.654 972 552.997 972 522 c 1
 969 519 958.5 517 951.5 517 c 0
 945 517 940 519.5 939.5 524.5 c 0
 931.5 593 907 620.5 844.5 620.5 c 2
 779 620.5 l 1
 750.5 620.5 723.5 620 717.5 608.5 c 0
 709 589 705.5 569.5 700 541.5 c 2
 665.5 362.5 l 2
 664.5 356 683.5 353 703 353 c 2
 750 353 l 2
 822 353 830.5 360.5 859 424 c 0
 861 429 865.5 431.5 872 431.5 c 0
 878.5 431.5 886 429.5 888 426.5 c 1
 851.5 236 l 1
 849 234 842 232 835.5 232 c 0
 828.5 232 823 234.5 822.5 240 c 0
 820 292.5 813 298.5 805.5 303.5 c 0
 796 309.5 757 311 722 311 c 0
 696 311 655 310 653 299.5 c 2
 623 146.5 l 2
 619 126.5 609.5 79.5 611.5 58 c 0
 613 44 635.5 39.5 672 39.5 c 1
 725.5 39.5 l 2
 760.5 39.5 804.5 49 832.5 68 c 0
 854.5 83.5 880 117 905.5 166 c 0
 907.5 170 913.5 172 920.5 172 c 0
 929.5 172 942 169 944 166 c 1
 915.5 112 876.5 41 861.5 -3 c 1
 799.039 -3 656.495 0.5 551.5 0.5 c 0x7780
EndSplineSet
Validated: 33
EndChar

StartChar: oe
Encoding: 339 339 365
Width: 635
VWidth: 512
Flags: W
HStem: -6 71<364.686 452.839> -5.5 36<140.962 208.091> 190.5 31.5<381.5 423.895> 403 39<202.161 278.662 454.325 553>
VStem: 20 101.5<50.7185 248.234> 293.5 83.5<223.761 295.002> 519.5 96.5<304.159 400.446>
LayerCount: 2
Fore
SplineSet
381.5 222 m 1x3e
 423.5 223 519.5 290.5 519.5 363.5 c 0
 519.5 386 506 403 485.5 403 c 0
 431 403 388.5 283.5 381.5 222 c 1x3e
250 406 m 0
 170.5 406 121.5 246.5 121.5 141.5 c 0
 121.5 89.5 132 30.5 167 30.5 c 0x7e
 237.5 30.5 293.5 172.5 293.5 292.5 c 0
 293.5 349 285 406 250 406 c 0
527.5 442 m 0
 578.5 442 616 415 616 365 c 0
 616 265.5 441 190.5 379 190.5 c 1
 378 187.5 377 167 377 162 c 0
 377 113 392 65 442 65 c 0
 487 65 541 129 544 132 c 1
 550 132 557.5 113 557.5 107 c 1
 544.5 85 451.5 -6 388.5 -6 c 0xbe
 340.872 -6 306.489 18.2969 289.409 62.3145 c 1
 247.445 21.332 197.653 -5.5 149.5 -5.5 c 0
 68 -5.5 20 49 20 140 c 0
 20 282 145 442 262.5 442 c 0
 319.753 442 361.124 417.885 380.959 369.65 c 1
 425.276 413.898 478.146 442 527.5 442 c 0
EndSplineSet
Validated: 1
EndChar

StartChar: eng
Encoding: 331 331 366
Width: 489
VWidth: 512
Flags: W
HStem: -226.5 21G<143.25 161.25> -5 21G<85.75 98.25> 350 92<303.914 379.564> 371.5 70.5<88.75 172.75>
VStem: 112 98.5<243.822 406.139> 338 99.5<220.438 397.635>
LayerCount: 2
Fore
SplineSet
387.5 82.5 m 1xec
 375.5 22.5 351 -43.5 309 -99.5 c 0
 266.5 -155.5 177 -215.5 145.5 -226.5 c 1
 141 -225 136 -213.5 136 -205.5 c 1
 222 -146 262.5 -69 289 61 c 1
 328.5 253 l 2
 330.5 263.5 338 307.5 338 318 c 0
 338 336 335 350 320.5 350 c 0xec
 287.5 350 186.5 232.5 160.5 106.5 c 1
 156 82.5 143 24 138 0 c 1
 126 -2.5 104.5 -5 92 -5 c 0
 79.5 -5 58 -2.5 45 0 c 1
 107.5 316 l 2
 108.5 321 112 343.5 112 348.5 c 0
 112 357.5 109.5 371.5 99.5 371.5 c 0
 78 371.5 32 316.5 29 312 c 1
 24 312 17 329 17 335 c 1
 31 360.5 107 442 157.5 442 c 0xdc
 188 442 210.5 418.5 210.5 380.5 c 0
 210.5 369.5 205.671 339.966 202 324 c 1
 200.5 317 190.5 270.5 188 260 c 1
 209.5 306.5 312 442 370.5 442 c 1
 421.5 442 437.5 414.5 437.5 365.5 c 0
 437.5 333 426.5 276.5 420.5 246.5 c 2
 387.5 82.5 l 1xec
EndSplineSet
Validated: 1
EndChar

StartChar: uni0237
Encoding: 567 567 367
Width: 268
VWidth: 512
Flags: W
HStem: -226.5 21G<-80.25 -62.25> 371.5 70.5<97.25 181.25>
VStem: 120.5 98.5<252.277 406.139>
LayerCount: 2
Fore
SplineSet
116 316 m 2
 117 321 120.5 343.5 120.5 348.5 c 0
 120.5 357.5 118 371.5 108 371.5 c 0
 86.5 371.5 40.5 316.5 37.5 312 c 1
 32.5 312 25.5 329 25.5 335 c 1
 39.5 360.5 115.5 442 166 442 c 0
 196.5 442 219 418.5 219 380.5 c 0
 219 369.5 214 339.5 211 324 c 1
 211 324 172 120 164.5 82.5 c 1
 153 22.5 127.5 -43.5 85.5 -99.5 c 0
 43 -155.5 -46.5 -215.5 -78 -226.5 c 1
 -82.5 -225 -87 -213.5 -87 -205.5 c 1
 -1 -146 40.5 -69 66 61 c 1
 116 316 l 2
EndSplineSet
Validated: 1
EndChar

StartChar: mu
Encoding: 956 956 372
Width: 488
Flags: W
HStem: -9 86<126.868 194.397 312.958 381.498> 421.5 20G<137.208 147.708>
VStem: 1.95801 59.5<-195.004 50.0029> 330.458 82<336.399 431.947>
LayerCount: 2
Fore
SplineSet
142.958 441.5 m 0
 152.458 441.5 192.458 417.5 189.458 404.5 c 0
 186.958 390.5 175.958 345 140.958 256 c 0
 138.958 250 129.458 223 129.458 223 c 0
 113.958 144 118.458 77 150.458 77 c 0
 206.458 77 250.958 148 279.458 213 c 1
 290.958 256 321.458 394 330.458 429 c 1
 338.458 436.5 350.958 442 360.958 441.5 c 0
 386.458 440 415.458 417.5 412.458 404.5 c 0
 409.458 386.5 393.958 335 358.958 246 c 0
 356.958 240 349.958 223 349.958 223 c 1
 332.458 141 326.458 72.5 367.958 72.5 c 0
 390.958 72.5 418.958 94 427.458 103 c 1
 430.458 103 434.458 95 435.458 90 c 0
 435.958 86.5 435.458 79 434.458 76 c 0
 413.958 32 370.458 -4 334.458 -4 c 0
 291.458 -3 283.458 64 288.458 128 c 1
 246.958 58 195.958 -9 133.458 -9 c 0
 95.958 -9 93.958 42 89.958 76 c 1
 87.458 55 39.958 -73 61.458 -145 c 1
 58.458 -166.5 52.958 -187 38.958 -197 c 1
 17.958 -196 10.958 -193.5 1.95801 -174 c 0
 -4.54199 -155.5 5.95801 -55.5 21.458 29 c 1
 23.958 75 60.458 208.5 72.458 251 c 1
 76.458 269.5 87.458 332.5 92.958 362 c 1
 97.458 372.5 97.958 384.5 104.958 421.5 c 1
 110.958 429.5 131.458 441.5 142.958 441.5 c 0
EndSplineSet
Validated: 33
EndChar

StartChar: acutecomb.cap
Encoding: 63633 63633 373
Width: 225
Flags: W
HStem: 712.5 113
VStem: 154 194.305
LayerCount: 2
Fore
SplineSet
161.5 712.5 m 1
 159 714 154 720.5 154 724 c 1
 156.5 731.5 226.5 798.5 260 819 c 0
 265.923 822.633 286 825.5 296.5 825.5 c 0
 322.5 825.5 348.305 816 348.305 798.5 c 0
 348.305 766 176.5 713.5 161.5 712.5 c 1
EndSplineSet
Validated: 1
EndChar

StartChar: gravecomb.cap
Encoding: 63632 63632 374
Width: 246
Flags: W
HStem: 712.5 113
VStem: 182 194.305
LayerCount: 2
Fore
SplineSet
368.805 712.5 m 1
 353.805 713.5 182 766 182 798.5 c 0
 182 816 207.805 825.5 233.805 825.5 c 0
 244.305 825.5 264.382 822.633 270.305 819 c 0
 303.805 798.5 373.805 731.5 376.305 724 c 1
 376.305 720.5 371.305 714 368.805 712.5 c 1
EndSplineSet
Validated: 1
EndChar

StartChar: uni0302.cap
Encoding: 63634 63634 375
Width: 323
Flags: W
HStem: 707.5 132.5
VStem: 177.156 246.5
LayerCount: 2
Fore
SplineSet
326.156 840 m 0
 330.656 840 333.707 836.07 336.656 831.5 c 0
 360.656 794.5 395.656 753.5 423.656 720.5 c 1
 422.416 713.5 416.3 708.5 410.114 707.5 c 1
 385.893 721.5 324.81 757 311.156 767 c 1
 293.81 757 215.983 721 185.614 707.5 c 1
 180.8 708.5 176.073 714.5 177.156 720.5 c 1
 231.656 763 278.656 800.5 312.122 831.5 c 0
 317.729 836.445 322.156 840 326.156 840 c 0
EndSplineSet
Validated: 1
EndChar

StartChar: uni030A.cap
Encoding: 63635 63635 376
Width: 335
Flags: W
HStem: 581 39.5<248.343 324.487> 730 39<262.173 338.458>
VStem: 205.833 174
LayerCount: 2
Fore
SplineSet
242.833 675.5 m 0
 236.833 645 254.833 620.5 282.833 620.5 c 0
 310.833 620.5 337.333 645 343.333 675.5 c 0
 349.333 706 332.333 730 304.333 730 c 0
 276.333 730 248.833 706 242.833 675.5 c 0
205.833 675.5 m 0
 215.833 727 264.333 769 311.833 769 c 0
 359.333 769 389.833 727 379.833 675.5 c 0
 369.833 624 322.833 581 275.333 581 c 0
 227.833 581 195.833 624 205.833 675.5 c 0
EndSplineSet
Validated: 33
EndChar

StartChar: tildecomb.cap
Encoding: 63636 63636 377
Width: 328
Flags: W
HStem: 726.5 46<345.544 454.55> 766.5 46<213.45 322.456>
VStem: 180 307.5
LayerCount: 2
Fore
SplineSet
278.5 812.5 m 0x60
 303 812.5 319 810 340.5 797.5 c 0
 362 785 382.5 772.5 414 772.5 c 0xa0
 448.5 772.5 474 805 480 812.5 c 1x60
 483 811.5 487.5 808 487.5 800.5 c 0
 487.5 786 478 771 469 761.5 c 0
 443.5 736 419 726.5 389.5 726.5 c 0xa0
 365 726.5 349 729 327.5 741.5 c 0
 306 754 285.5 766.5 254 766.5 c 0x60
 219.5 766.5 194 734 188 726.5 c 1xa0
 185 727.5 180 731 180 738.5 c 0
 180 753 190 768 199 777.5 c 0
 224.5 803 249 812.5 278.5 812.5 c 0x60
EndSplineSet
Validated: 1
EndChar

StartChar: uni0304.cap
Encoding: 63637 63637 378
Width: 352
Flags: W
HStem: 653.5 41<190.26 439.158>
VStem: 188 253<653.93 694.5>
LayerCount: 2
Fore
SplineSet
430.5 653.5 m 1
 191 653.5 l 1
 191 653.5 188 656.5 188 662.5 c 0
 188 669.5 195.5 694.5 200.68 694.5 c 2
 436.18 694.5 l 2
 438.18 694.5 441 691.5 441 687.5 c 0
 441 682.451 438.5 662.5 430.5 653.5 c 1
EndSplineSet
Validated: 1
EndChar

StartChar: uni0306.cap
Encoding: 63638 63638 379
Width: 231
Flags: W
HStem: 615 51.5<195.05 301.984>
VStem: 158.084 23<691.515 727.081> 342.584 18.5<711.285 728.258>
LayerCount: 2
Fore
SplineSet
251.084 666.5 m 0
 287.584 666.5 325.584 687 342.584 727 c 0
 342.584 729 345.084 729.5 347.084 729.5 c 0
 353.084 729.5 362.084 722 361.084 717.5 c 0
 361.084 716.5 359.084 712 359.084 710 c 0
 341.084 660.5 290.084 615 240.084 615 c 0
 190.084 615 156.084 657.5 158.084 711 c 0
 158.084 713 158.584 716.5 158.584 717.5 c 0
 159.584 722 171.584 729.5 177.584 729.5 c 0
 179.584 729.5 181.084 729 181.084 727 c 0
 182.584 687 210.584 666.5 251.084 666.5 c 0
EndSplineSet
Validated: 33
EndChar

StartChar: uni0327.cap
Encoding: 63639 63639 380
Width: 283
VWidth: 512
Flags: W
HStem: -157.5 23.5<111.222 170.529> -63 35<165 181.047>
VStem: 183.5 44.5<-120.89 -63.6197>
LayerCount: 2
Fore
SplineSet
162.5 -4 m 5
 186.5 -4 l 13
 165 -28 l 29
 184.5 -28 l 6
 207.5 -28 228 -46 228 -70.5 c 4
 228 -114 180.5 -157.5 116 -157.5 c 7
 104 -157.5 85.5 -152.5 80 -148 c 5
 79 -145.5 78 -142 78 -139 c 4
 78 -123.5 88.5 -115.5 95 -115.5 c 7
 110 -115.5 116.5 -134 138 -134 c 7
 164 -134 183.5 -117 183.5 -93.5 c 4
 183.5 -72.5 169 -63 157 -63 c 4
 146.5 -63 140.5 -66 130 -70.5 c 4
 128 -70.5 119 -63.5 119 -59 c 4
 119 -54.5 137.5 -38.5 162.5 -4 c 5
EndSplineSet
Validated: 1
EndChar

StartChar: uni0307.cap
Encoding: 63640 63640 381
Width: 219
Flags: W
HStem: 719.5 119<252.954 324.048>
VStem: 234.104 109.5<738.611 819.41>
LayerCount: 2
Fore
SplineSet
234.104 780 m 0
 240.104 812.5 270.104 838.5 300.604 838.5 c 1
 330.604 838.5 349.604 812.5 343.604 780 c 0
 337.604 747.5 308.604 719.5 278.104 719.5 c 1
 247.104 719.5 228.104 747.5 234.104 780 c 0
EndSplineSet
Validated: 33
EndChar

StartChar: uni0323.cap
Encoding: 63641 63641 382
Width: 259
Flags: W
HStem: -158 124<80.894 152.554>
VStem: 59.2236 115<-136.679 -55.3206>
LayerCount: 2
Fore
SplineSet
59.2236 -96 m 0
 65.7236 -61.5 96.7236 -34 128.724 -34 c 0
 160.724 -34 180.724 -61.5 174.224 -96 c 0
 167.724 -130.5 136.724 -158 104.724 -158 c 0
 72.7236 -158 52.7236 -130.5 59.2236 -96 c 0
EndSplineSet
Validated: 33
EndChar

StartChar: uni0305.cap
Encoding: 63642 63642 383
Width: 526
Flags: W
HStem: 736.5 67.5<140.968 682.265>
LayerCount: 2
Fore
SplineSet
130.408 746.5 m 0
 130.408 748.5 144.408 804 154.408 804 c 2
 695.908 804 l 2
 697.908 804 701.408 803 699.408 795 c 0
 696.408 777 684.408 747.5 682.408 743.5 c 0
 679.408 737.5 673.408 736.5 673.408 736.5 c 1
 134.408 736.5 l 1
 134.408 736.5 128.408 736.5 130.408 746.5 c 0
EndSplineSet
Validated: 1
EndChar

StartChar: hookabovecomb.cap
Encoding: 63643 63643 384
Width: 164
Flags: W
HStem: 625.5 3<195.488 218.031>
VStem: 137.078 112.5
LayerCount: 2
Fore
SplineSet
204.578 628.5 m 0
 232.078 628.5 252.578 613.5 249.578 588.5 c 0
 246.078 565 225.078 547.5 203.578 539 c 0
 185.078 531.5 169.049 524 167.549 511.5 c 0
 167.549 502 174.078 496.5 176.578 494 c 1
 178.578 492.5 171.578 491.5 167.078 493.5 c 1
 164.078 496.5 160.578 506 161.078 510.5 c 0
 163.578 527.5 181.649 535.776 195.578 541.5 c 0
 217.078 550 242.549 563.5 244.549 589 c 0
 245.549 605 234.078 625.5 206.078 625.5 c 0
 181.078 625.5 156.578 605.5 154.578 588.5 c 0
 153.078 577.5 142.078 573 137.078 572.5 c 1
 135.078 575.5 172.078 628.5 204.578 628.5 c 0
EndSplineSet
Validated: 33
EndChar

StartChar: uni030B.cap
Encoding: 63644 63644 385
Width: 395
Flags: W
HStem: 712.5 113
LayerCount: 2
Fore
SplineSet
329 712.5 m 1
 326.5 714 321.5 720.5 321.5 724 c 1
 324 731.5 394 798.5 427.5 819 c 0
 433.423 822.633 453.5 825.5 464 825.5 c 0
 490 825.5 515.806 816 515.806 798.5 c 0
 515.806 766 344 713.5 329 712.5 c 1
161.5 712.5 m 1
 159 714 154 720.5 154 724 c 1
 156.5 731.5 226.5 798.5 260 819 c 0
 265.923 822.633 286 825.5 296.5 825.5 c 0
 322.5 825.5 348.305 816 348.305 798.5 c 0
 348.305 766 176.5 713.5 161.5 712.5 c 1
EndSplineSet
Validated: 1
EndChar

StartChar: uni0308.cap
Encoding: 63645 63645 386
Width: 362
Flags: W
HStem: 714.5 119<203.591 274.675 394.975 465.675>
VStem: 185.125 109.5<734.684 814.41> 376.125 109.5<733.611 814.41>
LayerCount: 2
Fore
SplineSet
376.125 775 m 0
 382.125 807.5 411.625 833.5 442.125 833.5 c 1
 472.125 833.5 491.625 807.5 485.625 775 c 0
 479.625 742.5 450.625 714.5 420.125 714.5 c 1
 389.125 714.5 370.125 742.5 376.125 775 c 0
185.125 775 m 0
 191.125 807.5 220.625 833.5 251.125 833.5 c 1
 281.125 833.5 300.625 807.5 294.625 775 c 0
 288.625 742.5 259.125 714.5 228.625 714.5 c 1
 197.625 714.5 179.125 742.5 185.125 775 c 0
EndSplineSet
Validated: 33
EndChar

